<?xml version="1.0" encoding="UTF-8" standalone="no"?>
<svg width="80px" height="48px" viewBox="0 0 80 48" version="1.1" xmlns="http://www.w3.org/2000/svg" xmlns:xlink="http://www.w3.org/1999/xlink" xmlns:sketch="http://www.bohemiancoding.com/sketch/ns">
    <!-- Generator: Sketch 3.4 (15575) - http://www.bohemiancoding.com/sketch -->
    <title>AmericanExpress-dark</title>
    <desc>Created with Sketch.</desc>
    <defs></defs>
    <g id="Page-1" stroke="none" stroke-width="1" fill="none" fill-rule="evenodd" sketch:type="MSPage">
        <g id="Group" sketch:type="MSLayerGroup" transform="translate(-599.000000, -2425.000000)">
            <g id="footer" transform="translate(0.000000, 2346.000000)" sketch:type="MSShapeGroup">
                <g id="payment" transform="translate(227.000000, 34.000000)">
                    <g id="AmericanExpress-dark" transform="translate(372.000000, 45.000000)">
                        <rect id="Rectangle" fill="#0072CE" x="0" y="0" width="80" height="48" rx="4"></rect>
                        <path d="M67.525889,27.7324665 L64.6994563,27.7324665 C64.4172631,27.7324665 64.2297867,27.7430022 64.0718603,27.8493356 C63.9082587,27.9541082 63.8452447,28.1096085 63.8452447,28.3148612 C63.8452447,28.5589402 63.9834058,28.7249764 64.1843853,28.7967758 C64.3479869,28.853552 64.5237216,28.8701361 64.7820399,28.8701361 L65.6225528,28.8925734 C66.4706979,28.9134499 67.0368455,29.0588047 67.3820527,29.4133143 C67.444871,29.4626764 67.4826403,29.5180868 67.525889,29.5734973 L67.525889,27.7324665 Z M67.525889,31.9980935 C67.1491748,32.54732 66.4151203,32.8257379 65.4213777,32.8257379 L62.426451,32.8257379 L62.426451,31.4383311 L65.4092445,31.4383311 C65.7051364,31.4383311 65.9121824,31.3995048 66.0368406,31.2781482 C66.1448646,31.1780582 66.2202074,31.0327034 66.2202074,30.8561315 C66.2202074,30.667658 66.1448646,30.5180109 66.030774,30.4282616 C65.918249,30.3295374 65.7544517,30.2846627 65.4843917,30.2846627 C64.0282201,30.2353006 62.2115771,30.3295374 62.2115771,28.2820832 C62.2115771,27.343618 62.8092317,26.3557906 64.436637,26.3557906 L67.5256933,26.3557906 L67.5256933,25.0684738 L64.6556205,25.0684738 C63.7894714,25.0684738 63.1603098,25.2752874 62.7147107,25.5968239 L62.7147107,25.0684738 L58.4694843,25.0684738 C57.790616,25.0684738 56.9937432,25.2362659 56.6168333,25.5968239 L56.6168333,25.0684738 L49.035974,25.0684738 L49.035974,25.5968239 C48.4326442,25.1629057 47.4146353,25.0684738 46.9447699,25.0684738 L41.9443539,25.0684738 L41.9443539,25.5968239 C41.4670521,25.1359809 40.4055987,25.0684738 39.7586288,25.0684738 L34.1623194,25.0684738 L32.8816869,26.4502224 L31.6822681,25.0684738 L23.32254,25.0684738 L23.32254,34.0964706 L31.5249287,34.0964706 L32.8445047,32.6928699 L34.0875637,34.0964706 L39.1435573,34.1009581 L39.1435573,31.977217 L39.6406243,31.977217 C40.3114691,31.9875577 41.1026668,31.9606329 41.8007133,31.6597777 L41.8007133,34.0962755 L45.9709882,34.0962755 L45.9709882,31.7432836 L46.1721634,31.7432836 C46.4289161,31.7432836 46.4541609,31.7538194 46.4541609,32.0096048 L46.4541609,34.0960804 L59.1227165,34.0960804 C59.9270257,34.0960804 60.7677344,33.8908277 61.2332944,33.5183682 L61.2332944,34.0960804 L65.2517095,34.0960804 C66.0879172,34.0960804 66.9045552,33.9792112 67.525889,33.6799169 L67.525889,31.9980935 L67.525889,31.9980935 Z M61.3397528,29.4133143 C61.6417113,29.7249004 61.8035516,30.1182364 61.8035516,30.784137 C61.8035516,32.1760312 60.931336,32.8257379 59.3673361,32.8257379 L56.3467732,32.8257379 L56.3467732,31.4383311 L59.3552029,31.4383311 C59.6493336,31.4383311 59.8579451,31.3995048 59.9886699,31.2781482 C60.095324,31.1780582 60.171841,31.0327034 60.171841,30.8561315 C60.171841,30.667658 60.0890617,30.5180109 59.9826033,30.4282616 C59.8640117,30.3295374 59.7004101,30.2846627 59.4303501,30.2846627 C57.9800494,30.2353006 56.1637978,30.3295374 56.1637978,28.2820832 C56.1637978,27.343618 56.7551901,26.3557906 58.3810298,26.3557906 L61.4900471,26.3557906 L61.4900471,27.7328567 L58.645219,27.7328567 C58.3632215,27.7328567 58.1798547,27.7433925 58.0238852,27.8497258 C57.8540214,27.9544984 57.7910074,28.1099987 57.7910074,28.3152514 C57.7910074,28.5593304 57.9352351,28.7253666 58.1303437,28.797166 C58.2939453,28.8539422 58.46968,28.8705263 58.7338692,28.8705263 L59.5687069,28.8929636 C60.4105898,28.9134499 60.9884791,29.0586096 61.3397528,29.4133143 L61.3397528,29.4133143 Z M47.3459461,29.0137349 C47.1385087,29.1364573 46.8819516,29.1469931 46.5801889,29.1469931 L44.6962266,29.1469931 L44.6962266,27.6938352 L46.605825,27.6938352 C46.8819516,27.6938352 47.1582739,27.6996885 47.3459461,27.8107044 C47.5469255,27.9154769 47.6670827,28.115852 47.6670827,28.392709 C47.6670827,28.669566 47.5469255,28.8925734 47.3459461,29.0137349 L47.3459461,29.0137349 Z M48.2825456,29.818942 C48.6277528,29.9459568 48.909946,30.1736468 49.0422362,30.3621203 C49.2612197,30.6779987 49.2929224,30.9728056 49.2991847,31.5431037 L49.2991847,32.8257379 L47.7422298,32.8257379 L47.7422298,32.0162384 C47.7422298,31.6269997 47.7798034,31.0506533 47.4915437,30.7497981 C47.2649281,30.5180109 46.9195252,30.4626004 46.353769,30.4626004 L44.6964223,30.4626004 L44.6964223,32.8257379 L43.1380975,32.8257379 L43.1380975,26.3555955 L46.7185457,26.3555955 C47.5036768,26.3555955 48.0754996,26.3901295 48.584504,26.6609381 C49.0739389,26.955745 49.3817683,27.3596167 49.3817683,28.097707 C49.3815726,29.130409 48.6907668,29.6573933 48.2825456,29.818942 L48.2825456,29.818942 Z M50.2416551,26.3555955 L55.4176101,26.3555955 L55.4176101,27.6936401 L51.7860854,27.6936401 L51.7860854,28.869941 L55.32896,28.869941 L55.32896,30.1900358 L51.7860854,30.1900358 L51.7860854,31.4773526 L55.4176101,31.4832058 L55.4176101,32.8257379 L50.2416551,32.8257379 L50.2416551,26.3555955 L50.2416551,26.3555955 Z M39.7783941,29.3415149 L37.7742746,29.3415149 L37.7742746,27.6938352 L39.7963981,27.6938352 C40.3562834,27.6938352 40.7449351,27.9213302 40.7449351,28.4871408 C40.7449351,29.046708 40.3742874,29.3415149 39.7783941,29.3415149 L39.7783941,29.3415149 Z M36.2296486,32.2372948 L33.8486193,29.6017878 L36.2296486,27.0499817 L36.2296486,32.2372948 L36.2296486,32.2372948 Z M30.0806946,31.4773526 L26.26776,31.4773526 L26.26776,30.1900358 L29.6724734,30.1900358 L29.6724734,28.869941 L26.26776,28.869941 L26.26776,27.6936401 L30.1558418,27.6936401 L31.8521319,29.5791554 L30.0806946,31.4773526 L30.0806946,31.4773526 Z M42.4099139,28.4871408 C42.4099139,30.2844676 41.0648975,30.6555614 39.7093135,30.6555614 L37.7742746,30.6555614 L37.7742746,32.8257379 L34.759974,32.8257379 L32.8503756,30.6838519 L30.8658257,32.8257379 L24.7229383,32.8257379 L24.7229383,26.3555955 L30.9603467,26.3555955 L32.8683796,28.4764099 L34.8409921,26.3555955 L39.7963981,26.3555955 C41.0271282,26.3555955 42.4099139,26.695277 42.4099139,28.4871408 L42.4099139,28.4871408 Z" id="EXPRESS" fill="#FFFFFF"></path>
                        <path d="M17.3238802,18.8993817 L16.2624269,16.3206509 L15.2070401,18.8993817 L17.3238802,18.8993817 Z M40.7075572,17.8725329 C40.4944446,18.0014987 40.2423886,18.0057911 39.9404301,18.0057911 L38.0564678,18.0057911 L38.0564678,16.5690222 L39.9660662,16.5690222 C40.236322,16.5690222 40.5183195,16.5811189 40.7014906,16.6856963 C40.9026658,16.779933 41.0271282,16.9805031 41.0271282,17.2575553 C41.0271282,17.5402655 40.9087323,17.7677604 40.7075572,17.8725329 L40.7075572,17.8725329 Z M54.1475452,18.8993817 L53.0743501,16.3206509 L52.0070258,18.8993817 L54.1475452,18.8993817 L54.1475452,18.8993817 Z M29.0945841,21.6905842 L27.5047524,21.6905842 L27.4988815,16.6244326 L25.2501424,21.6905842 L23.8884919,21.6905842 L21.6338819,16.6199452 L21.6338819,21.6905842 L18.4796589,21.6905842 L17.8837656,20.247767 L14.6547869,20.247767 L14.0528269,21.6905842 L12.3684742,21.6905842 L15.1455916,15.2220026 L17.4497126,15.2220026 L20.087299,21.3464152 L20.087299,15.2220026 L22.6184269,15.2220026 L24.6479868,19.6101569 L26.5123796,15.2220026 L29.0943884,15.2220026 L29.0943884,21.6905842 L29.0945841,21.6905842 Z M35.4310145,21.6905842 L30.2503628,21.6905842 L30.2503628,15.2220026 L35.4310145,15.2220026 L35.4310145,16.5690222 L31.801251,16.5690222 L31.801251,17.7349824 L35.34393,17.7349824 L35.34393,19.0609304 L31.801251,19.0609304 L31.801251,20.3527347 L35.4310145,20.3527347 L35.4310145,21.6905842 L35.4310145,21.6905842 Z M42.7355515,16.9641141 C42.7355515,17.9954504 42.0451372,18.5282879 41.6427868,18.6882758 C41.9821232,18.8170465 42.2719485,19.0445414 42.4099139,19.2330149 C42.6288974,19.5547465 42.6666666,19.8421393 42.6666666,20.4198515 L42.6666666,21.6905842 L41.1024711,21.6905842 L41.0966002,20.8748413 C41.0966002,20.4856026 41.1339781,19.9258403 40.8517849,19.6146444 C40.6251693,19.3871495 40.2797664,19.3377874 39.7214466,19.3377874 L38.0566635,19.3377874 L38.0566635,21.6905842 L36.5059709,21.6905842 L36.5059709,15.2220026 L40.0729161,15.2220026 C40.8654836,15.2220026 41.4494395,15.2428791 41.9508118,15.5318328 C42.4414209,15.8207864 42.7355515,16.242608 42.7355515,16.9641141 L42.7355515,16.9641141 Z M45.2173642,21.6905842 L43.6349689,21.6905842 L43.6349689,15.2220026 L45.2173642,15.2220026 L45.2173642,21.6905842 L45.2173642,21.6905842 Z M63.5751846,21.6905842 L61.3775221,21.6905842 L58.4379773,16.8355386 L58.4379773,21.6905842 L55.2796447,21.6905842 L54.6761192,20.247767 L51.4545769,20.247767 L50.8690554,21.6905842 L49.0543694,21.6905842 C48.3005496,21.6905842 47.3461418,21.5243529 46.8056303,20.9751264 C46.2606178,20.4258998 45.9770548,19.6819564 45.9770548,18.5056555 C45.9770548,17.5463138 46.1465272,16.6693073 46.8130667,15.9762868 C47.3144391,15.4600333 48.0995701,15.2220026 49.1682643,15.2220026 L50.6696415,15.2220026 L50.6696415,16.6080436 L49.1997713,16.6080436 C48.6338194,16.6080436 48.3142483,16.6919397 48.006419,16.991234 C47.7420341,17.2636036 47.5606242,17.7784913 47.5606242,18.4564885 C47.5606242,19.149509 47.6987854,19.6491784 47.9870451,19.9755926 C48.2257939,20.2315731 48.6596512,20.3092258 49.0678724,20.3092258 L49.7643533,20.3092258 L51.9500784,15.2221978 L54.2737689,15.2221978 L56.8994178,21.340562 L56.8994178,15.2221978 L59.2606819,15.2221978 L61.9867228,19.7272212 L61.9867228,15.2221978 L63.5751846,15.2221978 L63.5751846,21.6905842 L63.5751846,21.6905842 Z M12.3504702,22.9611218 L15.0001897,22.9611218 L15.5976486,21.5243529 L16.9352286,21.5243529 L17.531122,22.9611218 L22.7446506,22.9611218 L22.7446506,21.8626687 L23.2100149,22.9658043 L25.9164862,22.9658043 L26.3818505,21.8462797 L26.3818505,22.9611218 L39.3384702,22.9611218 L39.3324036,20.6026669 L39.5830898,20.6026669 C39.7586288,20.6087152 39.8099011,20.6249091 39.8099011,20.9138627 L39.8099011,22.9611218 L46.5111083,22.9611218 L46.5111083,22.4120903 C47.0516198,22.7008489 47.8923284,22.9611218 48.9985961,22.9611218 L51.8177881,22.9611218 L52.4211179,21.5243529 L53.7586979,21.5243529 L54.3487203,22.9611218 L59.7814281,22.9611218 L59.7814281,21.5963475 L60.6041328,22.9611218 L64.9575789,22.9611218 L64.9575789,13.9393684 L60.6491428,13.9393684 L60.6491428,15.0048484 L60.045813,13.9393684 L55.6248519,13.9393684 L55.6248519,15.0048484 L55.0708374,13.9393684 L49.0991837,13.9393684 C48.0995701,13.9393684 47.2208965,14.0784798 46.5111083,14.4661577 L46.5111083,13.9393684 L42.3901487,13.9393684 L42.3901487,14.4661577 C41.938483,14.0665783 41.3230201,13.9393684 40.6386723,13.9393684 L25.5832165,13.9393684 L24.5730354,16.2695328 L23.5356526,13.9393684 L18.7935548,13.9393684 L18.7935548,15.0048484 L18.2726129,13.9393684 L14.228366,13.9393684 L12.3502745,18.2287985 L12.3502745,22.9611218 L12.3504702,22.9611218 Z" id="AMERICAN" fill="#FFFFFF"></path>
                    </g>
                </g>
            </g>
        </g>
    </g>
</svg>