<?xml version="1.0" encoding="UTF-8" standalone="no"?>
<svg width="40px" height="40px" viewBox="0 0 40 40" version="1.1" xmlns="http://www.w3.org/2000/svg" xmlns:xlink="http://www.w3.org/1999/xlink" xmlns:sketch="http://www.bohemiancoding.com/sketch/ns">
    <!-- Generator: Sketch 3.4 (15575) - http://www.bohemiancoding.com/sketch -->
    <title>Fill 50</title>
    <desc>Created with Sketch.</desc>
    <defs></defs>
    <g id="Page-1" stroke="none" stroke-width="1" fill="none" fill-rule="evenodd" sketch:type="MSPage">
        <g id="Group" sketch:type="MSLayerGroup" transform="translate(-121.000000, -1489.000000)" fill="#243143">
            <g id="hot-products" transform="translate(1.000000, 1249.000000)" sketch:type="MSShapeGroup">
                <path d="M157.5,275 C157.5,276.375 156.38,277.5 155,277.5 L125,277.5 C123.62,277.5 122.5,276.375 122.5,275 L122.5,245 C122.5,243.62 123.62,242.5 125,242.5 L155,242.5 C156.38,242.5 157.5,243.62 157.5,245 L157.5,275 L157.5,275 Z M155,240 L125,240 C122.23875,240 120,242.23875 120,245 L120,275 C120,277.7625 122.23875,280 125,280 L155,280 C157.76125,280 160,277.7625 160,275 L160,245 C160,242.23875 157.76125,240 155,240 L155,240 Z M147.10625,247.89125 C146.6125,247.40125 145.8125,247.40125 145.32,247.89125 L134.105,259.0675 C133.84125,259.33 133.72875,259.67625 133.7475,260.02 C133.72875,260.3625 133.84125,260.71 134.105,260.97125 L145.32,272.15 C145.8125,272.6375 146.6125,272.6375 147.10625,272.15 C147.6,271.6625 147.6,270.8625 147.10625,270.3625 L136.72,260.02 L147.10625,249.67 C147.6,249.18 147.6,248.38375 147.10625,247.89125 L147.10625,247.89125 Z" id="Fill-50"></path>
            </g>
        </g>
    </g>
</svg>