<?xml version="1.0" encoding="UTF-8" standalone="no"?>
<svg width="18px" height="24px" viewBox="0 0 18 24" version="1.1" xmlns="http://www.w3.org/2000/svg" xmlns:xlink="http://www.w3.org/1999/xlink" xmlns:sketch="http://www.bohemiancoding.com/sketch/ns">
    <!-- Generator: Sketch 3.4 (15575) - http://www.bohemiancoding.com/sketch -->
    <title>Fill 206</title>
    <desc>Created with Sketch.</desc>
    <defs></defs>
    <g id="Page-1" stroke="none" stroke-width="1" fill="none" fill-rule="evenodd" sketch:type="MSPage">
        <g id="Group" sketch:type="MSLayerGroup" transform="translate(-194.000000, -1289.000000)" fill="#3C3C58">
            <g id="hot-products" transform="translate(1.000000, 1249.000000)" sketch:type="MSShapeGroup">
                <g id="title" transform="translate(193.000000, 34.000000)">
                    <path d="M16.3636364,26.8 C16.3636364,27.6832 15.6305455,28.4 14.7272727,28.4 L9,22.8 L3.27272727,28.4 C2.36945455,28.4 1.63636364,27.6832 1.63636364,26.8 L1.63636364,9.2 C1.63636364,8.3168 2.36945455,7.6 3.27272727,7.6 L14.7272727,7.6 C15.6305455,7.6 16.3636364,8.3168 16.3636364,9.2 L16.3636364,26.8 L16.3636364,26.8 Z M14.7272727,6 L3.27272727,6 C1.46536364,6 0,7.4328 0,9.2 L0,26.8 C0,28.5672 1.46536364,30 3.27272727,30 L9,24.4 L14.7272727,30 C16.5346364,30 18,28.5672 18,26.8 L18,9.2 C18,7.4328 16.5346364,6 14.7272727,6 L14.7272727,6 Z" id="Fill-206"></path>
                </g>
            </g>
        </g>
    </g>
</svg>