<?xml version="1.0" encoding="UTF-8" standalone="no"?>
<svg width="32px" height="30px" viewBox="0 0 32 30" version="1.1" xmlns="http://www.w3.org/2000/svg" xmlns:xlink="http://www.w3.org/1999/xlink" xmlns:sketch="http://www.bohemiancoding.com/sketch/ns">
    <!-- Generator: Sketch 3.4 (15575) - http://www.bohemiancoding.com/sketch -->
    <title>Fill 95</title>
    <desc>Created with Sketch.</desc>
    <defs></defs>
    <g id="Page-1" stroke="none" stroke-width="1" fill="none" fill-rule="evenodd" sketch:type="MSPage">
        <g id="Group" sketch:type="MSLayerGroup" transform="translate(-1051.000000, -26.000000)" fill="#B6B6B6">
            <path d="M1075,52 C1073.896,52 1073,52.896 1073,54 C1073,55.104 1073.896,56 1075,56 C1076.104,56 1077,55.104 1077,54 C1077,52.896 1076.104,52 1075,52 L1075,52 Z M1065,52 C1063.896,52 1063,52.896 1063,54 C1063,55.104 1063.896,56 1065,56 C1066.104,56 1067,55.104 1067,54 C1067,52.896 1066.104,52 1065,52 L1065,52 Z M1078,46 C1078,47.104 1077.104,48 1076,48 L1065,48 C1063.896,48 1063,47.104 1063,46 L1061.333,36 L1080.5,36 L1078,46 L1078,46 Z M1060.97,34 L1058.475,26 L1052,26 C1051.447,26 1051,26.448 1051,27 C1051,27.553 1051.447,28 1052,28 L1057,28 L1059.011,34 L1059,34 L1061,46 C1061,48.209 1062.791,50 1065,50 L1076,50 C1078.209,50 1080,48.209 1080,46 L1083,34 L1060.97,34 L1060.97,34 Z" id="Fill-95" sketch:type="MSShapeGroup"></path>
        </g>
    </g>
</svg>