<?xml version="1.0" encoding="UTF-8" standalone="no"?>
<svg width="80px" height="48px" viewBox="0 0 80 48" version="1.1" xmlns="http://www.w3.org/2000/svg" xmlns:xlink="http://www.w3.org/1999/xlink" xmlns:sketch="http://www.bohemiancoding.com/sketch/ns">
    <!-- Generator: Sketch 3.4 (15575) - http://www.bohemiancoding.com/sketch -->
    <title>Cirrus-dark</title>
    <desc>Created with Sketch.</desc>
    <defs></defs>
    <g id="Page-1" stroke="none" stroke-width="1" fill="none" fill-rule="evenodd" sketch:type="MSPage">
        <g id="Group" sketch:type="MSLayerGroup" transform="translate(-506.000000, -2425.000000)">
            <g id="footer" transform="translate(0.000000, 2346.000000)" sketch:type="MSShapeGroup">
                <g id="payment" transform="translate(227.000000, 34.000000)">
                    <g id="Cirrus-dark" transform="translate(279.000000, 45.000000)">
                        <rect id="Rectangle" fill="#000066" x="0" y="0" width="80" height="48" rx="4"></rect>
                        <path d="M45.6120338,24.00025 C45.6120338,32.7375 38.4824789,39.82 29.6878009,39.82 C20.8936263,39.82 13.764323,32.7375 13.764323,24.00025 C13.764323,15.264 20.8936263,8.181 29.6878009,8.181 C38.4824789,8.181 45.6120338,15.264 45.6120338,24.00025" id="Fill-374" fill="#333399"></path>
                        <path d="M51.0661484,8.181 C46.9520338,8.181 43.2028019,9.73175 40.3765972,12.27575 C39.8013408,12.79375 39.263831,13.35425 38.7691005,13.95 L41.9856038,13.95 C42.4259793,14.48125 42.8308732,15.03975 43.1997822,15.62525 L37.5549221,15.62525 C37.2169653,16.16325 36.9097089,16.722 36.6376826,17.3005 L44.1170216,17.3005 C44.3721878,17.843 44.5979117,18.4015 44.7911737,18.97475 L35.9627756,18.97475 C35.7788244,19.52125 35.6245671,20.07975 35.500507,20.65025 L45.2531906,20.65025 C45.4877221,21.73025 45.6120338,22.85075 45.6120338,24.00025 C45.6120338,25.757 45.3233991,27.447 44.7911737,29.02575 L35.9627756,29.02575 C36.1565408,29.59925 36.3820131,30.1585 36.6371793,30.701 L44.1170216,30.701 C43.8442404,31.279 43.537739,31.83825 43.1990272,32.37625 L37.5549221,32.37625 C37.9235793,32.96075 38.3292282,33.52025 38.7691005,34.0505 L41.9851005,34.0505 C41.4911249,34.64725 40.9531117,35.20775 40.3771005,35.72575 C43.2030535,38.26975 46.9520338,39.82 51.0661484,39.82 C59.8605746,39.82 66.9898779,32.7375 66.9898779,24.00025 C66.9898779,15.264 59.8605746,8.181 51.0661484,8.181" id="Fill-375" fill="#0066CC"></path>
                        <path d="M64.8672676,32.818 C64.8672676,32.536 65.0977728,32.30775 65.3813746,32.30775 C65.6657315,32.30775 65.8954817,32.536 65.8954817,32.818 C65.8954817,33.10025 65.6657315,33.32925 65.3813746,33.32925 C65.0977728,33.32925 64.8672676,33.10025 64.8672676,32.818 L64.8672676,32.818 Z M65.3813746,33.20675 C65.5977878,33.20675 65.7724282,33.033 65.7724282,32.818 C65.7724282,32.60375 65.5977878,32.4305 65.3813746,32.4305 C65.1659681,32.4305 64.9910761,32.60375 64.9910761,32.818 C64.9910761,33.033 65.1659681,33.20675 65.3813746,33.20675 L65.3813746,33.20675 Z M65.3121728,33.04225 L65.2069859,33.04225 L65.2069859,32.594 L65.3977315,32.594 C65.4374911,32.594 65.477754,32.594 65.512984,32.6165 C65.5494723,32.64125 65.570107,32.68425 65.570107,32.72825 C65.570107,32.7795 65.5406648,32.827 65.4923493,32.845 L65.5748883,33.04225 L65.4578742,33.04225 L65.3894272,32.865 L65.3121728,32.865 L65.3121728,33.04225 L65.3121728,33.04225 Z M65.3121728,32.78825 L65.3703023,32.78825 C65.3919437,32.78825 65.4153465,32.78975 65.4344714,32.7795 C65.4518347,32.76825 65.4608939,32.74775 65.4608939,32.72775 C65.4608939,32.71075 65.4503249,32.69125 65.4354779,32.682 C65.4168563,32.67125 65.3876657,32.674 65.3682892,32.674 L65.3121728,32.674 L65.3121728,32.78825 L65.3121728,32.78825 Z" id="Fill-376" fill="#0066CC"></path>
                        <path d="M28.7698066,20.37875 C28.6276282,20.99925 28.5531418,21.35075 28.3603831,22.10625 C27.1630648,21.60175 25.5575812,21.3385 24.3257878,22.10275 C23.1634479,22.83775 22.7706329,23.9845 22.8554366,25.25475 C22.9409953,25.866 23.4027606,26.463 24.0530066,26.722 C25.1803681,27.1355 26.2561427,26.98425 27.4537127,26.37625 C27.2833502,27.141 27.1550122,27.7415 27.0062911,28.28825 C25.5699117,28.68675 24.2065089,28.81775 22.7706329,28.3435 C21.4880075,27.90025 20.4446948,26.75275 20.3598911,25.5145 C20.0689915,23.526 21.0267455,21.4915 22.9754704,20.55775 C24.7875531,19.74775 26.8548019,19.8885 28.7698066,20.37875" id="Fill-377" fill="#000066"></path>
                        <path d="M49.0608038,27.446 C48.6820808,27.8225 48.0388808,28.64725 46.2907155,28.64725 C44.698569,28.64725 43.5810216,27.48075 44.1469671,24.8615 C44.1469671,24.861 44.8052657,21.778 44.8052657,21.778 L47.2348808,21.778 C47.2348808,21.778 46.5750723,24.8645 46.5763305,24.8615 C46.3518648,25.9105 46.4049615,26.70875 47.4774648,26.70875 C48.7414685,26.70875 49.1196883,25.9495 49.3584977,24.8615 C49.3567362,24.863 50.0183061,21.778 50.0183061,21.778 L52.553108,21.778 L51.4624864,26.73475 C51.3384263,27.31625 51.2199023,27.932 51.1514554,28.53925 L48.8700582,28.53925 C48.8700582,28.53925 49.0139981,27.7135 49.0608038,27.446" id="Fill-378" fill="#000066"></path>
                        <path d="M53.3593728,23.91625 C53.3593728,24.77375 53.9260732,25.35975 55.2139831,25.7975 C56.2082254,26.14275 56.3642441,26.244 56.3642441,26.54425 C56.3642441,26.972 55.9203455,27.1535 54.9620883,27.1535 C54.2325746,27.1535 53.5551512,27.08125 52.771031,26.89325 C52.771031,26.89325 52.4625164,28.29575 52.431061,28.45575 C53.1127624,28.5765 54.2932207,28.64725 54.9789484,28.64725 C57.5517484,28.64725 58.7447887,27.93275 58.7447887,26.39125 C58.7447887,25.469 58.2445221,24.926 57.0240526,24.51 C55.9950836,24.174 55.8810892,24.0965 55.8810892,23.77575 C55.8810892,23.41675 56.287493,23.22625 57.0781559,23.22625 C57.5540131,23.22625 58.2203643,23.26625 58.8396582,23.33075 L59.1813897,21.762 C58.549262,21.68725 57.5862235,21.62725 57.0305953,21.62725 C54.300015,21.62725 53.3508169,22.6715 53.3593728,23.91625" id="Fill-379" fill="#000066"></path>
                        <path d="M29.6963568,21.778 L32.238708,21.778 L30.7902498,28.53925 L28.2473953,28.53925 L29.6963568,21.778" id="Fill-380" fill="#000066"></path>
                        <path d="M44.2189371,21.74925 C42.426231,21.514 41.9146404,22.389 41.4332469,22.824 C41.4906216,22.472 41.5965634,22.12875 41.5754254,21.778 L39.2401765,21.778 C38.9190798,23.87175 38.3488563,25.9905 37.902693,28.08425 L37.7856789,28.53875 L40.4294423,28.53875 C40.7314141,27.16575 41.0819531,25.093 41.4863437,24.4655 C41.890231,23.839 42.56237,23.33825 43.4448826,23.6395 L44.2189371,21.74925" id="Fill-381" fill="#000066"></path>
                        <path d="M38.6757408,21.74925 C36.8832864,21.514 36.3719474,22.389 35.8903023,22.824 C35.9479286,22.472 36.0533671,22.12875 36.0324808,21.778 L33.6974836,21.778 C33.3763869,23.87175 32.8059117,25.9905 32.36,28.08425 L32.2429859,28.53875 L34.8864977,28.53875 C35.1887211,27.16575 35.5392601,25.093 35.9433991,24.4655 C36.347538,23.839 37.0194254,23.33825 37.901938,23.6395 L38.6757408,21.74925" id="Fill-382" fill="#000066"></path>
                        <path d="M59.5241277,27.533 C59.5241277,27.25075 59.7543812,27.02175 60.0384864,27.02175 C60.3223399,27.02175 60.5528451,27.25075 60.5528451,27.533 C60.5528451,27.81525 60.3223399,28.04375 60.0384864,28.04375 C59.7543812,28.04375 59.5241277,27.81525 59.5241277,27.533 L59.5241277,27.533 Z M60.0384864,27.92125 C60.2541446,27.92125 60.4295399,27.74725 60.4295399,27.533 C60.4295399,27.3185 60.2541446,27.14475 60.0384864,27.14475 C59.8228282,27.14475 59.6471812,27.3185 59.6471812,27.533 C59.6471812,27.74725 59.8228282,27.92125 60.0384864,27.92125 L60.0384864,27.92125 Z M59.9690329,27.757 L59.8635944,27.757 L59.8635944,27.30775 L60.0543399,27.30775 C60.0938479,27.30775 60.1348657,27.30875 60.1695925,27.33125 C60.2068357,27.35575 60.2272188,27.39925 60.2272188,27.443 C60.2272188,27.494 60.1975249,27.54125 60.1489577,27.55925 L60.232,27.757 L60.1154892,27.757 L60.046539,27.57925 L59.9690329,27.57925 L59.9690329,27.757 L59.9690329,27.757 Z M59.9690329,27.50225 L60.0274141,27.50225 C60.0490554,27.50225 60.0729615,27.50425 60.0915831,27.494 C60.1089465,27.48325 60.117754,27.46225 60.117754,27.44275 C60.117754,27.4255 60.1069333,27.4055 60.0928413,27.39625 C60.0744714,27.386 60.0445258,27.3885 60.024646,27.3885 L59.9690329,27.3885 L59.9690329,27.50225 L59.9690329,27.50225 Z" id="Fill-383" fill="#FFFFFF"></path>
                        <path d="M29.2673052,19.884 C29.1251268,20.50525 29.0503887,20.85675 28.8581333,21.6115 C27.6605634,21.10775 26.0550798,20.8445 24.8232864,21.60825 C23.6611981,22.343 23.2686347,23.49 23.3529352,24.76 C23.4389972,25.37175 23.9002592,25.9685 24.5507568,26.22775 C25.6778667,26.641 26.7536413,26.4895 27.9514629,25.8815 C27.7811005,26.64675 27.6525108,27.24725 27.5037897,27.79425 C26.0679136,28.19225 24.7040075,28.3235 23.2686347,27.84925 C21.9855061,27.406 20.9426967,26.2585 20.8576413,25.01975 C20.5667418,23.0315 21.5242441,20.99675 23.4732207,20.06325 C25.2850516,19.25325 27.3520488,19.39375 29.2673052,19.884" id="Fill-384" fill="#FFFFFF"></path>
                        <path d="M49.558554,26.952 C49.1795793,27.3285 48.5361277,28.1525 46.7882141,28.1525 C45.1960676,28.1525 44.184462,26.9865 44.7501559,24.367 L45.4092094,21.284 L47.8390761,21.284 C47.8390761,21.284 47.1787643,24.36975 47.1795192,24.367 C46.9553052,25.41625 47.0086535,26.2145 48.0814085,26.2145 C49.3444056,26.2145 49.7233803,25.45525 49.9616864,24.367 C49.9601765,24.369 50.6217465,21.284 50.6217465,21.284 L53.0508582,21.284 L51.9597333,26.2405 C51.8359249,26.8215 51.7179042,27.43725 51.6492056,28.04525 L49.3680601,28.04525 C49.3680601,28.04525 49.512,27.219 49.558554,26.952" id="Fill-385" fill="#FFFFFF"></path>
                        <path d="M53.8568714,23.422 C53.8568714,24.2795 54.4235718,24.8655 55.7117333,25.303 C56.7062272,25.64825 56.8619944,25.74975 56.8619944,26.0495 C56.8619944,26.47775 56.4175925,26.6595 55.4598385,26.6595 C54.7303249,26.6595 54.0529014,26.58675 53.2685296,26.39925 C53.2685296,26.39925 52.960015,27.801 52.928308,27.96175 C53.6105127,28.08225 54.7907192,28.1525 55.4766986,28.1525 C58.0492469,28.1525 59.242539,27.43875 59.242539,25.89675 C59.242539,24.97425 58.7425239,24.432 57.5215512,24.016 C56.4923305,23.68 56.3783362,23.60175 56.3783362,23.2815 C56.3783362,22.9225 56.7852432,22.73225 57.5761577,22.73225 C58.0515117,22.73225 58.7181146,22.77225 59.3376601,22.83625 L59.6786366,21.26725 C59.0467606,21.1925 58.0837221,21.1325 57.5283455,21.1325 C54.7977653,21.1325 53.8480638,22.177 53.8568714,23.422" id="Fill-386" fill="#FFFFFF"></path>
                        <path d="M30.2992939,21.284 L32.7367099,21.284 L31.2877484,28.04525 L28.8510873,28.04525 L30.2992939,21.284" id="Fill-387" fill="#FFFFFF"></path>
                        <path d="M44.7164357,21.25525 C42.9239812,21.01975 42.4126423,21.89475 41.9307455,22.32975 C41.9883718,21.97775 42.094062,21.634 42.0729239,21.284 L39.8436169,21.284 C39.5227718,23.37725 38.9520451,25.49575 38.506385,27.59 L38.3893709,28.04425 L40.9269408,28.04425 C41.229416,26.67125 41.5797033,24.5985 41.9840939,23.9715 C42.3879812,23.3445 43.0601202,22.844 43.9421296,23.14525 L44.7164357,21.25525" id="Fill-388" fill="#FFFFFF"></path>
                        <path d="M39.1737427,21.25525 C37.3810366,21.01975 36.8696977,21.89475 36.3878009,22.32975 C36.4454272,21.97775 36.551369,21.634 36.5299793,21.284 L34.3006723,21.284 C33.9798272,23.37725 33.4096038,25.49575 32.9631887,27.59 L32.8464263,28.04425 L35.3837446,28.04425 C35.6864714,26.67125 36.036507,24.5985 36.4414009,23.9715 C36.8450366,23.3445 37.5171756,22.844 38.3994366,23.14525 L39.1737427,21.25525" id="Fill-389" fill="#FFFFFF"></path>
                    </g>
                </g>
            </g>
        </g>
    </g>
</svg>