<?xml version="1.0" encoding="UTF-8" standalone="no"?>
<svg width="80px" height="48px" viewBox="0 0 80 48" version="1.1" xmlns="http://www.w3.org/2000/svg" xmlns:xlink="http://www.w3.org/1999/xlink" xmlns:sketch="http://www.bohemiancoding.com/sketch/ns">
    <!-- Generator: Sketch 3.4 (15575) - http://www.bohemiancoding.com/sketch -->
    <title>DinersClub-dark</title>
    <desc>Created with Sketch.</desc>
    <defs></defs>
    <g id="Page-1" stroke="none" stroke-width="1" fill="none" fill-rule="evenodd" sketch:type="MSPage">
        <g id="Group" sketch:type="MSLayerGroup" transform="translate(-692.000000, -2425.000000)">
            <g id="footer" transform="translate(0.000000, 2346.000000)" sketch:type="MSShapeGroup">
                <g id="payment" transform="translate(227.000000, 34.000000)">
                    <g id="DinersClub-dark" transform="translate(465.000000, 45.000000)">
                        <rect id="Rectangle" fill="#0069AA" x="0" y="0" width="80" height="48" rx="4"></rect>
                        <path d="M15.6382918,28.7864334 C15.6382918,27.8209871 15.1338981,27.8844509 14.6513961,27.874279 L14.6513961,27.5952151 C15.0697709,27.6155589 15.4987598,27.6155589 15.9182403,27.6155589 C16.3688998,27.6155589 16.9807619,27.5952151 17.7757183,27.5952151 C20.5557436,27.5952151 22.0700304,29.4515874 22.0700304,31.3526277 C22.0700304,32.4164761 21.4473331,35.0890331 17.6465793,35.0890331 C17.0995078,35.0890331 16.5942296,35.0678047 16.0898359,35.0678047 C15.6071127,35.0678047 15.1338981,35.0777555 14.6513961,35.0890331 L14.6513961,34.809748 C15.2948795,34.7447363 15.6071127,34.7237291 15.6382918,33.9937844 L15.6382918,28.7864334 L15.6382918,28.7864334 Z M16.6904204,33.8215255 C16.6904204,34.6485454 17.2814964,34.7447363 17.8073396,34.7447363 C20.1269758,34.7447363 20.8880995,32.9951689 20.8880995,31.3957477 C20.8880995,29.3881236 19.600027,27.9390696 17.5282757,27.9390696 C17.0871246,27.9390696 16.8841288,27.9704698 16.6904204,27.9819685 L16.6904204,33.8215255 L16.6904204,33.8215255 Z" id="Fill-5" fill="#FFFFFF"></path>
                        <path d="M22.4461697,34.809748 L22.6496078,34.809748 C22.9501212,34.809748 23.1650579,34.809748 23.1650579,34.4546159 L23.1650579,31.5454516 C23.1650579,31.0737848 23.0042976,31.008552 22.6064878,30.7944998 L22.6064878,30.6231253 C23.1111026,30.4714313 23.7127928,30.2688777 23.7552495,30.236593 C23.8308753,30.193473 23.8943392,30.1819743 23.9489579,30.1819743 C24.0015864,30.1819743 24.0236992,30.2465438 24.0236992,30.3332261 L24.0236992,34.4546159 C24.0236992,34.809748 24.2603066,34.809748 24.5612622,34.809748 L24.7430297,34.809748 L24.7430297,35.0890331 C24.3779468,35.0890331 24.0015864,35.0678047 23.6163809,35.0678047 C23.2298485,35.0678047 22.8430951,35.0777555 22.4461697,35.0890331 L22.4461697,34.809748 L22.4461697,34.809748 Z M23.5947103,28.5292611 C23.3149829,28.5292611 23.068646,28.2716466 23.068646,27.9925827 C23.068646,27.7236906 23.3267027,27.476248 23.5947103,27.476248 C23.873332,27.476248 24.1209957,27.7024623 24.1209957,27.9925827 C24.1209957,28.2829242 23.8841673,28.5292611 23.5947103,28.5292611 L23.5947103,28.5292611 Z" id="Fill-6" fill="#FFFFFF"></path>
                        <path d="M25.7633158,31.610021 C25.7633158,31.2135379 25.644791,31.1062907 25.1410607,30.9019681 L25.1410607,30.6980878 C25.6018921,30.5479417 26.0417164,30.4077463 26.5576088,30.1819743 C26.5901146,30.1819743 26.6212937,30.2034237 26.6212937,30.2892215 L26.6212937,30.9873237 C27.2342615,30.5479417 27.7603258,30.1819743 28.4807619,30.1819743 C29.3920317,30.1819743 29.7139946,30.8477917 29.7139946,31.6852047 L29.7139946,34.4546159 C29.7139946,34.809748 29.950823,34.809748 30.2511153,34.809748 L30.4448237,34.809748 L30.4448237,35.0890331 C30.0677999,35.0890331 29.6925451,35.0678047 29.3064551,35.0678047 C28.9197016,35.0678047 28.5329482,35.0777555 28.1464158,35.0890331 L28.1464158,34.809748 L28.3401243,34.809748 C28.6408588,34.809748 28.8546899,34.809748 28.8546899,34.4546159 L28.8546899,31.6752539 C28.8546899,31.0625073 28.4807619,30.762215 27.8680153,30.762215 C27.5241607,30.762215 26.976647,31.0408367 26.6212937,31.2781074 L26.6212937,34.4546159 C26.6212937,34.809748 26.8585644,34.809748 27.159299,34.809748 L27.3521229,34.809748 L27.3521229,35.0890331 C26.976647,35.0890331 26.6007288,35.0678047 26.2135331,35.0678047 C25.8278853,35.0678047 25.4409107,35.0777555 25.0548206,35.0890331 L25.0548206,34.809748 L25.2485291,34.809748 C25.5488213,34.809748 25.7633158,34.809748 25.7633158,34.4546159 L25.7633158,31.610021" id="Fill-7" fill="#FFFFFF"></path>
                        <path d="M31.2607872,32.1261346 C31.2388955,32.2227676 31.2388955,32.3835279 31.2607872,32.7488319 C31.3240299,33.7684547 31.9803388,34.6054254 32.8383168,34.6054254 C33.4296139,34.6054254 33.891551,34.2832414 34.2880341,33.8867583 L34.4379591,34.0371256 C33.9439584,34.6918866 33.3323174,35.2504567 32.4526689,35.2504567 C30.745116,35.2504567 30.4017037,33.5961957 30.4017037,32.9095922 C30.4017037,30.8051139 31.8184729,30.1819743 32.5692036,30.1819743 C33.4397858,30.1819743 34.3744953,30.729488 34.384446,31.8678567 C34.384446,31.9330895 34.384446,31.9967745 34.3744953,32.061344 L34.2774199,32.1261346 L31.2607872,32.1261346 L31.2607872,32.1261346 Z M33.1618275,31.78228 C33.4296139,31.78228 33.4610141,31.6425269 33.4610141,31.5131668 C33.4610141,30.9665376 33.1284371,30.5262711 32.5269681,30.5262711 C31.8726493,30.5262711 31.4215475,31.008552 31.2928509,31.78228 L33.1618275,31.78228 L33.1618275,31.78228 Z" id="Fill-8" fill="#FFFFFF"></path>
                        <path d="M34.6318886,34.809748 L34.922009,34.809748 C35.2214168,34.809748 35.4363535,34.809748 35.4363535,34.4546159 L35.4363535,31.4384255 C35.4363535,31.1062907 35.0394282,31.0408367 34.8782256,30.9550389 L34.8782256,30.7944998 C35.6619044,30.4614805 36.0915568,30.1819743 36.1897377,30.1819743 C36.2525382,30.1819743 36.2848229,30.214259 36.2848229,30.3221696 L36.2848229,31.2885004 L36.307378,31.2885004 C36.5749433,30.8699045 37.0267085,30.1819743 37.6812483,30.1819743 C37.949477,30.1819743 38.2926682,30.3644052 38.2926682,30.7511586 C38.2926682,31.0408367 38.0896724,31.299778 37.789159,31.299778 C37.4552552,31.299778 37.4552552,31.0408367 37.0791159,31.0408367 C36.8969061,31.0408367 36.2956582,31.2885004 36.2956582,31.9330895 L36.2956582,34.4546159 C36.2956582,34.809748 36.5101527,34.809748 36.8108872,34.809748 L37.4114718,34.809748 L37.4114718,35.0890331 C36.8210591,35.0777555 36.3717264,35.0678047 35.9095681,35.0678047 C35.4693016,35.0678047 35.0181998,35.0777555 34.6318886,35.0890331 L34.6318886,34.809748" id="Fill-9" fill="#FFFFFF"></path>
                        <path d="M38.7647771,33.5961957 C38.9047514,34.3046909 39.3332981,34.9068233 40.1185248,34.9068233 C40.7509518,34.9068233 40.9868957,34.5198487 40.9868957,34.1443728 C40.9868957,32.8768652 38.6471369,33.2852893 38.6471369,31.5569502 C38.6471369,30.9550389 39.1305234,30.1821954 40.3115698,30.1821954 C40.6545399,30.1821954 41.1160347,30.2794919 41.5344095,30.4944286 L41.6098142,31.5885716 L41.363035,31.5885716 C41.2557878,30.9125823 40.880533,30.5262711 40.1926028,30.5262711 C39.7631716,30.5262711 39.355632,30.7728292 39.355632,31.2345451 C39.355632,32.4914386 41.8457582,32.1042429 41.8457582,33.7899041 C41.8457582,34.497957 41.2774584,35.2504567 39.9993366,35.2504567 C39.5703477,35.2504567 39.0648483,35.0998684 38.6902569,34.8851527 L38.571511,33.6503721 L38.7647771,33.5961957" id="Fill-10" fill="#FFFFFF"></path>
                        <path d="M51.5402453,29.5378275 L51.2724589,29.5378275 C51.0681363,28.2829242 50.1769892,27.7776459 48.9753778,27.7776459 C47.7392704,27.7776459 45.9470253,28.6037814 45.9470253,31.1803687 C45.9470253,33.3498587 47.4935969,34.9068233 49.1465311,34.9068233 C50.2083894,34.9068233 51.0906914,34.1764364 51.3049648,33.0484608 L51.5519651,33.112588 L51.3049648,34.680609 C50.8540841,34.9601152 49.6405318,35.2504567 48.9311521,35.2504567 C46.4200188,35.2504567 44.8312118,33.6289227 44.8312118,31.2135379 C44.8312118,29.0119843 46.795937,27.4333491 48.9001942,27.4333491 C49.7694496,27.4333491 50.6066415,27.7132976 51.4334403,28.003418 L51.5402453,29.5378275" id="Fill-11" fill="#FFFFFF"></path>
                        <path d="M51.9278833,34.809748 L52.1311002,34.809748 C52.4327193,34.809748 52.6469926,34.809748 52.6469926,34.4546159 L52.6469926,28.4761903 C52.6469926,27.7776459 52.4862323,27.7564176 52.0778083,27.638114 L52.0778083,27.4660761 C52.5070184,27.3267653 52.9583413,27.1339414 53.1843345,27.004139 C53.3008691,26.9406752 53.3875514,26.8858354 53.4191727,26.8858354 C53.4848479,26.8858354 53.5060762,26.9510682 53.5060762,27.0373083 L53.5060762,34.4546159 C53.5060762,34.809748 53.7424624,34.809748 54.0427546,34.809748 L54.2245221,34.809748 L54.2245221,35.0890331 C53.8605449,35.0890331 53.4848479,35.0678047 53.0980944,35.0678047 C52.7117832,35.0678047 52.3256931,35.0777555 51.9278833,35.0890331 L51.9278833,34.809748" id="Fill-12" fill="#FFFFFF"></path>
                        <path d="M58.8211167,34.497957 C58.8211167,34.6918866 58.9385359,34.7020585 59.1205245,34.7020585 C59.2501057,34.7020585 59.4104237,34.6918866 59.5510613,34.6918866 L59.5510613,34.9178797 C59.0891243,34.9603364 58.2083701,35.1858873 58.0040475,35.2504567 L57.9505345,35.2177298 L57.9505345,34.348032 C57.307051,34.8738752 56.8126081,35.2504567 56.0492731,35.2504567 C55.4696958,35.2504567 54.8688901,34.8738752 54.8688901,33.9732195 L54.8688901,31.223931 C54.8688901,30.9444248 54.8262123,30.675975 54.2258489,30.6231253 L54.2258489,30.4185816 C54.6126023,30.4079674 55.4696958,30.3438402 55.60967,30.3438402 C55.7288582,30.3438402 55.7288582,30.4185816 55.7288582,30.6551889 L55.7288582,33.4248213 C55.7288582,33.7472264 55.7288582,34.6695526 56.6626831,34.6695526 C57.0271026,34.6695526 57.510268,34.3911521 57.9609275,34.0158973 L57.9609275,31.1270768 C57.9609275,30.9125823 57.4459196,30.7944998 57.0600507,30.6876948 L57.0600507,30.4946497 C58.0252759,30.4291958 58.6271872,30.3438402 58.7344344,30.3438402 C58.8211167,30.3438402 58.8211167,30.4185816 58.8211167,30.5371064 L58.8211167,34.497957" id="Fill-13" fill="#FFFFFF"></path>
                        <path d="M60.9569953,30.9550389 C61.3862054,30.5908406 61.966225,30.1819743 62.5566376,30.1819743 C63.8022535,30.1819743 64.5538687,31.2674933 64.5538687,32.4374833 C64.5538687,33.8434172 63.5227473,35.2504567 61.9867899,35.2504567 C61.1931603,35.2504567 60.7743433,34.9919577 60.4946159,34.8738752 L60.1735376,35.1208755 L59.948429,35.0032353 C60.0443987,34.3699237 60.0985751,33.7472264 60.0985751,33.0920231 L60.0985751,28.4761903 C60.0985751,27.7776459 59.9369303,27.7564176 59.5289485,27.638114 L59.5289485,27.4660761 C59.958822,27.3267653 60.4092604,27.1339414 60.6345902,27.004139 C60.753115,26.9406752 60.8386916,26.8858354 60.8714186,26.8858354 C60.9353247,26.8858354 60.9569953,26.9512894 60.9569953,27.0373083 L60.9569953,30.9550389 L60.9569953,30.9550389 Z M60.9569953,33.8754808 C60.9569953,34.2832414 61.3437487,34.9709505 62.0628581,34.9709505 C63.2113986,34.9709505 63.6943429,33.8434172 63.6943429,32.8874794 C63.6943429,31.7283247 62.8149155,30.762215 61.9777236,30.762215 C61.5788081,30.762215 61.2466734,31.0202718 60.9569953,31.2674933 L60.9569953,33.8754808 L60.9569953,33.8754808 Z" id="Fill-14" fill="#FFFFFF"></path>
                        <path d="M14.6394552,41.3314858 L14.7214938,41.3314858 C14.9315657,41.3314858 15.1535785,41.3027392 15.1535785,40.9986877 L15.1535785,37.9382716 C15.1535785,37.6337779 14.9315657,37.6048101 14.7214938,37.6048101 L14.6394552,37.6048101 L14.6394552,37.4292342 C14.8672173,37.4292342 15.2177057,37.4524527 15.5047303,37.4524527 C15.7966197,37.4524527 16.1466659,37.4292342 16.4213072,37.4292342 L16.4213072,37.6048101 L16.3388264,37.6048101 C16.129639,37.6048101 15.9071839,37.6337779 15.9071839,37.9382716 L15.9071839,40.9986877 C15.9071839,41.3027392 16.129639,41.3314858 16.3388264,41.3314858 L16.4213072,41.3314858 L16.4213072,41.5070617 C16.1411376,41.5070617 15.7897647,41.4845066 15.4987598,41.4845066 C15.2119564,41.4845066 14.8672173,41.5070617 14.6394552,41.5070617 L14.6394552,41.3314858" id="Fill-15" fill="#FFFFFF"></path>
                        <path d="M16.4213072,41.5320492 C16.1387052,41.5320492 15.7891013,41.5086096 15.4983176,41.5086096 C15.2123987,41.5086096 14.8687652,41.5320492 14.6394552,41.5320492 L14.6140254,41.5320492 L14.6140254,41.3062772 L14.7210515,41.3062772 C14.9331136,41.3011913 15.1259375,41.2841644 15.1277065,40.9986877 L15.1277065,37.9382716 C15.1259375,37.6523527 14.9331136,37.6337779 14.7210515,37.6300187 L14.6140254,37.6300187 L14.6140254,37.4038044 L14.6394552,37.4038044 C14.8687652,37.4038044 15.2190325,37.4265806 15.5047303,37.4265806 C15.7952929,37.4265806 16.145118,37.4038044 16.4213072,37.4038044 L16.4474004,37.4038044 L16.4474004,37.6300187 L16.339932,37.6300187 C16.1276488,37.6337779 15.9337193,37.6523527 15.9326136,37.9382716 L15.9326136,40.9986877 C15.9337193,41.2841644 16.1276488,41.3011913 16.339932,41.3062772 L16.4474004,41.3062772 L16.4474004,41.5320492 L16.4213072,41.5320492 L16.4213072,41.5320492 Z M16.3960986,41.4820742 L16.3963197,41.3578001 L16.339932,41.3578001 C16.1309657,41.3578001 15.8826386,41.3210928 15.8813119,40.9986877 L15.8813119,37.9382716 C15.8826386,37.6152031 16.1309657,37.5791592 16.339932,37.5791592 L16.3960986,37.5791592 L16.3960986,37.4544428 C16.1265432,37.4546639 15.7879957,37.4781035 15.5047303,37.4781035 C15.2272143,37.4781035 14.8913203,37.4562118 14.665106,37.4544428 L14.665106,37.5791592 L14.7210515,37.5791592 C14.9293544,37.5791592 15.1781238,37.6152031 15.1781238,37.9382716 L15.1781238,40.9986877 C15.1781238,41.3210928 14.9293544,41.3578001 14.7210515,41.3578001 L14.665106,41.3578001 L14.665106,41.4820742 C14.8913203,41.4800841 15.2212438,41.4586346 15.4983176,41.4586346 C15.7829097,41.4586346 16.1205727,41.4805263 16.3960986,41.4820742 L16.3960986,41.4820742 Z" id="Fill-16" fill="#FFFFFF"></path>
                        <path d="M20.4345653,40.3556465 L20.4462851,40.3441478 L20.4462851,38.1540929 C20.4462851,37.6746866 20.1128236,37.604589 19.93769,37.604589 L19.8089933,37.604589 L19.8089933,37.4292342 C20.0840769,37.4292342 20.3527478,37.4524527 20.626947,37.4524527 C20.8664289,37.4524527 21.1070166,37.4292342 21.345614,37.4292342 L21.345614,37.604589 L21.2587106,37.604589 C21.0125948,37.604589 20.7379534,37.651247 20.7379534,38.3464745 L20.7379534,41.004437 C20.7379534,41.2092019 20.7437027,41.4135244 20.7724494,41.5948497 L20.5504366,41.5948497 L17.5424279,38.2409963 L17.5424279,40.6484204 C17.5424279,41.1570156 17.6412722,41.3314858 18.0910473,41.3314858 L18.190555,41.3314858 L18.190555,41.5070617 C17.9393532,41.5070617 17.6883726,41.4842855 17.4371708,41.4842855 C17.1749126,41.4842855 16.9057994,41.5070617 16.6426567,41.5070617 L16.6426567,41.3314858 L16.7246953,41.3314858 C17.1275911,41.3314858 17.2503174,41.0568445 17.2503174,40.5909271 L17.2503174,38.1295476 C17.2503174,37.8027199 16.9807619,37.604589 16.718946,37.604589 L16.6426567,37.604589 L16.6426567,37.4292342 C16.8642273,37.4292342 17.0924317,37.4524527 17.3140023,37.4524527 C17.4897993,37.4524527 17.6591836,37.4292342 17.8343173,37.4292342 L20.4345653,40.3556465" id="Fill-17" fill="#FFFFFF"></path>
                        <path d="M20.7724494,41.6193949 L20.5318618,41.6112132 L17.5671942,38.3068925 L17.5671942,40.6484204 C17.5742704,41.1563522 17.6514441,41.300749 18.0912684,41.3062772 L18.216427,41.3062772 L18.216427,41.5320492 L18.190555,41.5320492 C17.9378053,41.5320492 17.6863824,41.5086096 17.4371708,41.5086096 C17.175576,41.5086096 16.9071262,41.5320492 16.6424356,41.5320492 L16.6167847,41.5320492 L16.6167847,41.3062772 L16.7246953,41.3062772 C17.1107854,41.3040659 17.2211284,41.0559599 17.2253298,40.5907059 L17.2253298,38.1304321 C17.2242242,37.8193046 16.9690421,37.6300187 16.7191671,37.6300187 L16.6167847,37.6300187 L16.6167847,37.4038044 L16.6424356,37.4038044 C16.8657752,37.4038044 17.0944219,37.4265806 17.3135601,37.4265806 C17.4878092,37.4265806 17.6565301,37.4038044 17.8535554,37.4128707 L20.4208554,40.3027968 L20.4208554,38.1540929 C20.4179807,37.6901656 20.1079588,37.6337779 19.9379111,37.6300187 L19.7833424,37.6300187 L19.7833424,37.4038044 L19.8092144,37.4038044 C20.0851825,37.4038044 20.3540746,37.4265806 20.626947,37.4265806 C20.8646599,37.4265806 21.1041419,37.4038044 21.345614,37.4038044 L21.3712649,37.4038044 L21.3712649,37.6300187 L21.2587106,37.6300187 C21.0174596,37.6362103 20.770017,37.6574386 20.7629409,38.3464745 L20.7629409,41.004437 C20.7629409,41.2089807 20.7693536,41.4128611 20.7974369,41.590206 L20.802744,41.6193949 L20.7724494,41.6193949 L20.7724494,41.6193949 Z M20.5506577,41.5685354 L20.7439238,41.5685354 C20.7178307,41.3927384 20.713187,41.1988088 20.713187,41.004437 L20.713187,38.3464745 C20.713187,37.6452766 21.0070666,37.5791592 21.2587106,37.5787169 L21.3201843,37.5787169 L21.3201843,37.4544428 C21.0899897,37.4562118 20.8593528,37.4774402 20.626947,37.4774402 C20.3593817,37.4774402 20.0993348,37.4562118 19.8353075,37.4544428 L19.8346441,37.5787169 L19.9379111,37.5787169 C20.1174673,37.5791592 20.4714937,37.6589865 20.4714937,38.1540929 L20.4637543,40.3625015 L20.4522556,40.373779 L20.432354,40.3925749 L17.8343173,37.4544428 C17.6607315,37.4544428 17.4917895,37.4774402 17.3135601,37.4774402 C17.0995078,37.4774402 16.8801485,37.4562118 16.6683076,37.4544428 L16.6672019,37.5787169 L16.7191671,37.5787169 C16.9931451,37.5791592 17.2750837,37.7883466 17.2750837,38.1304321 L17.2750837,40.5907059 C17.2750837,41.0581712 17.1448391,41.3566945 16.7246953,41.3582424 L16.6683076,41.3566945 L16.6683076,41.4820742 C16.9212784,41.4800841 17.1819887,41.4586346 17.4371708,41.4586346 C17.6808542,41.4586346 17.9240954,41.4800841 18.1651253,41.4820742 L18.1651253,41.3582424 L18.0912684,41.3582424 C17.6315426,41.3566945 17.5176615,41.1563522 17.5172192,40.6484204 L17.5172192,38.1755423 L20.5506577,41.5685354 L20.5506577,41.5685354 Z M20.4347864,40.3556465 L20.4531401,40.3388408 L20.4347864,40.3556465 L20.4347864,40.3556465 Z M20.4208554,40.3441478 L20.4208554,40.3419366 L20.4162117,40.3381774 L20.4208554,40.3441478 L20.4208554,40.3441478 Z" id="Fill-18" fill="#FFFFFF"></path>
                        <path d="M22.2210611,37.7213447 C21.7823425,37.7213447 21.7653156,37.8270441 21.6777488,38.2529372 L21.502394,38.2529372 C21.5253914,38.0893023 21.5543592,37.9258884 21.5724917,37.7565041 C21.5959313,37.5922058 21.6076511,37.4292342 21.6076511,37.2602921 L21.7476253,37.2602921 C21.7947257,37.4356469 21.9406704,37.4292342 22.0992194,37.4292342 L25.112314,37.4292342 C25.270863,37.4292342 25.4165866,37.4234849 25.4285275,37.2481301 L25.5680595,37.2720119 C25.5455044,37.4292342 25.5216226,37.5871198 25.5045957,37.7452266 C25.493097,37.9028911 25.493097,38.0601133 25.493097,38.2177778 L25.3175211,38.2827895 C25.3055802,38.0669683 25.2766124,37.7213447 24.8852152,37.7213447 L23.9270662,37.7213447 L23.9270662,40.8293034 C23.9270662,41.2799629 24.131831,41.3314858 24.4117795,41.3314858 L24.5232281,41.3314858 L24.5232281,41.5070617 C24.2952448,41.5070617 23.8861574,41.4845066 23.5712707,41.4845066 C23.22034,41.4845066 22.8110315,41.5070617 22.5830482,41.5070617 L22.5830482,41.3314858 L22.6944968,41.3314858 C23.0164597,41.3314858 23.1792101,41.3027392 23.1792101,40.8414655 L23.1792101,37.7213447 L22.2210611,37.7213447" id="Fill-19" fill="#FFFFFF"></path>
                        <path d="M24.5236704,41.5320492 C24.2934758,41.5320492 23.8848307,41.5088308 23.5712707,41.5088308 C23.2207823,41.5088308 22.8121371,41.5320492 22.5830482,41.5320492 L22.5580607,41.5320492 L22.5580607,41.3062772 L22.6944968,41.3062772 C23.0164597,41.2987588 23.1458198,41.2945574 23.153117,40.8414655 L23.153117,37.7463322 L22.2210611,37.7463322 L22.2210611,37.6952516 L23.2037554,37.6952516 L23.2037554,40.8414655 C23.2037554,41.3104786 23.0146907,41.3578001 22.6944968,41.3582424 L22.6080357,41.3582424 L22.6080357,41.481632 C22.8384514,41.4800841 23.2320598,41.4586346 23.5712707,41.4586346 C23.8753221,41.4586346 24.2656136,41.4800841 24.497135,41.481632 L24.497135,41.3582424 L24.4117795,41.3582424 C24.1291775,41.3578001 23.9018575,41.2883658 23.9018575,40.8293034 L23.9018575,37.6952516 L24.8852152,37.6952516 C25.2770546,37.6967995 25.3290198,38.0298187 25.3411818,38.2471879 L25.4676672,38.2005298 C25.4676672,38.0479513 25.4683306,37.8951516 25.4787237,37.7416885 C25.4959717,37.5906579 25.5172,37.4422808 25.5390917,37.2925769 L25.4504192,37.2777613 C25.4232204,37.447809 25.2584798,37.4568752 25.1120929,37.4546639 L22.0687037,37.4546639 C21.9311619,37.4548851 21.781458,37.4482512 21.7288294,37.2852796 L21.6324175,37.2852796 C21.631533,37.4467033 21.6204765,37.6034833 21.5983637,37.7591577 C21.5808946,37.9196968 21.554138,38.0738233 21.5329097,38.2286131 L21.6576261,38.2286131 C21.7343576,37.8210736 21.7843326,37.6895022 22.2210611,37.6952516 L22.2210611,37.7463322 C21.788313,37.7549562 21.7978215,37.8272652 21.7025152,38.2589077 L21.6983137,38.2788092 L21.4732051,38.2788092 L21.4763009,38.2485147 C21.5001827,38.0855431 21.5298139,37.9214659 21.5468408,37.7518604 C21.5711649,37.5897734 21.5822213,37.4276863 21.5822213,37.2602921 L21.5822213,37.2344201 L21.767748,37.2344201 L21.7721706,37.2527738 C21.8115314,37.4000452 21.9196632,37.4011509 22.0687037,37.4038044 L25.1120929,37.4038044 C25.2748433,37.4011509 25.3933681,37.3989396 25.4033189,37.2461399 L25.4053091,37.2184989 L25.4318445,37.223806 L25.5970273,37.2498991 L25.5928259,37.2757711 C25.5696074,37.4325511 25.5468312,37.5897734 25.5291409,37.7463322 C25.5183056,37.9028911 25.5183056,38.0598922 25.5183056,38.2177778 L25.5183056,38.2354681 L25.5012787,38.2423231 L25.2945238,38.3179489 L25.293197,38.2841163 C25.2770546,38.0643148 25.2544995,37.7463322 24.8852152,37.7463322 L23.952717,37.7463322 L23.952717,40.8293034 C23.9584664,41.269791 24.1331578,41.300749 24.4117795,41.3062772 L24.5484368,41.3062772 L24.5484368,41.5320492 L24.5236704,41.5320492" id="Fill-20" fill="#FFFFFF"></path>
                        <path d="M25.7546918,41.3314858 L25.8369516,41.3314858 C26.0465812,41.3314858 26.2692574,41.3027392 26.2692574,40.9986877 L26.2692574,37.9382716 C26.2692574,37.6337779 26.0465812,37.6048101 25.8369516,37.6048101 L25.7546918,37.6048101 L25.7546918,37.4292342 C26.1098239,37.4292342 26.7188113,37.4524527 27.2086106,37.4524527 C27.7001789,37.4524527 28.306955,37.4292342 28.7041015,37.4292342 C28.6939296,37.680436 28.6994578,38.0669683 28.7167058,38.3234772 L28.5406877,38.3699141 C28.5126044,37.9900156 28.4425067,37.6870698 27.8288756,37.6870698 L27.0177768,37.6870698 L27.0177768,39.2166145 L27.7116775,39.2166145 C28.0621659,39.2166145 28.1384552,39.0187046 28.1731724,38.7029334 L28.348306,38.7029334 C28.3365862,38.9311378 28.3303946,39.1589 28.3303946,39.386441 C28.3303946,39.6088961 28.3365862,39.8306879 28.348306,40.0522584 L28.1731724,40.0871967 C28.1384552,39.7371506 28.1209861,39.5093884 27.7174269,39.5093884 L27.0177768,39.5093884 L27.0177768,40.8697699 C27.0177768,41.2501106 27.3552187,41.2501106 27.7293678,41.2501106 C28.4305657,41.2501106 28.7399243,41.2030103 28.915279,40.5378563 L29.0782506,40.5781016 C29.0024036,40.8883447 28.9327482,41.1970398 28.8803408,41.5070617 C28.5059705,41.5070617 27.8341826,41.4845066 27.3094451,41.4845066 C26.7824963,41.4845066 26.0879322,41.5070617 25.7546918,41.5070617 L25.7546918,41.3314858" id="Fill-21" fill="#FFFFFF"></path>
                        <path d="M28.8798985,41.5320492 C28.505086,41.5320492 27.8328559,41.5077251 27.3087817,41.5077251 C26.7824963,41.5077251 26.0881533,41.5320492 25.7544707,41.5320492 L25.7299254,41.5320492 L25.7299254,41.3062772 L25.8367304,41.3062772 C26.0481291,41.3027392 26.2405108,41.2841644 26.2431643,40.9986877 L26.2431643,37.9382716 C26.2405108,37.6527949 26.0481291,37.6337779 25.8367304,37.6300187 L25.7299254,37.6300187 L25.7299254,37.4038044 L25.7544707,37.4038044 C26.1113718,37.4038044 26.7190325,37.4265806 27.2086106,37.4265806 C27.6997366,37.4265806 28.3062916,37.4038044 28.7041015,37.4038044 L28.7299735,37.4038044 L28.729089,37.4307821 C28.7253298,37.5181278 28.7228974,37.6220581 28.7228974,37.7319589 C28.7228974,37.933849 28.729089,38.1551985 28.7405877,38.321487 L28.7416933,38.3422731 L28.7220129,38.3482435 L28.5165847,38.4019777 L28.5157002,38.3719043 C28.4812041,37.9928903 28.4303446,37.7171433 27.8288756,37.7113939 L27.0414376,37.7113939 L27.0409953,39.1909636 L27.7114564,39.1909636 C28.0482349,39.1874255 28.1083818,39.0153877 28.1481849,38.7002798 L28.1495116,38.6768402 L28.374178,38.6768402 L28.3737358,38.7035968 C28.3624582,38.9318012 28.3556032,39.1589 28.3556032,39.386441 C28.3556032,39.6073482 28.3624582,39.82914 28.3737358,40.0511528 L28.374178,40.0723811 L28.3529497,40.0772459 L28.1495116,40.1177124 L28.1481849,40.0902925 C28.1077184,39.7336125 28.1050648,39.5381351 27.7174269,39.5339336 L27.0414376,39.5339336 L27.0414376,40.8697699 C27.0423221,41.224902 27.3483637,41.2229118 27.7291467,41.224902 C28.4325559,41.2207005 28.7142734,41.1862045 28.8902915,40.5310013 L28.896262,40.5073406 L28.9208073,40.5113209 L29.1081029,40.5599691 L29.1027959,40.5840721 C29.0269489,40.8932095 28.9572934,41.2021258 28.9044438,41.5112632 L28.9000212,41.5320492 L28.8798985,41.5320492 L28.8798985,41.5320492 Z M28.8582279,41.481632 C28.9093086,41.1862045 28.9758682,40.8912193 29.0475138,40.5971187 L28.9325271,40.5681508 C28.7576145,41.2215851 28.4186248,41.2799629 27.7291467,41.2755404 C27.360968,41.2755404 26.9930105,41.2755404 26.9910203,40.8697699 L26.9910203,39.4839586 L27.7174269,39.4839586 C28.1254086,39.4797572 28.1665385,39.7256519 28.1957275,40.0580078 L28.3217706,40.0321358 C28.3104931,39.8167568 28.3047437,39.6004933 28.3047437,39.386441 C28.3047437,39.1670817 28.3104931,38.9481647 28.3217706,38.7276997 L28.1957275,38.7276997 C28.1627793,39.0328568 28.067473,39.2458034 27.7114564,39.2420442 L26.9910203,39.2420442 L26.9910203,37.6607556 L27.8288756,37.6607556 C28.4363151,37.6558907 28.5369285,37.9703352 28.5634639,38.3378505 L28.6892859,38.3035756 C28.679114,38.138835 28.672259,37.9269941 28.672259,37.7319589 C28.672259,37.6320089 28.6749125,37.5371448 28.6782295,37.4544428 C28.2813041,37.4562118 27.6889013,37.4774402 27.2086106,37.4774402 C26.728541,37.4774402 26.1376861,37.4562118 25.7801216,37.4544428 L25.7801216,37.5787169 L25.8367304,37.5787169 C26.0445911,37.5791592 26.2931393,37.6152031 26.2944661,37.9382716 L26.2944661,40.9986877 C26.2931393,41.3210928 26.0445911,41.3566945 25.8367304,41.3582424 L25.7801216,41.3582424 L25.7801216,41.481632 C26.1202169,41.4805263 26.7955429,41.4586346 27.3087817,41.4586346 C27.824453,41.4586346 28.4816464,41.4805263 28.8582279,41.481632 L28.8582279,41.481632 Z" id="Fill-22" fill="#FFFFFF"></path>
                        <path d="M29.8672365,38.0479513 C29.8672365,37.6220581 29.6332827,37.604589 29.4519575,37.604589 L29.3464793,37.604589 L29.3464793,37.4292342 C29.5335539,37.4292342 29.8957621,37.4524527 30.2524421,37.4524527 C30.6022671,37.4524527 30.8831001,37.4292342 31.1926797,37.4292342 C31.9277103,37.4292342 32.5833558,37.6275863 32.5833558,38.4577021 C32.5833558,38.983103 32.2326463,39.3039602 31.7713726,39.4861699 L32.769767,40.9807763 C32.9338442,41.2279978 33.0497154,41.2972109 33.33674,41.3314858 L33.33674,41.5070617 C33.1434739,41.5070617 32.9566204,41.4845066 32.7644599,41.4845066 C32.5833558,41.4845066 32.3956178,41.5070617 32.2153983,41.5070617 C31.765181,40.9173125 31.379312,40.2866545 30.9998558,39.613761 L30.6148714,39.613761 L30.6148714,40.8646839 C30.6148714,41.314459 30.8247222,41.3314858 31.0925086,41.3314858 L31.1984291,41.3314858 L31.1984291,41.5070617 C30.8647464,41.5070617 30.5273046,41.4845066 30.1936219,41.4845066 C29.9132312,41.4845066 29.6385898,41.5070617 29.3464793,41.5070617 L29.3464793,41.3314858 L29.4519575,41.3314858 C29.6688844,41.3314858 29.8672365,41.2326415 29.8672365,41.0168202 L29.8672365,38.0479513 L29.8672365,38.0479513 Z M30.6148714,39.4030257 L30.9003481,39.4030257 C31.4852325,39.4030257 31.8001192,39.1816762 31.8001192,38.4919769 C31.8001192,37.9725465 31.4671,37.6395272 30.9465639,37.6395272 C30.7712091,37.6395272 30.6964677,37.6574386 30.6148714,37.663188 L30.6148714,39.4030257 L30.6148714,39.4030257 Z" id="Fill-23" fill="#FFFFFF"></path>
                        <path d="M33.33674,41.5320492 C33.1408203,41.5320492 32.9550725,41.5086096 32.762912,41.5086096 C32.5849037,41.5086096 32.3980503,41.5320492 32.1946122,41.5223196 C31.7463851,40.9341182 31.3622852,40.3069983 30.9850402,39.6400752 L30.6398589,39.6400752 L30.6398589,40.8635783 C30.6462716,41.3034025 30.8225109,41.3000856 31.0925086,41.3062772 L31.2236377,41.3062772 L31.2236377,41.5320492 L31.1977657,41.5320492 C30.8638619,41.5320492 30.5244299,41.5086096 30.1934008,41.5086096 C29.9143368,41.5086096 29.6399166,41.5320492 29.3464793,41.5320492 L29.3210495,41.5320492 L29.3210495,41.3062772 L29.4519575,41.3062772 C29.6620294,41.3047293 29.8395955,41.2131822 29.84048,41.0168202 L29.84048,38.0479513 C29.8360574,37.6337779 29.6332827,37.635768 29.4519575,37.6300187 L29.3210495,37.6300187 L29.3210495,37.4038044 L29.3464793,37.4038044 C29.535544,37.4038044 29.8962043,37.4265806 30.2524421,37.4265806 C30.6011614,37.4265806 30.881331,37.4038044 31.1926797,37.4038044 C31.9292582,37.4053523 32.6070165,37.608127 32.6087856,38.4568175 C32.6087856,38.9839875 32.2602873,39.3134687 31.8098489,39.4972263 L32.7907742,40.9668452 C32.954188,41.2092019 33.055907,41.269791 33.3400569,41.3062772 L33.3612853,41.3095941 L33.3612853,41.5320492 L33.33674,41.5320492 L33.33674,41.5320492 Z M30.6146503,39.5885523 L31.0137869,39.5885523 L31.0210841,39.6015989 C31.4014249,40.2727234 31.7853036,40.9036025 32.2153983,41.4820742 C32.3931854,41.4820742 32.5809234,41.4586346 32.762912,41.4586346 C32.9493232,41.4586346 33.1297639,41.4789784 33.3110891,41.481632 L33.3110891,41.3533775 C33.0373323,41.3199872 32.9086356,41.2372852 32.749202,40.9951496 L31.7322328,39.4744501 L31.7609795,39.4627303 C32.218494,39.2825107 32.5574838,38.9704987 32.5577049,38.4568175 C32.5574838,37.6463822 31.9270469,37.4584231 31.1926797,37.4544428 C30.8850902,37.4544428 30.6042572,37.4781035 30.2524421,37.4781035 C29.9092509,37.4781035 29.5625217,37.4562118 29.3714668,37.4544428 L29.3714668,37.5787169 L29.4519575,37.5787169 C29.6332827,37.5791592 29.8913395,37.6092326 29.8913395,38.0479513 L29.8913395,41.0168202 C29.8913395,41.2512163 29.6717591,41.3578001 29.4519575,41.3582424 L29.3714668,41.3582424 L29.3714668,41.481632 C29.6522998,41.4805263 29.9189805,41.4586346 30.1934008,41.4586346 C30.5195651,41.4586346 30.8494886,41.4805263 31.172557,41.481632 L31.172557,41.3582424 L31.0925086,41.3582424 C30.8264912,41.3578001 30.5887783,41.324852 30.5887783,40.8635783 L30.5887783,39.5885523 L30.6146503,39.5885523 L30.6146503,39.5885523 Z M30.6146503,39.4282343 L30.5887783,39.4282343 L30.5887783,37.6395272 L30.6111122,37.6377582 C30.6911607,37.6313455 30.7698824,37.6152031 30.9465639,37.6152031 C31.4785987,37.6152031 31.8251067,37.9608267 31.825549,38.4935248 C31.8240011,39.1909636 31.4896551,39.4280132 30.9003481,39.4282343 L30.6146503,39.4282343 L30.6146503,39.4282343 Z M30.9003481,39.3784804 C31.4785987,39.3727311 31.7700458,39.1721677 31.7757951,38.4935248 C31.7722571,37.9831607 31.4553802,37.6665049 30.9465639,37.6642936 C30.7888994,37.6642936 30.7143791,37.6788881 30.6398589,37.6861853 L30.6398589,39.3784804 L30.9003481,39.3784804 L30.9003481,39.3784804 Z" id="Fill-24" fill="#FFFFFF"></path>
                        <path d="M37.3028978,40.3556465 L37.3130697,40.3441478 L37.3130697,38.1540929 C37.3130697,37.6746866 36.981156,37.604589 36.8058013,37.604589 L36.677768,37.604589 L36.677768,37.4292342 C36.9524093,37.4292342 37.2201958,37.4524527 37.4955005,37.4524527 C37.7356459,37.4524527 37.9733589,37.4292342 38.2146099,37.4292342 L38.2146099,37.604589 L38.1266008,37.604589 C37.8811483,37.604589 37.6067281,37.651247 37.6067281,38.3464745 L37.6067281,41.004437 C37.6067281,41.2092019 37.6124774,41.4135244 37.6412241,41.5948497 L37.4200958,41.5948497 L34.411866,38.2409963 L34.411866,40.6484204 C34.411866,41.1570156 34.5104892,41.3314858 34.9602642,41.3314858 L35.059772,41.3314858 L35.059772,41.5070617 C34.8087913,41.5070617 34.5571473,41.4842855 34.3061666,41.4842855 C34.0423605,41.4842855 33.7741319,41.5070617 33.5114314,41.5070617 L33.5114314,41.3314858 L33.5925855,41.3314858 C33.9959236,41.3314858 34.1193132,41.0568445 34.1193132,40.5909271 L34.1193132,38.1295476 C34.1193132,37.8027199 33.8502,37.604589 33.5874995,37.604589 L33.5114314,37.604589 L33.5114314,37.4292342 C33.7325597,37.4292342 33.9620909,37.4524527 34.1836615,37.4524527 C34.3572473,37.4524527 34.5275161,37.4292342 34.703092,37.4292342 L37.3028978,40.3556465" id="Fill-25" fill="#FFFFFF"></path>
                        <path d="M37.641003,41.6193949 L37.4010787,41.6112132 L34.4359689,38.3073348 L34.4359689,40.6481993 C34.4428239,41.1570156 34.5197766,41.300749 34.9602642,41.3062772 L35.0840961,41.3062772 L35.0840961,41.5320492 L35.0586663,41.5320492 C34.8061378,41.5320492 34.5553782,41.5077251 34.305061,41.5077251 C34.0443507,41.5077251 33.774353,41.5320492 33.5112103,41.5320492 L33.4851171,41.5320492 L33.4851171,41.3062772 L33.5925855,41.3062772 C33.9784544,41.3047293 34.0890186,41.0559599 34.0927778,40.5893792 L34.0927778,38.1295476 C34.0921144,37.8181989 33.8373746,37.6300187 33.5874995,37.6300187 L33.4851171,37.6300187 L33.4851171,37.4038044 L33.5112103,37.4038044 C33.7343288,37.4038044 33.9629754,37.4265806 34.1834404,37.4265806 C34.355036,37.4265806 34.5241991,37.4038044 34.7201189,37.4113228 L37.2883033,40.3027968 L37.2883033,38.1540929 C37.2867554,37.6901656 36.9756278,37.6326723 36.8058013,37.6300187 L36.6516748,37.6300187 L36.6516748,37.4038044 L36.6771046,37.4038044 C36.9530727,37.4038044 37.222407,37.4265806 37.4955005,37.4265806 C37.7334346,37.4265806 37.9726955,37.4038044 38.2135042,37.4038044 L38.2393762,37.4038044 L38.2393762,37.6300187 L38.1266008,37.6300187 C37.8855709,37.635768 37.6372438,37.6574386 37.6314945,38.3464745 L37.6314945,41.004437 C37.6314945,41.2089807 37.6365804,41.4115343 37.6664327,41.5906482 L37.6693074,41.6193949 L37.641003,41.6193949 L37.641003,41.6193949 Z M37.4198746,41.5685354 L37.6113718,41.5685354 C37.5857209,41.393844 37.5806349,41.1988088 37.5806349,41.004437 L37.5806349,38.3464745 C37.5810772,37.6452766 37.8765046,37.5802648 38.1266008,37.5787169 L38.1880745,37.5787169 L38.1880745,37.4544428 C37.958101,37.4562118 37.727243,37.4774402 37.4955005,37.4774402 C37.2270507,37.4774402 36.9667827,37.4562118 36.7025343,37.4544428 L36.7025343,37.5787169 L36.8058013,37.5787169 C36.9857997,37.5802648 37.3396051,37.6589865 37.3396051,38.1540929 L37.3312022,40.3625015 L37.320588,40.373779 L37.3022344,40.3930172 L34.703092,37.4544428 C34.5292851,37.4544428 34.3599008,37.4774402 34.1834404,37.4774402 C33.9667346,37.4774402 33.748481,37.4562118 33.5361978,37.4544428 L33.5361978,37.5787169 L33.5874995,37.5787169 C33.8623621,37.5802648 34.1434162,37.7874621 34.1434162,38.1295476 L34.1434162,40.5893792 C34.1434162,41.0581712 34.0114026,41.3566945 33.5925855,41.3582424 L33.5361978,41.3578001 L33.5361978,41.4818531 C33.7885052,41.4800841 34.0487732,41.4586346 34.305061,41.4586346 C34.5500712,41.4586346 34.7928701,41.4800841 35.0343422,41.4818531 L35.0343422,41.3582424 L34.9602642,41.3582424 C34.5005384,41.3578001 34.3859939,41.1570156 34.3846672,40.6481993 L34.3846672,38.1764268 L37.4198746,41.5685354 L37.4198746,41.5685354 Z M37.3022344,40.3556465 L37.3212514,40.3388408 L37.3022344,40.3556465 L37.3022344,40.3556465 Z M37.2883033,40.3441478 L37.2883033,40.3425999 L37.2841018,40.3381774 L37.2883033,40.3441478 L37.2883033,40.3441478 Z" id="Fill-26" fill="#FFFFFF"></path>
                        <path d="M39.1537419,40.67186 C39.0949217,40.8697699 39.0243818,41.0232329 39.0243818,41.1269421 C39.0243818,41.3027392 39.2704976,41.331707 39.4626582,41.331707 L39.527891,41.331707 L39.527891,41.5070617 C39.2932739,41.4944574 39.0548975,41.4845066 38.8198381,41.4845066 C38.6095451,41.4845066 38.4003577,41.4944574 38.1894012,41.5070617 L38.1894012,41.331707 L38.2250029,41.331707 C38.4523228,41.331707 38.6458101,41.1970398 38.7324924,40.9515874 L39.6672019,38.2710697 C39.7434911,38.054364 39.8487482,37.7624746 39.8843499,37.5457688 C40.0700977,37.4818627 40.3047148,37.3657704 40.415279,37.2947882 C40.4334115,37.2888177 40.4442468,37.2828472 40.4619371,37.2828472 C40.4796273,37.2828472 40.4904626,37.2828472 40.5032881,37.3012009 C40.5205361,37.3474167 40.537563,37.4000452 40.5556955,37.4467033 L41.6310426,40.5024757 C41.7011402,40.706356 41.7705745,40.9223984 41.8453159,41.0986377 C41.9165192,41.2624938 42.0392455,41.331707 42.2327328,41.331707 L42.267671,41.331707 L42.267671,41.5070617 C42.0045283,41.4944574 41.7409433,41.4845066 41.4618794,41.4845066 C41.1755182,41.4845066 40.8825232,41.4944574 40.5846633,41.5070617 L40.5846633,41.331707 L40.6490117,41.331707 C40.7825732,41.331707 41.0118832,41.3084885 41.0118832,41.1623227 C41.0118832,41.0869179 40.9590336,40.9290323 40.8938007,40.7412943 L40.6662597,40.0639782 L39.3403742,40.0639782 L39.1537419,40.67186 L39.1537419,40.67186 Z M40.0066338,38.083774 L39.9944718,38.083774 L39.4516017,39.7371506 L40.5430912,39.7371506 L40.0066338,38.083774 L40.0066338,38.083774 Z" id="Fill-27" fill="#FFFFFF"></path>
                        <path d="M42.265902,41.5320492 C42.0034227,41.5207717 41.7400588,41.5077251 41.4618794,41.5077251 C41.1755182,41.5077251 40.8840711,41.5207717 40.5859901,41.5320492 L40.5590124,41.533376 L40.5590124,41.3051716 L40.6490117,41.3051716 C40.7843422,41.3051716 40.9851267,41.274877 40.985569,41.1623227 C40.9868957,41.095763 40.9344883,40.9356661 40.87014,40.7499183 L40.6476849,40.0889657 L39.3591701,40.0889657 L39.1774026,40.6793784 C39.1185825,40.8779516 39.0476003,41.0322992 39.0487059,41.1273844 C39.0506961,41.2700122 39.2687286,41.3051716 39.4626582,41.3051716 L39.5524363,41.3051716 L39.5524363,41.533376 L39.5259009,41.5320492 C39.2923893,41.5207717 39.054013,41.5077251 38.8202804,41.5077251 C38.6117563,41.5077251 38.4005788,41.5207717 38.1913914,41.5320492 L38.1641926,41.533376 L38.1641926,41.3051716 L38.2247818,41.3051716 C38.4419298,41.3047293 38.623255,41.1806763 38.707726,40.9434056 L39.64332,38.2620035 C39.7187248,38.04574 39.8248664,37.7551773 39.8752836,37.5216658 C40.058599,37.4595288 40.2936584,37.3416674 40.4057705,37.2711274 C40.422134,37.2653781 40.4382764,37.2578597 40.461716,37.2578597 C40.4760893,37.2569752 40.5074895,37.2607344 40.5265066,37.2912501 C40.5430912,37.339235 40.561666,37.3916424 40.5793562,37.4387427 L41.6549244,40.4940729 C41.7236953,40.6986166 41.7935719,40.9144378 41.8700823,41.0875813 C41.9377476,41.2432556 42.0449948,41.3047293 42.2327328,41.3051716 L42.291774,41.3051716 L42.291774,41.533376 L42.265902,41.5320492 L42.265902,41.5320492 Z M40.6100931,41.4800841 C40.8991078,41.4699122 41.1828154,41.4586346 41.4618794,41.4586346 C41.7327616,41.4586346 41.9875014,41.4699122 42.2413568,41.4800841 L42.2413568,41.3578001 L42.2327328,41.3578001 C42.0323905,41.3591269 41.8946275,41.2804052 41.822982,41.1081462 C41.7469138,40.9316858 41.6759316,40.7147589 41.6069396,40.5102152 L40.5313714,37.4546639 C40.5136811,37.4080059 40.4970965,37.3558196 40.4818386,37.3142475 C40.4760893,37.3084981 40.4774161,37.3084981 40.4727724,37.3084981 L40.461716,37.3084981 C40.4499962,37.3084981 40.44292,37.3120362 40.4278833,37.3157954 C40.3155501,37.3887677 40.0813752,37.5039756 39.9075684,37.549528 C39.8719667,37.7708775 39.7667096,38.0627669 39.6908626,38.2792515 L38.7561531,40.9599902 C38.6672596,41.2138456 38.4618313,41.3582424 38.2247818,41.3578001 L38.2150521,41.3578001 L38.2150521,41.4800841 C38.4153944,41.4699122 38.6175057,41.4586346 38.8202804,41.4586346 C39.0462735,41.4586346 39.2766892,41.4699122 39.50025,41.4800841 L39.50025,41.3578001 L39.4626582,41.3578001 C39.2718244,41.3551466 39.0060282,41.3343605 38.9993943,41.1273844 C38.9998366,41.0115131 39.0714821,40.8620304 39.1287544,40.6645628 L39.1535208,40.67186 L39.1287544,40.6638994 L39.321136,40.0396541 L40.6832865,40.0396541 L40.9172403,40.7333337 C40.9829154,40.9212928 41.0359862,41.0769671 41.0359862,41.1623227 C41.0273622,41.3412155 40.7814675,41.3544832 40.6490117,41.3578001 L40.6100931,41.3578001 L40.6100931,41.4800841 L40.6100931,41.4800841 Z M39.4160001,39.7623592 L39.9752336,38.057902 L40.0066338,38.057902 L40.0066338,38.083774 L40.0004423,38.0855431 L40.0066338,38.083774 L40.0066338,38.057902 L40.024103,38.057902 L40.5793562,39.7623592 L39.4160001,39.7623592 L39.4160001,39.7623592 Z M39.4858766,39.7112786 L40.5085952,39.7112786 L40.0002211,38.1459111 L39.4858766,39.7112786 L39.4858766,39.7112786 Z M39.9812041,38.0912924 L39.9946929,38.087091 L39.9812041,38.0912924 L39.9812041,38.0912924 Z" id="Fill-28" fill="#FFFFFF"></path>
                        <path d="M42.524401,37.7213447 C42.0863458,37.7213447 42.0686555,37.8270441 41.9806465,38.2529372 L41.8050706,38.2529372 C41.8280679,38.0893023 41.8579202,37.9258884 41.8760528,37.7565041 C41.898829,37.5922058 41.9101065,37.4292342 41.9101065,37.2602921 L42.0514075,37.2602921 C42.0971811,37.4356469 42.243568,37.4292342 42.4012325,37.4292342 L45.4160962,37.4292342 C45.5730973,37.4292342 45.719042,37.4234849 45.7305407,37.2481301 L45.8702938,37.2720119 C45.8486232,37.4292342 45.8254047,37.5871198 45.8070511,37.7452266 C45.7942256,37.9028911 45.7942256,38.0601133 45.7942256,38.2177778 L45.6197554,38.2827895 C45.6093624,38.0669683 45.5799523,37.7213447 45.1876706,37.7213447 L44.2297427,37.7213447 L44.2297427,40.8293034 C44.2297427,41.2799629 44.4345075,41.3314858 44.714456,41.3314858 L44.8261258,41.3314858 L44.8261258,41.5070617 C44.5979214,41.5070617 44.1897185,41.4845066 43.873505,41.4845066 C43.5236799,41.4845066 43.113708,41.5070617 42.8859458,41.5070617 L42.8859458,41.3314858 L42.9971734,41.3314858 C43.3191362,41.3314858 43.4821078,41.3027392 43.4821078,40.8414655 L43.4821078,37.7213447 L42.524401,37.7213447" id="Fill-29" fill="#FFFFFF"></path>
                        <path d="M44.8261258,41.5320492 C44.5965946,41.5320492 44.1870649,41.5088308 43.8730627,41.5088308 C43.5241222,41.5088308 43.1150348,41.5320492 42.886167,41.5320492 L42.860295,41.5320492 L42.860295,41.3062772 L42.9971734,41.3062772 C43.3193574,41.2987588 43.4484963,41.2945574 43.4562358,40.8414655 L43.4557936,37.7463322 L42.524401,37.7463322 L42.524401,37.6952516 L43.5073165,37.6952516 L43.5073165,40.8414655 C43.5073165,41.3104786 43.3180306,41.3566945 42.9971734,41.3578001 L42.9111545,41.3578001 L42.9111545,41.4820742 C43.1420124,41.4800841 43.5345152,41.4586346 43.8730627,41.4586346 C44.1784409,41.4586346 44.5693958,41.4800841 44.8000327,41.4820742 L44.8000327,41.3578001 L44.7142349,41.3578001 C44.4327385,41.3566945 44.2051975,41.2890292 44.2047552,40.8293034 L44.2047552,37.6952516 L45.1876706,37.6952516 C45.5801734,37.6967995 45.6312541,38.0298187 45.6425316,38.2471879 L45.7694593,38.2005298 C45.7694593,38.0479513 45.7703438,37.8951516 45.7822847,37.7423519 C45.7979848,37.5917635 45.8200977,37.4422808 45.841326,37.2932403 L45.7530958,37.2777613 C45.7263392,37.447809 45.5613775,37.4573175 45.4160962,37.4546639 L42.3713802,37.4546639 C42.2336173,37.4562118 42.0845768,37.4482512 42.031506,37.2848374 L41.9359785,37.2848374 C41.9346518,37.4464822 41.9231531,37.6034833 41.9001557,37.7591577 C41.8842345,37.9203602 41.8561512,38.0749289 41.8338172,38.2286131 L41.9594181,38.2286131 C42.0361497,37.8210736 42.0867881,37.6888388 42.524401,37.6952516 L42.524401,37.7463322 C42.0912106,37.7538506 42.1007191,37.8272652 42.0054128,38.2589077 L42.0012114,38.2788092 L41.7756605,38.2788092 L41.7791985,38.2498414 C41.8037438,38.0855431 41.8324905,37.9214659 41.8495174,37.7531872 C41.8733992,37.5897734 41.8842345,37.4276863 41.8842345,37.2602921 L41.8842345,37.2344201 L42.0697612,37.2344201 L42.074626,37.2527738 C42.1155347,37.4000452 42.2218975,37.4011509 42.3713802,37.4038044 L45.4160962,37.4038044 C45.577741,37.4011509 45.6956024,37.3989396 45.7059954,37.2465822 L45.70688,37.2184989 L45.7340787,37.223806 L45.899925,37.2498991 L45.8959447,37.2757711 C45.8718417,37.4325511 45.8497289,37.5897734 45.8320386,37.7463322 C45.8200977,37.9028911 45.8200977,38.0601133 45.8200977,38.2177778 L45.8200977,38.2354681 L45.8030708,38.2423231 L45.5963158,38.3179489 L45.5954313,38.2841163 C45.5801734,38.0643148 45.5569549,37.7463322 45.1876706,37.7463322 L44.2549513,37.7463322 L44.2549513,40.8293034 C44.2609218,41.269791 44.4358343,41.300749 44.7142349,41.3062772 L44.8504499,41.3062772 L44.8504499,41.5320492 L44.8261258,41.5320492" id="Fill-30" fill="#FFFFFF"></path>
                        <path d="M46.0865573,41.3314858 L46.1683748,41.3314858 C46.378889,41.3314858 46.6000173,41.3027392 46.6000173,40.9986877 L46.6000173,37.9382716 C46.6000173,37.6337779 46.378889,37.6048101 46.1683748,37.6048101 L46.0865573,37.6048101 L46.0865573,37.4292342 C46.3145406,37.4292342 46.6643656,37.4524527 46.9502846,37.4524527 C47.2430585,37.4524527 47.593768,37.4292342 47.8688516,37.4292342 L47.8688516,37.6048101 L47.786813,37.6048101 C47.5756355,37.6048101 47.3536226,37.6337779 47.3536226,37.9382716 L47.3536226,40.9986877 C47.3536226,41.3027392 47.5756355,41.3314858 47.786813,41.3314858 L47.8688516,41.3314858 L47.8688516,41.5070617 C47.5882398,41.5070617 47.2373091,41.4845066 46.9456409,41.4845066 C46.6588374,41.4845066 46.3145406,41.5070617 46.0865573,41.5070617 L46.0865573,41.3314858" id="Fill-31" fill="#FFFFFF"></path>
                        <path d="M47.8688516,41.5320492 C47.5864708,41.5320492 47.237088,41.5077251 46.9456409,41.5077251 C46.6597219,41.5077251 46.3147617,41.5320492 46.0865573,41.5320492 L46.0615698,41.5320492 L46.0615698,41.3062772 L46.1685959,41.3062772 C46.3791101,41.3027392 46.5732608,41.2841644 46.5745875,40.9986877 L46.5745875,37.9382716 C46.5732608,37.6527949 46.3791101,37.6337779 46.1685959,37.6300187 L46.0615698,37.6300187 L46.0615698,37.4038044 L46.0865573,37.4038044 C46.3147617,37.4038044 46.6661347,37.4265806 46.9502846,37.4265806 C47.2415106,37.4265806 47.591999,37.4038044 47.8688516,37.4038044 L47.8931758,37.4038044 L47.8931758,37.6300187 L47.7870342,37.6300187 C47.5732031,37.6337779 47.3810425,37.6527949 47.3790524,37.9382716 L47.3790524,40.9986877 C47.3810425,41.2841644 47.5732031,41.3027392 47.7870342,41.3062772 L47.8931758,41.3062772 L47.8931758,41.5320492 L47.8688516,41.5320492 L47.8688516,41.5320492 Z M47.8423162,41.481632 L47.8423162,41.3578001 L47.7870342,41.3578001 C47.5774045,41.3578001 47.3295196,41.3210928 47.3295196,40.9986877 L47.3295196,37.9382716 C47.3295196,37.6152031 47.5774045,37.5791592 47.7870342,37.5787169 L47.8423162,37.5787169 L47.8423162,37.4544428 C47.5729819,37.4562118 47.2346556,37.4774402 46.9502846,37.4774402 C46.6729896,37.4774402 46.3386436,37.4562118 46.1119871,37.4544428 L46.1119871,37.5787169 L46.1685959,37.5787169 C46.3760143,37.5791592 46.6250048,37.6152031 46.6256682,37.9382716 L46.6256682,40.9986877 C46.6250048,41.3210928 46.3760143,41.3578001 46.1685959,41.3578001 L46.1119871,41.3578001 L46.1119871,41.481632 C46.3370957,41.4789784 46.6674614,41.4586346 46.9456409,41.4586346 C47.2289063,41.4586346 47.5667903,41.4800841 47.8423162,41.481632 L47.8423162,41.481632 Z" id="Fill-32" fill="#FFFFFF"></path>
                        <path d="M50.1982175,37.3416674 C51.4436122,37.3416674 52.4362573,38.1136264 52.4362573,39.3579155 C52.4362573,40.7017124 51.4721378,41.5948497 50.2282909,41.5948497 C48.9893089,41.5948497 48.0433219,40.7534564 48.0433219,39.4972263 C48.0433219,38.2827895 48.9835596,37.3416674 50.1982175,37.3416674 M50.2864477,41.3376774 C51.4201726,41.3376774 51.6178614,40.3379562 51.6178614,39.4861699 C51.6178614,38.6323934 51.1574722,37.5988396 50.1871611,37.5988396 C49.1651059,37.5988396 48.8610545,38.5103306 48.8610545,39.2924615 C48.8610545,40.3379562 49.3404607,41.3376774 50.2864477,41.3376774" id="Fill-33" fill="#FFFFFF"></path>
                        <path d="M48.0172288,39.4972263 C48.0196612,38.2686373 48.9707341,37.3182278 50.1979963,37.3162376 L50.1979963,37.3673183 C48.9970484,37.3673183 48.0680883,38.295615 48.0667615,39.4972263 C48.0691939,40.7393042 49.001471,41.5680932 50.2285121,41.5685354 C51.4597546,41.5680932 52.409943,40.6877813 52.4114909,39.357031 C52.4103853,38.1282208 51.4334403,37.3684239 50.1979963,37.3673183 L50.1979963,37.3162376 C51.4522362,37.3175644 52.4590335,38.0970417 52.4612448,39.357031 C52.459918,40.7147589 51.4842998,41.6171836 50.2285121,41.6193949 C48.9789159,41.6171836 48.0196612,40.7673875 48.0172288,39.4972263 M48.8354036,39.2924615 C48.8371726,38.5063503 49.1438776,37.5727465 50.1869399,37.5727465 C51.1789216,37.5749578 51.6415221,38.6277497 51.6435122,39.4861699 C51.6415221,40.3379562 51.4411798,41.3615593 50.2866688,41.3615593 L50.2866688,41.3120265 C51.3973964,41.311142 51.5904414,40.3379562 51.5922105,39.4861699 C51.5922105,38.6399118 51.136465,37.6258173 50.1869399,37.6242694 C49.1847863,37.625375 48.8886955,38.5143109 48.886042,39.2924615 C48.8864842,40.3330914 49.3614679,41.3104786 50.2866688,41.3120265 L50.2866688,41.3615593 C49.3170211,41.3606748 48.8371726,40.3441478 48.8354036,39.2924615" id="Fill-34" fill="#FFFFFF"></path>
                        <path d="M56.3727839,40.3556465 L56.3849459,40.3441478 L56.3849459,38.1540929 C56.3849459,37.6746866 56.050821,37.604589 55.8756874,37.604589 L55.7485386,37.604589 L55.7485386,37.4292342 C56.0222954,37.4292342 56.2916298,37.4524527 56.5653866,37.4524527 C56.805532,37.4524527 57.045014,37.4292342 57.2847171,37.4292342 L57.2847171,37.604589 L57.1969291,37.604589 C56.9521401,37.604589 56.6763931,37.651247 56.6763931,38.3464745 L56.6763931,41.004437 C56.6763931,41.2092019 56.6825846,41.4135244 56.7122158,41.5948497 L56.4899819,41.5948497 L53.4808675,38.2409963 L53.4808675,40.6484204 C53.4808675,41.1570156 53.5805964,41.3314858 54.0294869,41.3314858 L54.1296581,41.3314858 L54.1296581,41.5070617 C53.8782352,41.5070617 53.6274756,41.4842855 53.3762738,41.4842855 C53.1131311,41.4842855 52.8442391,41.5070617 52.5813175,41.5070617 L52.5813175,41.3314858 L52.6633561,41.3314858 C53.0671364,41.3314858 53.1889781,41.0568445 53.1889781,40.5909271 L53.1889781,38.1295476 C53.1889781,37.8027199 52.9211917,37.604589 52.6569434,37.604589 L52.5813175,37.604589 L52.5813175,37.4292342 C52.8033303,37.4292342 53.0308714,37.4524527 53.2533265,37.4524527 C53.428239,37.4524527 53.5967388,37.4292342 53.7727569,37.4292342 L56.3727839,40.3556465" id="Fill-35" fill="#FFFFFF"></path>
                        <path d="M56.712437,41.6193949 L56.4707437,41.6112132 L53.5060762,38.3073348 L53.5060762,40.6484204 C53.5129312,41.1570156 53.5901049,41.3000856 54.0288235,41.3051716 L54.1546456,41.3051716 L54.1546456,41.5320492 L54.1298792,41.5320492 C53.8769084,41.5320492 53.6261489,41.5086096 53.3762738,41.5086096 C53.1144579,41.5086096 52.8455659,41.5320492 52.5806541,41.5320492 L52.5567723,41.5320492 L52.5567723,41.3051716 L52.663135,41.3051716 C53.0481194,41.3040659 53.1591258,41.0559599 53.1637695,40.5907059 L53.1637695,38.1295476 C53.1635484,37.8181989 52.9081452,37.6300187 52.6571645,37.6300187 L52.5567723,37.6300187 L52.5567723,37.4038044 L52.5806541,37.4038044 C52.8046571,37.4038044 53.0324193,37.4265806 53.2531054,37.4265806 C53.42647,37.4265806 53.5943064,37.4038044 53.7924374,37.4128707 L56.359295,40.3027968 L56.359295,38.1540929 C56.3573049,37.6901656 56.0461773,37.6337779 55.8756874,37.6300187 L55.721782,37.6300187 L55.721782,37.4038044 L55.7485386,37.4038044 C56.0229588,37.4038044 56.2925143,37.4265806 56.5647232,37.4265806 C56.803763,37.4265806 57.0421393,37.4038044 57.2849382,37.4038044 L57.3094835,37.4038044 L57.3094835,37.6300187 L57.196708,37.6300187 C56.9558993,37.6362103 56.707351,37.6583231 56.7024862,38.3464745 L56.7024862,41.004437 C56.7024862,41.2089807 56.7071299,41.4128611 56.7354343,41.5906482 L56.7405203,41.6193949 L56.712437,41.6193949 L56.712437,41.6193949 Z M56.4899819,41.5685354 L56.681479,41.5685354 C56.6567126,41.3927384 56.6509633,41.1988088 56.6509633,41.004437 L56.6509633,38.3464745 C56.6509633,37.6441709 56.9459485,37.5802648 57.196708,37.5787169 L57.2599507,37.5787169 L57.2599507,37.4544428 C57.0279871,37.4562118 56.7982348,37.4774402 56.5647232,37.4774402 C56.2987059,37.4774402 56.0375533,37.4562118 55.7730838,37.4544428 L55.7730838,37.5787169 L55.8756874,37.5787169 C56.0561281,37.5802648 56.4088278,37.6600922 56.4088278,38.1540929 L56.4026362,40.3625015 L56.3913586,40.373779 L56.3727839,40.3930172 L53.7729781,37.4544428 C53.6000557,37.4544428 53.430008,37.4774402 53.2531054,37.4774402 C53.0377264,37.4774402 52.8183671,37.4562118 52.6058627,37.4544428 L52.6058627,37.5787169 L52.6571645,37.5787169 C52.9318059,37.5802648 53.2139657,37.7874621 53.2139657,38.1295476 L53.2139657,40.5907059 C53.2139657,41.0581712 53.0834999,41.3566945 52.663135,41.3582424 L52.6058627,41.3578001 L52.6058627,41.4818531 C52.8594969,41.4800841 53.1195439,41.4586346 53.3762738,41.4586346 C53.6199573,41.4586346 53.8620928,41.4800841 54.1042283,41.4818531 L54.1042283,41.3582424 L54.0288235,41.3582424 C53.5704245,41.3578001 53.4554378,41.1570156 53.4554378,40.6484204 L53.4554378,38.1755423 L56.4899819,41.5685354 L56.4899819,41.5685354 Z M56.3727839,40.3556465 L56.3913586,40.3388408 L56.3727839,40.3556465 L56.3727839,40.3556465 Z M56.359295,40.3441478 L56.359295,40.3425999 L56.3546513,40.3381774 L56.359295,40.3441478 L56.359295,40.3441478 Z" id="Fill-36" fill="#FFFFFF"></path>
                        <path d="M58.2231857,40.67186 C58.1659135,40.8697699 58.0953735,41.0232329 58.0953735,41.1269421 C58.0953735,41.3027392 58.3414894,41.331707 58.5329865,41.331707 L58.5982194,41.331707 L58.5982194,41.5070617 C58.3642656,41.4944574 58.1245625,41.4845066 57.8906087,41.4845066 C57.6803157,41.4845066 57.4702438,41.4944574 57.2608352,41.5070617 L57.2608352,41.331707 L57.2940045,41.331707 C57.5230934,41.331707 57.7165807,41.1970398 57.8019363,40.9515874 L58.7386359,38.2710697 C58.8140406,38.054364 58.91974,37.7624746 58.9533515,37.5457688 C59.1410894,37.4818627 59.3741587,37.3657704 59.486713,37.2947882 C59.5030765,37.2888177 59.5147963,37.2828472 59.5329288,37.2828472 C59.5499557,37.2828472 59.5610121,37.2828472 59.5729531,37.3012009 C59.5906433,37.3474167 59.6081125,37.4000452 59.6258027,37.4467033 L60.7007075,40.5024757 C60.770363,40.706356 60.8409029,40.9223984 60.9171922,41.0986377 C60.9872899,41.2624938 61.109795,41.331707 61.3023977,41.331707 L61.3384416,41.331707 L61.3384416,41.5070617 C61.0750778,41.4944574 60.8119351,41.4845066 60.5313232,41.4845066 C60.2456254,41.4845066 59.9530727,41.4944574 59.6547705,41.5070617 L59.6547705,41.331707 L59.7195611,41.331707 C59.8531226,41.331707 60.0822116,41.3084885 60.0822116,41.1623227 C60.0822116,41.0869179 60.0298042,40.9290323 59.9645713,40.7412943 L59.7368091,40.0639782 L58.4109237,40.0639782 L58.2231857,40.67186 L58.2231857,40.67186 Z M59.0774045,38.083774 L59.0656847,38.083774 L58.5210456,39.7371506 L59.6151886,39.7371506 L59.0774045,38.083774 L59.0774045,38.083774 Z" id="Fill-37" fill="#FFFFFF"></path>
                        <path d="M61.3357881,41.5320492 C61.0724243,41.5216562 60.8101661,41.5086096 60.5315444,41.5086096 C60.2465099,41.5086096 59.953736,41.5216562 59.6560973,41.5320492 L59.6302253,41.533376 L59.6302253,41.3062772 L59.7191189,41.3062772 C59.8548917,41.3062772 60.0561185,41.274877 60.0563396,41.1623227 C60.0578875,41.095763 60.0050378,40.9363295 59.9393627,40.7499183 L59.7177921,40.0889657 L58.4281717,40.0889657 L58.247731,40.6793784 C58.1889108,40.8794995 58.1199188,41.0322992 58.1205822,41.1269421 C58.1205822,41.2700122 58.3397204,41.3062772 58.5327654,41.3062772 L58.6221012,41.3062772 L58.6221012,41.533376 L58.595787,41.5320492 C58.3624966,41.5216562 58.1232357,41.5086096 57.8906087,41.5086096 C57.6812002,41.5086096 57.4715705,41.5216562 57.2608352,41.5320492 L57.2354055,41.533376 L57.2354055,41.3062772 L57.2940045,41.3062772 C57.5118159,41.3051716 57.6940256,41.1804552 57.7796023,40.9434056 L58.7138695,38.2620035 C58.788832,38.04574 58.8943102,37.7551773 58.945612,37.5225503 C59.1291485,37.4588654 59.3637657,37.3416674 59.4774256,37.2711274 C59.4924623,37.2653781 59.5088258,37.258302 59.5327077,37.258302 C59.5477444,37.2569752 59.5784813,37.2607344 59.5963927,37.2925769 C59.6140829,37.3385716 59.6313309,37.3916424 59.650348,37.4387427 L60.7245894,40.4940729 C60.7949082,40.6986166 60.8645636,40.9144378 60.9404106,41.0886869 C61.0091816,41.2432556 61.1148809,41.3047293 61.3017343,41.3062772 L61.3621024,41.3062772 L61.3621024,41.533376 L61.3357881,41.5320492 L61.3357881,41.5320492 Z M59.679758,41.4805263 C59.9687728,41.4699122 60.2529227,41.4586346 60.5315444,41.4586346 C60.80309,41.4586346 61.0571664,41.4699122 61.3121274,41.4800841 L61.311464,41.3578001 L61.3017343,41.3578001 C61.1038245,41.3582424 60.9660615,41.2804052 60.8930892,41.1081462 C60.8161365,40.9316858 60.7467022,40.7147589 60.6766046,40.5108786 L59.6016997,37.4546639 C59.5844517,37.4080059 59.5658769,37.3558196 59.552167,37.3153531 C59.5473022,37.3084981 59.5477444,37.3084981 59.5442064,37.3084981 L59.5327077,37.3084981 C59.5201034,37.3084981 59.5136907,37.3124784 59.4997596,37.3164587 C59.3854362,37.3878832 59.1517036,37.5050812 58.9792235,37.549528 C58.9429584,37.7708775 58.8368168,38.0623246 58.7616332,38.2792515 L57.8260392,40.9599902 C57.7371457,41.2138456 57.5330442,41.3582424 57.2940045,41.3578001 L57.2853805,41.3578001 L57.2853805,41.4800841 C57.4866073,41.4699122 57.6873918,41.4586346 57.8906087,41.4586346 C58.116823,41.4586346 58.3479021,41.4699122 58.5723474,41.4800841 L58.5723474,41.3578001 L58.5327654,41.3578001 C58.3428161,41.3551466 58.0765776,41.3350239 58.0690593,41.1269421 C58.0706072,41.0115131 58.1424739,40.8624726 58.1997461,40.6645628 L58.2231857,40.67186 L58.1997461,40.6638994 L58.3919066,40.0396541 L59.7536149,40.0396541 L59.9882321,40.7333337 C60.0525804,40.9212928 60.1058723,41.0769671 60.1058723,41.1623227 C60.0974695,41.3412155 59.8517959,41.3544832 59.7191189,41.3578001 L59.679758,41.3578001 L59.679758,41.4805263 L59.679758,41.4805263 Z M58.4861073,39.7621381 L59.0471099,38.057902 L59.0774045,38.057902 L59.0774045,38.083774 L59.0707706,38.0855431 L59.0774045,38.083774 L59.0774045,38.057902 L59.0950947,38.057902 L59.6474733,39.7621381 L58.4861073,39.7621381 L58.4861073,39.7621381 Z M58.5566472,39.7112786 L59.5787024,39.7112786 L59.0705495,38.1467956 L58.5566472,39.7112786 L58.5566472,39.7112786 Z M59.0530803,38.0912924 L59.064579,38.087091 L59.0530803,38.0912924 L59.0530803,38.0912924 Z" id="Fill-38" fill="#FFFFFF"></path>
                        <path d="M62.8098296,40.9341182 C62.8098296,41.1689565 62.9721378,41.2381697 63.1596546,41.2624938 C63.3986943,41.2799629 63.661837,41.2799629 63.9313924,41.2501106 C64.1764026,41.2207005 64.3866957,41.0813897 64.4915105,40.9341182 C64.5843844,40.8058638 64.637013,40.6422288 64.6728357,40.5139744 L64.8417778,40.5139744 C64.7774294,40.8469937 64.6958331,41.1744847 64.6257354,41.5070617 C64.1127177,41.5070617 63.5970464,41.4845066 63.0838076,41.4845066 C62.5692419,41.4845066 62.0555608,41.5070617 61.5416586,41.5070617 L61.5416586,41.3314858 L61.6225915,41.3314858 C61.8333268,41.3314858 62.0619735,41.3027392 62.0619735,40.9405309 L62.0619735,37.9382716 C62.0619735,37.6337779 61.8333268,37.604589 61.6225915,37.604589 L61.5416586,37.604589 L61.5416586,37.4292342 C61.850796,37.4292342 62.1550686,37.4524527 62.464206,37.4524527 C62.7627292,37.4524527 63.0541764,37.4292342 63.3529207,37.4292342 L63.3529207,37.604589 L63.2060915,37.604589 C62.9840787,37.604589 62.8098296,37.6107805 62.8098296,37.9203602 L62.8098296,40.9341182" id="Fill-39" fill="#FFFFFF"></path>
                        <path d="M64.6259565,41.5320492 C64.1107275,41.5320492 63.5961619,41.5086096 63.0838076,41.5086096 C62.5699053,41.5086096 62.0557819,41.5320492 61.5405529,41.5320492 L61.5160077,41.5320492 L61.5160077,41.3062772 L61.6225915,41.3062772 C61.8337691,41.3011913 62.0343325,41.2863757 62.0367649,40.9405309 L62.0367649,37.937166 C62.0343325,37.6527949 61.8346536,37.6337779 61.6225915,37.6300187 L61.5160077,37.6300187 L61.5160077,37.4038044 L61.5405529,37.4038044 C61.8516805,37.4038044 62.155732,37.4265806 62.4637637,37.4265806 C62.7611813,37.4265806 63.0521862,37.4038044 63.3529207,37.4038044 L63.3763603,37.4038044 L63.3763603,37.6300187 L63.2060915,37.6300187 C62.979435,37.635768 62.8387974,37.6255961 62.8337114,37.9203602 L62.8337114,40.9341182 C62.8352593,41.152593 62.9783293,41.2109709 63.1609813,41.237064 C63.263806,41.2441401 63.3726012,41.2478993 63.4849343,41.2478993 C63.6277833,41.2478993 63.7761604,41.2412655 63.927191,41.2253442 C64.1651251,41.1970398 64.3698899,41.059498 64.4709456,40.9201871 C64.5611659,40.7952496 64.6120255,40.6351527 64.647406,40.5080039 L64.6522708,40.4887658 L64.8725146,40.4887658 L64.8674287,40.5195026 C64.8013113,40.8534064 64.7208206,41.1793495 64.6500595,41.5123688 L64.6454158,41.5320492 L64.6259565,41.5320492 L64.6259565,41.5320492 Z M64.6045071,41.481632 C64.6721724,41.1643128 64.7484616,40.8540698 64.8117043,40.5389619 L64.6911894,40.5389619 C64.6553666,40.6661107 64.6031803,40.8228907 64.5116332,40.9500395 C64.4023958,41.1012912 64.1861323,41.2441401 63.9327192,41.2755404 C63.7799195,41.2910194 63.6280044,41.29898 63.4849343,41.29898 C63.3717166,41.29898 63.2624792,41.293894 63.1561165,41.2863757 C62.9661673,41.2655896 62.7824096,41.1839932 62.7826308,40.9341182 L62.7826308,37.9203602 C62.7826308,37.5955227 62.988059,37.5787169 63.2060915,37.5787169 L63.3263853,37.5787169 L63.3263853,37.4544428 C63.0386974,37.4562118 62.7545475,37.4781035 62.4637637,37.4781035 C62.1619235,37.4781035 61.8658327,37.4562118 61.5668672,37.4544428 L61.5668672,37.5787169 L61.6225915,37.5787169 C61.8308944,37.5787169 62.0858554,37.6152031 62.0858554,37.937166 L62.0858554,40.9405309 C62.0858554,41.3186604 61.8320001,41.3578001 61.6225915,41.3578001 L61.5668672,41.3578001 L61.5668672,41.481632 C62.0714821,41.4805263 62.5765392,41.4586346 63.0838076,41.4586346 C63.5917393,41.4586346 64.0987866,41.4805263 64.6045071,41.481632 L64.6045071,41.481632 Z" id="Fill-40" fill="#FFFFFF"></path>
                        <path d="M64.7705745,37.2636091 C65.123053,37.2636091 65.3859746,37.5342701 65.3859746,37.8801149 C65.3859746,38.2257384 65.123053,38.4935248 64.7705745,38.4935248 C64.4189804,38.4935248 64.1556166,38.2257384 64.1556166,37.8801149 C64.1556166,37.5342701 64.4189804,37.2636091 64.7705745,37.2636091 L64.7705745,37.2636091 Z M64.7705745,38.3792015 C65.0465426,38.3792015 65.2572779,38.1445843 65.2572779,37.8801149 C65.2572779,37.6152031 65.048975,37.3788169 64.7705745,37.3788169 C64.4937218,37.3788169 64.2832076,37.6152031 64.2832076,37.8801149 C64.2832076,38.1445843 64.4937218,38.3792015 64.7705745,38.3792015 L64.7705745,38.3792015 Z M64.464754,38.2045101 L64.464754,38.1746578 C64.5399376,38.1638225 64.5540898,38.1658127 64.5540898,38.119818 L64.5540898,37.6638513 C64.5540898,37.5997241 64.5476771,37.5776113 64.4671864,37.5811494 L64.4671864,37.5497491 L64.7820731,37.5497491 C64.8902049,37.5497491 64.9899338,37.6014932 64.9899338,37.7133841 C64.9899338,37.8047101 64.9297869,37.8725965 64.8444313,37.8989108 L64.9457081,38.0399906 C64.9928084,38.1036756 65.0465426,38.1638225 65.0810386,38.1850508 L65.0810386,38.2045101 L64.9614082,38.2045101 C64.9039148,38.2045101 64.8530553,38.083774 64.7402799,37.921687 L64.6721724,37.921687 L64.6721724,38.1255673 C64.6721724,38.1658127 64.6863246,38.1638225 64.7619505,38.1746578 L64.7619505,38.2045101 L64.464754,38.2045101 L64.464754,38.2045101 Z M64.6721724,37.8801149 L64.7447024,37.8801149 C64.8240875,37.8801149 64.8607948,37.8201891 64.8607948,37.7231137 C64.8607948,37.625375 64.804186,37.5906579 64.7407221,37.5906579 L64.6721724,37.5906579 L64.6721724,37.8801149 L64.6721724,37.8801149 Z" id="Fill-41" fill="#FFFFFF"></path>
                        <path d="M28.2830731,16.8052582 C28.2830731,11.340956 32.7127159,6.91131329 38.1767969,6.91131329 C43.6410991,6.91131329 48.0707418,11.340956 48.0707418,16.8052582 C48.0707418,22.2695604 43.6410991,26.6994242 38.1767969,26.6994242 C32.7127159,26.6994242 28.2830731,22.2695604 28.2830731,16.8052582" id="Fill-42" fill="#0069AA"></path>
                        <path d="M44.1603084,16.6104441 C44.1563281,14.0767557 42.572607,11.9158897 40.3409799,11.060123 L40.3409799,22.160323 C42.572607,21.3034507 44.1563281,19.1445748 44.1603084,16.6104441 L44.1603084,16.6104441 Z M36.0838173,22.1581117 L36.0838173,11.0612287 C33.8541803,11.9196488 32.2728916,14.0774191 32.2669212,16.6104441 C32.2728916,19.1428058 33.8541803,21.3003549 36.0838173,22.1581117 L36.0838173,22.1581117 Z M38.2135042,7.22819018 C33.0320252,7.23018034 28.8341249,11.4289651 28.8332404,16.6104441 C28.8341249,21.7912598 33.0320252,25.9893811 38.2135042,25.9902656 C43.3949833,25.9893811 47.593768,21.7912598 47.5950948,16.6104441 C47.593768,11.4289651 43.3949833,7.23018034 38.2135042,7.22819018 L38.2135042,7.22819018 Z M38.1905069,26.8756635 C32.5205553,26.9026411 27.8538631,22.3091423 27.8538631,16.7174702 C27.8538631,10.6063677 32.5205553,6.37949965 38.1905069,6.38060529 L40.8475849,6.38060529 C46.4505345,6.37949965 51.5641272,10.6043775 51.5641272,16.7174702 C51.5641272,22.3071522 46.4505345,26.8756635 40.8475849,26.8756635 L38.1905069,26.8756635 L38.1905069,26.8756635 Z" id="Fill-43" fill="#FFFFFF"></path>
                    </g>
                </g>
            </g>
        </g>
    </g>
</svg>