<?xml version="1.0" encoding="UTF-8" standalone="no"?>
<svg width="80px" height="48px" viewBox="0 0 80 48" version="1.1" xmlns="http://www.w3.org/2000/svg" xmlns:xlink="http://www.w3.org/1999/xlink" xmlns:sketch="http://www.bohemiancoding.com/sketch/ns">
    <!-- Generator: Sketch 3.4 (15575) - http://www.bohemiancoding.com/sketch -->
    <title>Discover-dark</title>
    <desc>Created with Sketch.</desc>
    <defs>
        <rect id="path-1" x="0" y="0" width="80" height="48" rx="4"></rect>
        <path id="path-3" d="M19.2923334,48 L75.993323,48 C78.2061496,48 80,46.2060097 80,43.9927187 L80,26.9584549 C80,26.9584549 58.5596273,41.4943974 19.2923334,48 Z"></path>
    </defs>
    <g id="Page-1" stroke="none" stroke-width="1" fill="none" fill-rule="evenodd" sketch:type="MSPage">
        <g id="Group" sketch:type="MSLayerGroup" transform="translate(-971.000000, -2425.000000)">
            <g id="footer" transform="translate(0.000000, 2346.000000)">
                <g id="payment" transform="translate(227.000000, 34.000000)">
                    <g id="Discover-dark" transform="translate(744.000000, 45.000000)">
                        <g id="Rectangle">
                            <mask id="mask-2" sketch:name="Mask" fill="white">
                                <use xlink:href="#path-1"></use>
                            </mask>
                            <use id="Mask" stroke="#E6772F" fill="#FFFFFF" sketch:type="MSShapeGroup" xlink:href="#path-1"></use>
                            <mask id="mask-4" sketch:name="Mask" fill="white">
                                <use xlink:href="#path-3"></use>
                            </mask>
                            <use id="Mask" fill="#E7772F" sketch:type="MSShapeGroup" xlink:href="#path-3"></use>
                        </g>
                        <path d="M14.6308667,23.8576121 C14.0302959,24.3711276 13.2657622,24.5956783 12.043185,24.5956783 L11.5358776,24.5956783 L11.5358776,18.4676776 L12.043185,18.4676776 C13.2657622,18.4676776 14.0009631,18.6771143 14.6308667,19.2161797 C15.2810777,19.7732379 15.671806,20.6325759 15.671806,21.521422 C15.671806,22.4145865 15.2810777,23.3045122 14.6308667,23.8576121 L14.6308667,23.8576121 Z M12.4218793,16.8979825 L9.64616672,16.8979825 L9.64616672,26.1660931 L12.4049565,26.1660931 C13.8731021,26.1660931 14.9328444,25.8317862 15.8617172,25.0940799 C16.9650827,24.2203477 17.6198064,22.9011128 17.6198064,21.5343769 C17.6198064,18.798386 15.483775,16.8979825 12.4218793,16.8979825 L12.4218793,16.8979825 Z" id="Fill-13" fill="#1A1918" sketch:type="MSShapeGroup"></path>
                        <path d="M18.4911417,16.8979825 L20.3733314,16.8979825 L20.3733314,26.1660931 L18.4911417,26.1660931 L18.4911417,16.8979825 Z" id="Fill-14" fill="#1A1918" sketch:type="MSShapeGroup"></path>
                        <path d="M24.9955077,20.4501285 C23.8594248,20.0514072 23.5273622,19.7858329 23.5273622,19.2849123 C23.5273622,18.7026641 24.1207878,18.2611199 24.9368421,18.2611199 C25.5024391,18.2611199 25.9683798,18.4777536 26.4647814,19.0071029 L27.4474311,17.773514 C26.6355135,17.0897861 25.6637697,16.7436039 24.6044034,16.7436039 C22.8903134,16.7436039 21.5838745,17.8847097 21.5838745,19.3935891 C21.5838745,20.6746791 22.1912144,21.3245804 23.963594,21.9417347 C24.7044358,22.1882366 25.0808738,22.3566495 25.2715371,22.4707241 C25.6491032,22.7042712 25.8371342,23.0389379 25.8371342,23.425784 C25.8371342,24.1796838 25.2128715,24.7338632 24.3689887,24.7338632 C23.4705769,24.7338632 22.7436493,24.3034746 22.3085457,23.4952363 L21.0908574,24.6237471 C21.9614406,25.8443812 23.0050123,26.389924 24.4426968,26.389924 C26.4034833,26.389924 27.7851346,25.1336641 27.7851346,23.3444563 C27.7851346,21.8701232 27.1443252,21.2018692 24.9955077,20.4501285" id="Fill-15" fill="#1A1918" sketch:type="MSShapeGroup"></path>
                        <path d="M28.3785602,21.5343769 C28.3785602,24.2599319 30.614248,26.3719312 33.4922495,26.3719312 C34.303791,26.3719312 34.9995054,26.2186322 35.8561743,25.8317862 L35.8561743,23.7017941 C35.0991618,24.4297843 34.4346605,24.71695 33.5749831,24.71695 C31.6732382,24.71695 30.3261846,23.4002341 30.3261846,21.521422 C30.3261846,19.7462487 31.7168614,18.3399285 33.4922495,18.3399285 C34.3880288,18.3399285 35.0724614,18.6436476 35.8561743,19.3824335 L35.8561743,17.2549604 C35.0284622,16.8544398 34.3492944,16.6885459 33.5309838,16.6885459 C30.6695291,16.6885459 28.3785602,18.8419287 28.3785602,21.5343769" id="Fill-16" fill="#1A1918" sketch:type="MSShapeGroup"></path>
                        <path d="M51.1588837,23.1202656 L48.5760908,16.8979825 L46.516776,16.8979825 L50.6226194,26.4 L51.635354,26.4 L55.8209226,16.8979825 L53.7777785,16.8979825 L51.1588837,23.1202656" id="Fill-17" fill="#1A1918" sketch:type="MSShapeGroup"></path>
                        <path d="M56.6779676,26.1660931 L62.0342167,26.1660931 L62.0342167,24.5956783 L58.5676784,24.5956783 L58.5676784,22.0939541 L61.902595,22.0939541 L61.902595,20.5238991 L58.5676784,20.5238991 L58.5676784,18.4676776 L62.0342167,18.4676776 L62.0342167,16.8979825 L56.6779676,16.8979825 L56.6779676,26.1660931" id="Fill-18" fill="#1A1918" sketch:type="MSShapeGroup"></path>
                        <path d="M65.7233836,21.159766 L65.1750854,21.159766 L65.1750854,18.3564819 L65.7542206,18.3564819 C66.9343028,18.3564819 67.5664627,18.8304132 67.5664627,19.7332938 C67.5664627,20.6610045 66.9343028,21.159766 65.7233836,21.159766 L65.7233836,21.159766 Z M69.5114547,19.6325339 C69.5114547,17.8969448 68.2674421,16.8979825 66.0866593,16.8979825 L63.2812378,16.8979825 L63.2812378,26.1660931 L65.1750854,26.1660931 L65.1750854,22.4397765 L65.4206538,22.4397765 L68.030147,26.1660931 L70.3538333,26.1660931 L67.306604,22.2598481 C68.7307503,21.981319 69.5114547,21.0507294 69.5114547,19.6325339 L69.5114547,19.6325339 Z" id="Fill-19" fill="#1A1918" sketch:type="MSShapeGroup"></path>
                        <path d="M46.7830278,21.5559683 C46.7830278,24.2243061 44.5236482,26.3870452 41.7340213,26.3870452 C38.9451465,26.3870452 36.6853907,24.2243061 36.6853907,21.5559683 C36.6853907,18.8872706 38.9451465,16.7241717 41.7340213,16.7241717 C44.5236482,16.7241717 46.7830278,18.8872706 46.7830278,21.5559683" id="Fill-20" fill="#E7772F" sketch:type="MSShapeGroup"></path>
                    </g>
                </g>
            </g>
        </g>
    </g>
</svg>