<?xml version="1.0" encoding="UTF-8" standalone="no"?>
<svg width="23px" height="22px" viewBox="0 0 23 22" version="1.1" xmlns="http://www.w3.org/2000/svg" xmlns:xlink="http://www.w3.org/1999/xlink" xmlns:sketch="http://www.bohemiancoding.com/sketch/ns">
    <!-- Generator: Sketch 3.4 (15575) - http://www.bohemiancoding.com/sketch -->
    <title>Fill 72</title>
    <desc>Created with Sketch.</desc>
    <defs></defs>
    <g id="Page-1" stroke="none" stroke-width="1" fill="none" fill-rule="evenodd" sketch:type="MSPage">
        <g id="Group" sketch:type="MSLayerGroup" transform="translate(-577.000000, -1340.000000)" fill="#FF7D5D">
            <g id="hot-products" transform="translate(1.000000, 1249.000000)" sketch:type="MSShapeGroup">
                <g id="hover-product" transform="translate(559.000000, 73.000000)">
                    <path d="M36.9065534,27.6967049 L28.4417476,37.7919501 L19.9769417,27.6551056 C18.9646921,26.2491886 18.5661408,25.2994544 18.5661408,23.9992985 C18.5661408,21.57455 20.297899,19.3923469 22.7985437,19.3718998 C24.8554915,19.354978 27.1875455,21.4546875 28.4417476,23.0375779 C29.6627958,21.5103883 32.0280036,19.3718998 34.0849515,19.3718998 C36.5192885,19.3718998 38.3173544,21.57455 38.3173544,23.9992985 C38.3173544,25.2994544 38.0020404,26.319696 36.9065534,27.6967049 L36.9065534,27.6967049 Z M34.0849515,18.0498866 C31.7338516,18.0498866 29.9548316,19.4290108 28.4417476,20.8701814 C27.0006144,19.3408766 25.1496435,18.0498866 22.7985437,18.0498866 C19.4873938,18.0498866 17.1553398,20.8955641 17.1553398,23.9992985 C17.1553398,25.6639775 17.8374621,26.8626027 18.5844812,27.9893105 L27.3547254,38.499139 C28.3387591,39.5405329 28.5249848,39.5405329 29.5090185,38.499139 L38.299014,27.9893105 C39.177943,26.8626027 39.7281553,25.6639775 39.7281553,23.9992985 C39.7281553,20.8955641 37.3961013,18.0498866 34.0849515,18.0498866 L34.0849515,18.0498866 Z" id="Fill-72"></path>
                </g>
            </g>
        </g>
    </g>
</svg>