<?xml version="1.0" encoding="UTF-8" standalone="no"?>
<svg width="27px" height="26px" viewBox="0 0 27 26" version="1.1" xmlns="http://www.w3.org/2000/svg" xmlns:xlink="http://www.w3.org/1999/xlink" xmlns:sketch="http://www.bohemiancoding.com/sketch/ns">
    <!-- Generator: Sketch 3.4 (15575) - http://www.bohemiancoding.com/sketch -->
    <title>Fill 92</title>
    <desc>Created with Sketch.</desc>
    <defs></defs>
    <g id="Page-1" stroke="none" stroke-width="1" fill="none" fill-rule="evenodd" sketch:type="MSPage">
        <g id="Group" sketch:type="MSLayerGroup" transform="translate(-748.000000, -1331.000000)" fill="#FFFFFF">
            <g id="hot-products" transform="translate(1.000000, 1249.000000)" sketch:type="MSShapeGroup">
                <g id="hover-product" transform="translate(559.000000, 73.000000)">
                    <g id="Bitmap">
                        <g id="Rectangle-54-+-20%-OFF-+-Fill-92" transform="translate(231.794487, 47.448312) rotate(42.000000) translate(-231.794487, -47.448312) translate(106.741088, 27.593436)">
                            <path d="M94.495449,16.0756803 L76.1550364,16.0756803 C75.7656553,16.0756803 75.4496359,15.7605123 75.4496359,15.3706066 C75.4496359,14.9814059 75.7656553,14.6655329 76.1550364,14.6655329 L94.495449,14.6655329 C94.8848301,14.6655329 95.2008495,14.9814059 95.2008495,15.3706066 C95.2008495,15.7605123 94.8848301,16.0756803 94.495449,16.0756803 L94.495449,16.0756803 Z M86.0306432,17.4858277 L93.7900485,17.4858277 L93.7900485,23.1264172 L86.0306432,23.1264172 L86.0306432,17.4858277 Z M93.7900485,28.7670068 C93.7900485,29.5454082 93.1580097,30.1771542 92.3792476,30.1771542 L86.0306432,30.1771542 L86.0306432,24.5365646 L93.7900485,24.5365646 L93.7900485,28.7670068 L93.7900485,28.7670068 Z M76.8604369,17.4858277 L84.6198422,17.4858277 L84.6198422,23.1264172 L76.8604369,23.1264172 L76.8604369,17.4858277 Z M84.6198422,30.1771542 L78.2712379,30.1771542 C77.4924757,30.1771542 76.8604369,29.5454082 76.8604369,28.7670068 L76.8604369,24.5365646 L84.6198422,24.5365646 L84.6198422,30.1771542 L84.6198422,30.1771542 Z M83.2090413,10.4350907 C83.9878034,10.4350907 84.6198422,11.0668367 84.6198422,11.8452381 C84.6198422,12.6236395 83.9878034,13.2553855 83.2090413,13.2553855 C82.4302791,13.2553855 81.7982403,12.6236395 81.7982403,11.8452381 C81.7982403,11.0668367 82.4302791,10.4350907 83.2090413,10.4350907 L83.2090413,10.4350907 Z M87.4414442,10.4350907 C88.2202063,10.4350907 88.8522451,11.0668367 88.8522451,11.8452381 C88.8522451,12.6236395 88.2202063,13.2553855 87.4414442,13.2553855 C86.662682,13.2553855 86.0306432,12.6236395 86.0306432,11.8452381 C86.0306432,11.0668367 86.662682,10.4350907 87.4414442,10.4350907 L87.4414442,10.4350907 Z M95.2008495,13.2553855 L89.8715488,13.2553855 C90.1142066,12.839392 90.2630461,12.361352 90.2630461,11.8452381 C90.2630461,10.2877303 88.9996738,9.02494331 87.4414442,9.02494331 C86.5935528,9.02494331 85.8423013,9.40638818 85.3252427,9.99794501 C84.8081842,9.40638818 84.0569326,9.02494331 83.2090413,9.02494331 C81.6508116,9.02494331 80.3874393,10.2877303 80.3874393,11.8452381 C80.3874393,12.361352 80.5362788,12.839392 80.7789366,13.2553855 L75.4496359,13.2553855 C74.6708738,13.2553855 74.038835,13.8871315 74.038835,14.6655329 L74.038835,16.0756803 C74.038835,16.8540816 74.6708738,17.4858277 75.4496359,17.4858277 L75.4496359,28.7670068 C75.4496359,30.3245146 76.7130082,31.5873016 78.2712379,31.5873016 L92.3792476,31.5873016 C93.9374772,31.5873016 95.2008495,30.3245146 95.2008495,28.7670068 L95.2008495,17.4858277 C95.9796117,17.4858277 96.6116505,16.8540816 96.6116505,16.0756803 L96.6116505,14.6655329 C96.6116505,13.8871315 95.9796117,13.2553855 95.2008495,13.2553855 L95.2008495,13.2553855 Z" id="Fill-92"></path>
                        </g>
                    </g>
                </g>
            </g>
        </g>
    </g>
</svg>