<?xml version="1.0" encoding="UTF-8" standalone="no"?>
<svg width="80px" height="48px" viewBox="0 0 80 48" version="1.1" xmlns="http://www.w3.org/2000/svg" xmlns:xlink="http://www.w3.org/1999/xlink" xmlns:sketch="http://www.bohemiancoding.com/sketch/ns">
    <!-- Generator: Sketch 3.4 (15575) - http://www.bohemiancoding.com/sketch -->
    <title>Maestro-dark</title>
    <desc>Created with Sketch.</desc>
    <defs></defs>
    <g id="Page-1" stroke="none" stroke-width="1" fill="none" fill-rule="evenodd" sketch:type="MSPage">
        <g id="Group" sketch:type="MSLayerGroup" transform="translate(-413.000000, -2425.000000)">
            <g id="footer" transform="translate(0.000000, 2346.000000)" sketch:type="MSShapeGroup">
                <g id="payment" transform="translate(227.000000, 34.000000)">
                    <g id="Maestro-dark" transform="translate(186.000000, 45.000000)">
                        <rect id="Rectangle" fill="#000066" x="0" y="0" width="80" height="48" rx="4"></rect>
                        <path d="M66.9251918,23.9869864 C66.9251918,32.8312555 59.7845076,40 50.9738652,40 C42.1649877,40 35.023295,32.8312555 35.023295,23.9869864 C35.023295,15.1424643 42.1649877,7.97346671 50.9738652,7.97346671 C59.7845076,7.97346671 66.9251918,15.1424643 66.9251918,23.9869864" id="Fill-356" fill="#CC0000"></path>
                        <path d="M38.6518739,34.1560358 C38.2114426,33.6197971 37.8058021,33.053191 37.4369693,32.4600133 L43.0902211,32.4600133 C43.4295574,31.9164358 43.7358676,31.3500827 44.0094039,30.7642438 L36.5182907,30.7642438 C36.2629061,30.2156051 36.0360096,29.6497581 35.8428955,29.0689805 L44.6835386,29.0689805 C45.215989,27.4721583 45.5036433,25.7639888 45.5036433,23.9869864 C45.5036433,22.8234067 45.3801108,21.688676 45.1456511,20.5959536 L35.3820435,20.5959536 C35.5055761,20.0182127 35.6613783,19.4528719 35.8449123,18.9001842 L44.6825301,18.9001842 C44.4886597,18.3194065 44.2630238,17.7538126 44.0078913,17.2051739 L36.5198033,17.2051739 C36.7933396,16.619335 37.1004062,16.0539942 37.438734,15.5091514 L43.0884563,15.5091514 C42.7198756,14.9174921 42.3132267,14.3518982 41.8735517,13.8149003 L38.6538907,13.8149003 C39.1492814,13.2113471 39.6875302,12.6447409 40.2638473,12.1201431 C37.4326835,9.54321122 33.6750257,7.97346671 29.5533251,7.97346671 C20.743187,7.97346671 13.6014943,15.1424643 13.6014943,23.9869864 C13.6014943,32.8312555 20.743187,40 29.5533251,40 C33.6752778,40 37.4331877,38.4302555 40.2638473,35.8543359 C40.8409207,35.3287258 41.3799259,34.7608543 41.8753165,34.1560358 L38.6518739,34.1560358" id="Fill-357" fill="#0066CC"></path>
                        <path d="M40.0364466,28.3143492 C39.3547487,28.4955417 38.6954884,28.5841134 37.9986641,28.582595 C35.7753308,28.5805705 34.6174024,27.5640199 34.6174024,25.6199965 C34.6174024,23.3487637 36.0914732,21.6783004 38.092448,21.6783004 C39.7291279,21.6783004 40.7738602,22.6148834 40.7738602,24.0823908 C40.7738602,24.5692824 40.7032701,25.043774 40.5300725,25.7143886 L36.5762753,25.7143886 C36.4355995,26.6638778 37.1261211,27.0806712 38.301697,27.0806712 C39.0058324,27.0806712 39.6424031,26.953634 40.347799,26.6689391 L40.0364466,28.3143492 L40.0364466,28.3143492 Z M38.9733106,24.3749307 C38.9733106,24.2316975 39.193148,23.2123632 38.0488335,23.1903468 C37.4170528,23.1903468 36.9640162,23.6119483 36.7807343,24.3749307 L38.9733106,24.3749307 L38.9733106,24.3749307 Z" id="Fill-359" fill="#000066"></path>
                        <path d="M41.3758921,23.9295413 C41.3758921,24.7684423 41.8463242,25.3482077 42.916015,25.7796787 C43.7335987,26.1157452 43.8621733,26.2131741 43.8621733,26.5135589 C43.8621733,26.9298461 43.5011558,27.120655 42.6989507,27.1155938 C42.0966666,27.1112917 41.5468208,27.0376506 40.898149,26.8572173 L40.6109989,28.3874841 C41.1878202,28.5218601 41.996328,28.5658929 42.7130687,28.582595 C44.8481646,28.582595 45.8339037,27.8808537 45.8339037,26.3639992 C45.8339037,25.4519632 45.4227169,24.9157245 44.4087417,24.5158863 C43.5611573,24.1757708 43.4618271,24.1026358 43.4618271,23.7946592 C43.4618271,23.4332864 43.7976339,23.2505756 44.4523563,23.2505756 C44.8494251,23.2505756 45.3927161,23.2870165 45.9085274,23.3497759 L46.1976944,21.8111581 C45.672303,21.7380231 44.8753921,21.6793127 44.4137839,21.6793127 C42.1518781,21.6793127 41.3690852,22.7014307 41.3758921,23.9295413" id="Fill-360" fill="#000066"></path>
                        <path d="M33.5335936,28.4730191 L31.8749803,28.4730191 L31.9145611,27.7755798 C31.4088341,28.325737 30.7349516,28.5820889 29.8208109,28.5820889 C28.7387668,28.5820889 27.9975716,27.8393515 27.9975716,26.7711762 C27.9975716,25.1475294 29.2860915,24.2109464 31.5016096,24.2109464 C31.7292624,24.2109464 32.0189335,24.2281546 32.31642,24.2618119 C32.3779342,24.0444315 32.3945732,23.9507985 32.3945732,23.8328716 C32.3945732,23.3884944 32.045909,23.2247632 31.1136166,23.2247632 C30.1944337,23.2283061 29.57425,23.3652127 28.9986893,23.5203398 L29.2820578,22.030816 C30.277377,21.7767416 30.928822,21.6783004 31.6662356,21.6783004 C33.381825,21.6783004 34.2878983,22.3539764 34.2878983,23.62283 C34.3022684,23.9616802 34.1850386,24.6414051 34.1257934,24.9390062 C34.0587329,25.3714894 33.5832587,27.8808537 33.5335936,28.4730191 L33.5335936,28.4730191 Z M32.0776745,25.5106736 C31.8676692,25.4899225 31.7761543,25.483596 31.6322011,25.483596 C30.5009961,25.483596 29.9274522,25.821687 29.9274522,26.4890119 C29.9274522,26.9080828 30.2072912,27.1700021 30.6436888,27.1700021 C31.4564824,27.1700021 32.0433879,26.4874935 32.0776745,25.5106736 L32.0776745,25.5106736 Z" id="Fill-361" fill="#000066"></path>
                        <path d="M49.3286137,28.3677453 C48.7845663,28.517305 48.3602699,28.582595 47.9016869,28.582595 C46.8856949,28.582595 46.330807,28.061287 46.330807,27.1330551 C46.2987894,26.8779684 46.547115,25.699711 46.603587,25.3714894 C46.6595548,25.0422556 47.539661,20.2426789 47.539661,20.2426789 L49.5136604,20.2426789 L49.2151654,21.8308969 L50.2276279,21.8308969 L49.952579,23.4512539 L48.9355786,23.4512539 C48.9355786,23.4512539 48.3776653,26.2645458 48.3776653,26.4796486 C48.3776653,26.8205233 48.5833848,26.9688177 49.0560858,26.9688177 C49.2819738,26.9688177 49.4566841,26.9475605 49.5915615,26.9070706 L49.3286137,28.3677453" id="Fill-362" fill="#000066"></path>
                        <path d="M58.1490882,21.6783004 C56.702245,21.6783004 55.5717963,22.2767924 54.9150571,23.2748695 L55.4850714,21.7939498 C54.4347928,21.4070178 53.7576329,21.9594525 53.1457687,22.7444513 C53.1457687,22.7444513 53.0431611,22.8747783 52.9408056,22.9939705 L52.9408056,21.8301377 L51.0873135,21.8301377 C50.8362147,23.8842432 50.3922539,25.9674508 50.0451023,28.0261114 L49.9611506,28.4737783 L51.9550665,28.4737783 C52.144399,27.4291378 52.299697,26.5813796 52.4544908,25.9051975 C52.8780309,24.050252 53.5909901,23.4833927 54.6611851,23.7344304 C54.4141201,24.2671262 54.2787385,24.8845979 54.2787385,25.5676126 C54.2787385,27.2259289 55.1752317,28.582595 57.4025988,28.582595 C59.6498823,28.582595 61.2772343,27.3775131 61.2772343,24.6295112 C61.2772343,22.9722072 60.1926691,21.6783004 58.1490882,21.6783004 L58.1490882,21.6783004 Z M57.5687374,26.9708422 C56.864602,26.9817239 56.4375324,26.3885462 56.4375324,25.5008042 C56.4375324,24.4490779 57.0604893,23.260445 58.061607,23.260445 C58.8693584,23.260445 59.14592,23.9034759 59.14592,24.5885151 C59.14592,26.0846186 58.5350643,26.9708422 57.5687374,26.9708422 L57.5687374,26.9708422 Z" id="Fill-363" fill="#000066"></path>
                        <path d="M27.0685566,28.4737783 L25.0827082,28.4737783 L26.262822,22.2322535 L23.5458627,28.4737783 L21.7357331,28.4737783 L21.4049684,22.2689475 L20.221073,28.4737783 L18.419515,28.4737783 L19.9538394,20.3550385 L23.0570269,20.3550385 L23.3154368,24.881055 L25.2813687,20.3550385 L28.6336381,20.3550385 L27.0685566,28.4737783" id="Fill-364" fill="#000066"></path>
                        <path d="M40.5346104,27.8140453 C39.8534168,27.9954909 39.1939044,28.0840626 38.4973322,28.0825442 C36.2739988,28.0805197 35.1160704,27.063716 35.1160704,25.1199457 C35.1160704,22.8487129 36.5898891,21.1782496 38.5906118,21.1782496 C40.2275439,21.1782496 41.2725282,22.1148326 41.2725282,23.582087 C41.2725282,24.0689786 41.2016861,24.5424578 41.0287405,25.2143378 L37.0751955,25.2143378 C36.9342675,26.1628148 37.6242849,26.5803673 38.7998608,26.5803673 C39.5039962,26.5803673 40.1410711,26.4533301 40.8462149,26.1681291 L40.5346104,27.8140453 L40.5346104,27.8140453 Z M39.4714744,23.8748799 C39.4714744,23.7313936 39.6913119,22.7123124 38.5475015,22.6900429 C37.9157209,22.6900429 37.4626842,23.1116444 37.2788981,23.8748799 L39.4714744,23.8748799 L39.4714744,23.8748799 Z" id="Fill-366" fill="#FFFFFF"></path>
                        <path d="M41.8745602,23.4289844 C41.8745602,24.2681385 42.3447401,24.8473977 43.4141788,25.2793748 C44.2322667,25.6156944 44.3605892,25.7128703 44.3605892,26.0124959 C44.3605892,26.4295423 43.9993196,26.6203511 43.1978709,26.615543 C42.5948304,26.6109878 42.0449846,26.5373468 41.396817,26.3569134 L41.1091627,27.8866741 C41.6862361,28.0215563 42.4952481,28.0655891 43.2112325,28.0825442 C45.3463284,28.0825442 46.3325717,27.3805498 46.3325717,25.8631892 C46.3325717,24.9516593 45.9211328,24.4149145 44.9071577,24.0155824 C44.0595733,23.67572 43.9599909,23.6015728 43.9599909,23.2946084 C43.9599909,22.9332356 44.2963019,22.7497656 44.9507722,22.7497656 C45.347841,22.7497656 45.8908799,22.7869657 46.4069434,22.8497251 L46.6961103,21.3111073 C46.1707189,21.2369601 45.3738081,21.1790088 44.912704,21.1790088 C42.650294,21.1790088 41.8675012,22.2006207 41.8745602,23.4289844" id="Fill-367" fill="#FFFFFF"></path>
                        <path d="M34.0322616,27.9727153 L32.3731441,27.9727153 L32.4132292,27.275276 C31.90725,27.824927 31.2338717,28.0810259 30.3194789,28.0810259 C29.2376869,28.0810259 28.4957354,27.3385415 28.4957354,26.2703662 C28.4957354,24.6472256 29.7845074,23.7106426 32.0000255,23.7106426 C32.2276783,23.7106426 32.5170973,23.7281038 32.815088,23.7604958 C32.8766022,23.5436215 32.8929892,23.4507477 32.8929892,23.3325677 C32.8929892,22.8871783 32.544577,22.7242063 31.6125367,22.7242063 C30.6931018,22.7280022 30.0729181,22.8649089 29.4976094,23.020289 L29.7802216,21.5305121 C30.7757929,21.2764377 31.4269858,21.1782496 32.1649036,21.1782496 C33.8804931,21.1782496 34.7863142,21.8531664 34.7863142,23.1225261 C34.8011885,23.4616294 34.6832024,24.140089 34.6247135,24.4387024 C34.5568967,24.8711856 34.0816746,27.3805498 34.0322616,27.9727153 L34.0322616,27.9727153 Z M32.5760904,25.0106228 C32.3663372,24.9888595 32.2745702,24.9832921 32.1303649,24.9832921 C30.9996641,24.9832921 30.4258681,25.320877 30.4258681,25.9876958 C30.4258681,26.4075259 30.7062113,26.6699513 31.1418526,26.6699513 C31.9551504,26.6699513 32.542056,25.9866835 32.5760904,25.0106228 L32.5760904,25.0106228 Z" id="Fill-368" fill="#FFFFFF"></path>
                        <path d="M49.8270296,27.8674414 C49.2827302,28.0172542 48.8586859,28.0825442 48.3998508,28.0825442 C47.3838588,28.0825442 46.829475,27.5609831 46.829475,26.6327512 C46.7972053,26.3776645 47.0455309,25.1994072 47.1017508,24.8711856 C47.1582228,24.5419517 48.038329,19.742375 48.038329,19.742375 L50.0120763,19.742375 L49.7138335,21.3300869 L50.726296,21.3300869 L50.4509949,22.95095 L49.4342466,22.95095 C49.4342466,22.95095 48.8758292,25.7642419 48.8758292,25.9783325 C48.8758292,26.3204725 49.0818007,26.4677547 49.5545017,26.4677547 C49.7803898,26.4677547 49.954848,26.4475097 50.0904816,26.4065136 L49.8270296,27.8674414" id="Fill-369" fill="#FFFFFF"></path>
                        <path d="M59.6448402,24.087199 C59.6448402,25.5845678 59.0332281,26.4707914 58.0669012,26.4707914 C57.3627658,26.4809139 56.9359484,25.8884954 56.9359484,25.0007534 C56.9359484,23.9490271 57.5589052,22.7601411 58.5597708,22.7601411 C59.3677744,22.7601411 59.6448402,23.403172 59.6448402,24.087199 L59.6448402,24.087199 Z M61.7756502,24.1292073 C61.7756502,22.4721564 60.6908329,21.1782496 58.6477562,21.1782496 C56.2973608,21.1782496 54.7771544,22.7507778 54.7771544,25.0675618 C54.7771544,26.725625 55.6736476,28.0825442 57.9012668,28.0825442 C60.1485504,28.0825442 61.7756502,26.8774623 61.7756502,24.1292073 L61.7756502,24.1292073 Z" id="Fill-370" fill="#FFFFFF"></path>
                        <path d="M51.5854773,21.3293277 C51.3346306,23.3839393 50.8904178,25.4668939 50.5435183,27.5253014 L50.4598187,27.9737275 L52.4534824,27.9737275 C53.1719879,23.9978681 53.4132545,22.865415 54.9190908,23.2639879 L55.6433948,21.3829769 C54.5928641,20.9960449 53.9169647,21.5487326 53.3051005,22.3342375 C53.360312,21.9807097 53.4641801,21.6393289 53.4392215,21.3293277 L51.5854773,21.3293277" id="Fill-371" fill="#FFFFFF"></path>
                        <path d="M27.5669725,27.9737275 L25.5816283,27.9737275 L26.76149,21.7322027 L24.0442787,27.9737275 L22.234149,27.9737275 L21.9031322,21.7686436 L20.7192368,27.9737275 L18.9179309,27.9737275 L20.4520032,19.8547346 L23.5554428,19.8547346 L23.7193125,24.881055 L25.9038213,19.8547346 L29.132054,19.8547346 L27.5669725,27.9737275" id="Fill-372" fill="#FFFFFF"></path>
                    </g>
                </g>
            </g>
        </g>
    </g>
</svg>