<?xml version="1.0" encoding="UTF-8" standalone="no"?>
<svg width="80px" height="48px" viewBox="0 0 80 48" version="1.1" xmlns="http://www.w3.org/2000/svg" xmlns:xlink="http://www.w3.org/1999/xlink" xmlns:sketch="http://www.bohemiancoding.com/sketch/ns">
    <!-- Generator: Sketch 3.4 (15575) - http://www.bohemiancoding.com/sketch -->
    <title>MasterCard-dark</title>
    <desc>Created with Sketch.</desc>
    <defs></defs>
    <g id="Page-1" stroke="none" stroke-width="1" fill="none" fill-rule="evenodd" sketch:type="MSPage">
        <g id="Group" sketch:type="MSLayerGroup" transform="translate(-320.000000, -2425.000000)">
            <g id="footer" transform="translate(0.000000, 2346.000000)" sketch:type="MSShapeGroup">
                <g id="payment" transform="translate(227.000000, 34.000000)">
                    <g id="MasterCard-dark" transform="translate(93.000000, 45.000000)">
                        <rect id="Rectangle" fill="#000066" x="0" y="0" width="80" height="48" rx="4"></rect>
                        <path d="M44.9028967,24.3883217 C44.9028967,33.0109262 37.9135762,40 29.2912184,40 C20.668614,40 13.6788,33.0109262 13.6788,24.3883217 C13.6788,15.7659639 20.668614,8.77615 29.2912184,8.77615 C37.9135762,8.77615 44.9028967,15.7659639 44.9028967,24.3883217" id="Fill-333" fill="#CC0000"></path>
                        <path d="M50.2512849,8.77615 C46.2164321,8.77615 42.5412964,10.3065519 39.7701415,12.8171709 C39.2063871,13.3288674 38.6801341,13.8815194 38.1943432,14.4699457 L41.3486537,14.4699457 C41.7794262,14.9944717 42.176398,15.54589 42.5388292,16.1234607 L37.0039209,16.1234607 C36.6728232,16.6541546 36.3718252,17.205573 36.1043811,17.7769757 L43.4378755,17.7769757 C43.6885427,18.3121106 43.90911,18.8632822 44.0990842,19.4297505 L35.4431725,19.4297505 C35.2630672,19.9680928 35.1110879,20.5197579 34.9897018,21.0822786 L44.5520614,21.0822786 C44.7810172,22.1481074 44.9028967,23.2539048 44.9028967,24.3883217 C44.9028967,26.1215271 44.6204027,27.7898453 44.0990842,29.3478798 L35.4431725,29.3478798 C35.6331466,29.9138546 35.853714,30.4657665 36.1038877,31.0016415 L43.4378755,31.0016415 C43.169938,31.5715639 42.8704204,32.1234757 42.5373489,32.6549098 L37.0039209,32.6549098 C37.3648717,33.2307534 37.7625838,33.7829119 38.1943432,34.3066977 L41.3476668,34.3066977 C40.8628627,34.8956175 40.3361163,35.4482695 39.7706349,35.959966 C42.5415431,38.470585 46.2164321,40 50.2512849,40 C58.873396,40 65.8629632,33.0109262 65.8629632,24.3883217 C65.8629632,15.7667041 58.873396,8.77615 50.2512849,8.77615" id="Fill-334" fill="#FF9900"></path>
                        <path d="M25.6454424,26.0975953 C25.4675576,26.0773643 25.3891007,26.0709496 25.2669745,26.0709496 C24.3062482,26.0709496 23.8204573,26.4005671 23.8204573,27.0516602 C23.8204573,27.4525796 24.0575548,27.707441 24.4276343,27.707441 C25.1182026,27.707441 25.6158361,27.0501799 25.6454424,26.0975953 L25.6454424,26.0975953 Z M26.8783004,28.9671914 L25.4734788,28.9671914 L25.5057991,28.2998148 C25.0774938,28.8268079 24.5058444,29.078462 23.7294177,29.078462 C22.8111273,29.078462 22.181252,28.3614947 22.181252,27.3195977 C22.181252,25.751201 23.2764405,24.8366113 25.1566908,24.8366113 C25.3493788,24.8366113 25.595605,24.8543751 25.8477525,24.8862019 C25.9000571,24.6735296 25.9138734,24.5832302 25.9138734,24.4685056 C25.9138734,24.0421741 25.6187967,23.8822997 24.8270734,23.8822997 C23.9978487,23.8739113 23.3139419,24.0804156 23.0329282,24.1726888 C23.050692,24.0656124 23.268052,22.7241978 23.268052,22.7241978 C24.1123266,22.4759978 24.6694195,22.3832313 25.2963341,22.3832313 C26.75198,22.3832313 27.5229788,23.0365448 27.5212518,24.2716233 C27.5242124,24.6029678 27.4691939,25.0103019 27.3840757,25.5476573 C27.2370308,26.4802575 26.9212296,28.4804136 26.8783004,28.9671914 L26.8783004,28.9671914 Z" id="Fill-336" fill="#000066"></path>
                        <path d="M21.4719331,28.9671914 L19.7767225,28.9671914 L20.7483044,22.8801246 L18.5798855,28.9671914 L17.4249909,28.9671914 L17.2821403,22.9141719 L16.2617078,28.9671914 L14.6753006,28.9671914 L16.0004318,21.0482313 L18.437775,21.0482313 L18.5850666,25.4807963 L20.0720459,21.0482313 L22.7827545,21.0482313 L21.4719331,28.9671914" id="Fill-337" fill="#000066"></path>
                        <path d="M52.3454412,26.0975953 C52.1675563,26.0773643 52.0900864,26.0709496 51.9682069,26.0709496 C51.0067405,26.0709496 50.5214429,26.4005671 50.5214429,27.0516602 C50.5214429,27.4525796 50.7575536,27.707441 51.12862,27.707441 C51.8186948,27.707441 52.316575,27.0501799 52.3454412,26.0975953 L52.3454412,26.0975953 Z M53.5790394,28.9671914 L52.1747112,28.9671914 L52.206538,28.2998148 C51.7782328,28.8268079 51.2068301,29.078462 50.4308968,29.078462 C49.5113728,29.078462 48.8822377,28.3614947 48.8822377,27.3195977 C48.8822377,25.751201 49.9779196,24.8366113 51.8576765,24.8366113 C52.0501178,24.8366113 52.2958506,24.8543751 52.5482447,24.8862019 C52.600796,24.6735296 52.6143656,24.5832302 52.6143656,24.4685056 C52.6143656,24.0421741 52.3192889,23.8822997 51.5275656,23.8822997 C50.6983409,23.8739113 50.0146808,24.0804156 49.7326803,24.1726888 C49.751431,24.0656124 49.9692844,22.7241978 49.9692844,22.7241978 C50.8130656,22.4759978 51.3706519,22.3832313 51.9965796,22.3832313 C53.4532124,22.3832313 54.2232243,23.0365448 54.221744,24.2716233 C54.2247047,24.6029678 54.1701796,25.0103019 54.0845679,25.5476573 C53.9380164,26.4802575 53.6214751,28.4804136 53.5790394,28.9671914 L53.5790394,28.9671914 Z" id="Fill-338" fill="#000066"></path>
                        <path d="M34.4106508,28.8692437 C33.9465712,29.0153017 33.585127,29.078462 33.1928427,29.078462 C32.3266101,29.078462 31.8536486,28.5805817 31.8536486,27.6635249 C31.8415593,27.3788104 31.978242,26.6300163 32.0858117,25.9470964 C32.1840061,25.3453472 32.8210362,21.5522795 32.8210362,21.5522795 L34.5053912,21.5522795 L34.3087556,22.5270688 L35.3264741,22.5270688 L35.0967781,24.0749878 L34.0756056,24.0749878 C33.8799569,25.2994573 33.600917,26.8251715 33.5977097,27.0274816 C33.5977097,27.3595663 33.7748543,27.5046374 34.178241,27.5046374 C34.3714224,27.5046374 34.5209345,27.4848998 34.6351657,27.4439444 L34.4106508,28.8692437" id="Fill-339" fill="#000066"></path>
                        <path d="M39.5759731,28.8171859 C38.9971688,28.9940838 38.4393357,29.0804357 37.8474553,29.078462 C35.9612837,29.0759948 34.978106,28.0915834 34.978106,26.2054118 C34.978106,24.0041792 36.2287278,22.3832313 37.9268991,22.3832313 C39.3156839,22.3832313 40.2031344,23.2906661 40.2031344,24.7132515 C40.2031344,25.186213 40.1424414,25.6470853 39.9951498,26.2974382 L36.6402562,26.2974382 C36.5270119,27.2317655 37.1245668,27.6208424 38.1052774,27.6208424 C38.70752,27.6208424 39.2517835,27.4964957 39.8564933,27.2159754 L39.5759731,28.8171859 L39.5759731,28.8171859 Z M38.6290631,24.9994463 C38.6386852,24.8649841 38.8074414,23.8497328 37.8444947,23.8497328 C37.3086197,23.8497328 36.9244772,24.2587939 36.7687971,24.9994463 L38.6290631,24.9994463 L38.6290631,24.9994463 Z" id="Fill-340" fill="#000066"></path>
                        <path d="M27.8947853,24.5632459 C27.8947853,25.377174 28.2895367,25.9389546 29.185129,26.3610919 C29.8712563,26.6840479 29.9780859,26.7795284 29.9780859,27.0718912 C29.9780859,27.4728106 29.6751142,27.6548897 29.0047769,27.6548897 C28.498755,27.6548897 28.0285074,27.575446 27.4859709,27.4000283 C27.4859709,27.4000283 27.2636765,28.8201465 27.2530675,28.8879944 C27.6381969,28.9713856 27.9816306,29.0491023 29.0168662,29.078462 C30.8050901,29.078462 31.6311074,28.3975158 31.6311074,26.9258332 C31.6311074,26.0410965 31.2857,25.5217517 30.436491,25.1309478 C29.7261852,24.8050312 29.6440275,24.7320022 29.6440275,24.4314977 C29.6440275,24.0833763 29.9260281,23.9054914 30.4734989,23.9054914 C30.8063237,23.9054914 31.2605346,23.941019 31.6915538,24.0019588 L31.9325988,22.5083181 C31.4939313,22.4384965 30.8282818,22.3832313 30.4409319,22.3832313 C28.5451383,22.3832313 27.8886173,23.3733171 27.8947853,24.5632459" id="Fill-341" fill="#000066"></path>
                        <path d="M47.8191228,22.5532211 C48.2898639,22.5532211 48.7295182,22.675594 49.3337346,22.9807862 L49.6112942,21.2621372 C49.3621074,21.1644363 48.4884732,20.5918 47.7483143,20.5918 C46.6143908,20.5918 45.6546514,21.1553076 44.9808601,22.0832202 C43.9969422,21.7575503 43.5920753,22.4157982 43.0966623,23.0720725 L42.6562677,23.1747078 C42.6895749,22.9588282 42.7199214,22.7444288 42.7102993,22.5270688 L41.153005,22.5270688 C40.9408261,24.5208102 40.5640852,26.5394702 40.2692553,28.5339517 L40.192032,28.9671914 L41.8877361,28.9671914 C42.1707235,27.1281433 42.3254167,25.9510439 42.4196636,25.153646 L43.058174,24.7998501 C43.154148,24.4443271 43.4519386,24.3249148 44.0509738,24.3394712 C43.9727637,24.759388 43.9303279,25.2017564 43.9303279,25.6594213 C43.9303279,27.7666537 45.0686923,29.078462 46.8924439,29.078462 C47.3624448,29.078462 47.7660781,29.0167821 48.3910189,28.8465455 L48.6880693,27.0420381 C48.126042,27.3181174 47.6659099,27.4481386 47.248707,27.4481386 C46.2633088,27.4481386 45.6669874,26.7205624 45.6669874,25.5187911 C45.6669874,23.77473 46.5532044,22.5532211 47.8191228,22.5532211" id="Fill-342" fill="#000066"></path>
                        <path d="M62.1688301,21.0482313 L61.7920893,23.3360625 C61.32949,22.7264183 60.8316097,22.2847901 60.1743486,22.2847901 C59.3192184,22.2847901 58.5408179,22.9331693 58.0310952,23.8879743 C57.3212828,23.7406827 56.5877853,23.4902623 56.5877853,23.4902623 L56.5872919,23.4964302 C56.6437907,22.9627757 56.6677225,22.6380926 56.6620479,22.5270688 L55.1050003,22.5270688 C54.8935616,24.5208102 54.5163273,26.5394702 54.221744,28.5339517 L54.1437806,28.9671914 L55.8399781,28.9671914 C56.0689339,27.4809523 56.2438581,26.2453804 56.3728925,25.2668903 C56.9526836,24.7428578 57.2428259,24.2871667 57.8273047,24.316773 C57.5680024,24.9439343 57.4167633,25.665836 57.4167633,26.4064883 C57.4167633,28.0158405 58.2304446,29.078462 59.4630559,29.078462 C60.084296,29.078462 60.5609583,28.8640626 61.0257781,28.3676627 L60.9458409,28.966698 L62.5495185,28.966698 L63.8406024,21.0482313 L62.1688301,21.0482313 L62.1688301,21.0482313 Z M60.0492618,27.479472 C59.4724313,27.479472 59.1803152,27.0516602 59.1803152,26.2098528 C59.1803152,24.9439343 59.7263058,24.046615 60.4948374,24.046615 C61.0773425,24.046615 61.3931436,24.4897235 61.3931436,25.3078458 C61.3931436,26.5846199 60.8380244,27.479472 60.0492618,27.479472 L60.0492618,27.479472 Z" id="Fill-343" fill="#000066"></path>
                        <path d="M21.9594511,28.4971905 L20.2647339,28.4971905 L21.2360691,22.4101237 L19.0681437,28.4971905 L17.9127556,28.4971905 L17.7701517,22.4454046 L16.7494726,28.4971905 L15.1630653,28.4971905 L16.4881965,20.5789706 L18.9255397,20.5789706 L18.9936344,25.4807963 L20.6382674,20.5789706 L23.2705192,20.5789706 L21.9594511,28.4971905" id="Fill-344" fill="#FFFFFF"></path>
                        <path d="M26.1332071,25.6285813 C25.955569,25.6078569 25.8771121,25.6021823 25.7549859,25.6021823 C24.7942597,25.6021823 24.308222,25.9313063 24.308222,26.581906 C24.308222,26.982332 24.5455663,27.2386737 24.9158925,27.2386737 C25.606214,27.2386737 26.1038475,26.5814125 26.1332071,25.6285813 L26.1332071,25.6285813 Z M27.3658184,28.4971905 L25.961737,28.4971905 L25.9938105,27.8303073 C25.5655052,28.3570538 24.9938559,28.6089545 24.2174292,28.6089545 C23.298892,28.6089545 22.6692635,27.8910004 22.6692635,26.8493501 C22.6692635,25.2807066 23.7646986,24.3673505 25.644949,24.3673505 C25.8371436,24.3673505 26.0833698,24.3848676 26.3357639,24.4174346 C26.3880685,24.2042689 26.4018848,24.1137228 26.4018848,23.9985047 C26.4018848,23.5724199 26.1068081,23.4137792 25.3150848,23.4137792 C24.4856134,23.4039104 23.8019533,23.6104147 23.5206929,23.7024411 C23.5387035,23.5958583 23.7558167,22.2544436 23.7558167,22.2544436 C24.600338,22.0067371 25.157431,21.9132304 25.7843456,21.9132304 C27.2397447,21.9132304 28.0104968,22.5672841 28.0092632,23.8018691 C28.0119771,24.1327202 27.9574521,24.5420281 27.8720871,25.0779031 C27.7247955,26.0097632 27.4089944,28.0111528 27.3658184,28.4971905 L27.3658184,28.4971905 Z" id="Fill-345" fill="#FFFFFF"></path>
                        <path d="M50.0988122,20.7921363 L49.8212526,22.5105386 C49.2160494,22.2063333 48.7776286,22.0832202 48.307381,22.0832202 C47.0419559,22.0832202 46.1542587,23.3062094 46.1542587,25.0505172 C46.1542587,26.2522886 46.7508268,26.9783844 47.736225,26.9783844 C48.1536746,26.9783844 48.6147936,26.8493501 49.1755873,26.5722839 L48.8777967,28.3767913 C48.2538428,28.5467811 47.8499627,28.6089545 47.3802086,28.6089545 C45.5552234,28.6089545 44.4185861,27.2968995 44.4185861,25.1901605 C44.4185861,22.3592994 45.9899434,20.3808547 48.236079,20.3808547 C48.9762379,20.3808547 49.8503655,20.6944354 50.0988122,20.7921363" id="Fill-346" fill="#FFFFFF"></path>
                        <path d="M52.8329592,25.6285813 C52.6563079,25.6078569 52.5776044,25.6021823 52.4557249,25.6021823 C51.4954921,25.6021823 51.0092077,25.9313063 51.0092077,26.581906 C51.0092077,26.982332 51.2463052,27.2386737 51.6163847,27.2386737 C52.3064595,27.2386737 52.8045864,26.5814125 52.8329592,25.6285813 L52.8329592,25.6285813 Z M54.0665574,28.4971905 L52.6624759,28.4971905 L52.6943028,27.8303073 C52.2659975,28.3570538 51.6943481,28.6089545 50.9186616,28.6089545 C49.9991375,28.6089545 49.3702491,27.8910004 49.3702491,26.8493501 C49.3702491,25.2807066 50.4646974,24.3673505 52.3454412,24.3673505 C52.5376358,24.3673505 52.7833686,24.3848676 53.035516,24.4174346 C53.0880673,24.2042689 53.1018836,24.1137228 53.1018836,23.9985047 C53.1018836,23.5724199 52.8075471,23.4137792 52.0153303,23.4137792 C51.1865991,23.4039104 50.5031857,23.6104147 50.2214319,23.7024411 C50.2391957,23.5958583 50.4565557,22.2544436 50.4565557,22.2544436 C51.301077,22.0067371 51.8576765,21.9132304 52.4845911,21.9132304 C53.9399902,21.9132304 54.7114825,22.5672841 54.7095087,23.8018691 C54.7129628,24.1327202 54.6579443,24.5420281 54.5725793,25.0779031 C54.4257812,26.0097632 54.10998,28.0111528 54.0665574,28.4971905 L54.0665574,28.4971905 Z" id="Fill-347" fill="#FFFFFF"></path>
                        <path d="M34.8981688,28.3994895 C34.4345827,28.5455476 34.0726449,28.6089545 33.6808542,28.6089545 C32.8143748,28.6089545 32.3411666,28.1108276 32.3411666,27.1947576 C32.329324,26.9090562 32.4662534,26.1614957 32.5740699,25.4778356 C32.6715241,24.875593 33.308801,21.0830188 33.308801,21.0830188 L34.9936493,21.0830188 L34.7965204,22.0575613 L35.6615194,22.0575613 L35.4310833,23.6049869 L34.5633703,23.6049869 C34.3677216,24.83069 34.0886817,26.3554174 34.0852276,26.5577275 C34.0852276,26.890799 34.2631125,27.0348832 34.6660057,27.0348832 C34.8591871,27.0348832 35.0084525,27.0158858 35.1231771,26.9739435 L34.8981688,28.3994895" id="Fill-348" fill="#FFFFFF"></path>
                        <path d="M40.064478,28.3484186 C39.485427,28.52581 38.9263603,28.6094479 38.3352201,28.6089545 C36.4488017,28.6077209 35.4663642,27.622076 35.4663642,25.7361511 C35.4663642,23.5341783 36.7167393,21.9132304 38.4136769,21.9132304 C39.803942,21.9132304 40.6908991,22.8206652 40.6908991,24.2449776 C40.6908991,24.7169523 40.6292192,25.1775778 40.4836546,25.8281775 L37.1282676,25.8281775 C37.0145299,26.7625048 37.612825,27.1523218 38.5925486,27.1523218 C39.1952847,27.1523218 39.7393015,27.0274816 40.3447515,26.7462213 L40.064478,28.3484186 L40.064478,28.3484186 Z M39.1173213,24.5294453 C39.1264499,24.3947364 39.2959463,23.3799786 38.3332463,23.3799786 C37.7968778,23.3799786 37.4127354,23.7897799 37.2565618,24.5294453 L39.1173213,24.5294453 L39.1173213,24.5294453 Z" id="Fill-349" fill="#FFFFFF"></path>
                        <path d="M28.3823033,24.093245 C28.3823033,24.9086534 28.7775482,25.4692004 29.6733872,25.8918312 C30.3595145,26.2145404 30.4658506,26.3100209 30.4658506,26.6026304 C30.4658506,27.0040433 30.1631256,27.1851355 29.4922949,27.1851355 C28.9867664,27.1851355 28.5162721,27.1066786 27.9734889,26.9317544 C27.9734889,26.9317544 27.7514412,28.3508858 27.741079,28.4177468 C28.1259616,28.5021249 28.4696421,28.5791014 29.5043842,28.6089545 C31.2931016,28.6089545 32.1191189,27.928255 32.1191189,26.4565724 C32.1191189,25.5713424 31.773218,25.0522443 30.9242557,24.6624272 C30.2137032,24.3355237 30.132039,24.2632349 30.132039,23.9622369 C30.132039,23.6141155 30.4137928,23.4349971 30.9617571,23.4349971 C31.2938417,23.4349971 31.748546,23.472005 32.1793185,23.532698 L32.4206103,22.0393041 C31.981696,21.9699759 31.3165399,21.9132304 30.9289434,21.9132304 C29.0326563,21.9132304 28.3766288,22.903563 28.3823033,24.093245" id="Fill-350" fill="#FFFFFF"></path>
                        <path d="M63.0372833,28.4971905 L61.4340991,28.4971905 L61.5135428,27.8979085 C61.0484763,28.3945551 60.5720607,28.6089545 59.9508206,28.6089545 C58.7191962,28.6089545 57.9042813,27.5475666 57.9042813,25.9364874 C57.9042813,23.7944676 59.1677325,21.9889733 60.6621133,21.9889733 C61.3193744,21.9889733 61.817008,22.2574042 62.2805941,22.8672952 L62.6565949,20.5789706 L64.3281204,20.5789706 L63.0372833,28.4971905 L63.0372833,28.4971905 Z M60.5367798,27.0092244 C61.3265293,27.0092244 61.8806616,26.1148657 61.8806616,24.8393252 C61.8806616,24.0209562 61.5651072,23.5763674 60.9826021,23.5763674 C60.2138238,23.5763674 59.6680799,24.4739334 59.6680799,25.7403453 C59.6680799,26.5831396 59.9604427,27.0092244 60.5367798,27.0092244 L60.5367798,27.0092244 Z" id="Fill-351" fill="#FFFFFF"></path>
                        <path d="M55.5932585,22.0575613 C55.3813263,24.0508093 55.0043387,26.0694693 54.7095087,28.0641975 L54.6322855,28.4971905 L56.3274961,28.4971905 C56.933933,24.5590517 57.0797443,23.79052 58.0310952,23.886494 C58.1823343,23.0804609 58.4643348,22.3745961 58.6742933,22.0188264 C57.9644809,21.8707946 57.5680024,22.2719607 57.0484109,23.0343244 C57.0898598,22.7044602 57.1646158,22.3844649 57.1505528,22.0575613 L55.5932585,22.0575613" id="Fill-352" fill="#FFFFFF"></path>
                        <path d="M41.6415099,22.0575613 C41.4285908,24.0508093 41.0511098,26.0694693 40.7567733,28.0641975 L40.6797967,28.4971905 L42.3755008,28.4971905 C42.9821844,24.5590517 43.1275022,23.79052 44.0773728,23.886494 C44.2295988,23.0804609 44.5120928,22.3745961 44.7215578,22.0188264 C44.0124856,21.8707946 43.615267,22.2719607 43.0966623,23.0343244 C43.1376177,22.7044602 43.2128672,22.3844649 43.1980641,22.0575613 L41.6415099,22.0575613" id="Fill-353" fill="#FFFFFF"></path>
                    </g>
                </g>
            </g>
        </g>
    </g>
</svg>