<?xml version="1.0" encoding="UTF-8" standalone="no"?>
<svg width="40px" height="46px" viewBox="0 0 40 46" version="1.1" xmlns="http://www.w3.org/2000/svg" xmlns:xlink="http://www.w3.org/1999/xlink" xmlns:sketch="http://www.bohemiancoding.com/sketch/ns">
    <!-- Generator: Sketch 3.4 (15575) - http://www.bohemiancoding.com/sketch -->
    <title>Fill 220</title>
    <desc>Created with Sketch.</desc>
    <defs></defs>
    <g id="Page-1" stroke="none" stroke-width="1" fill="none" fill-rule="evenodd" sketch:type="MSPage">
        <g id="Group" sketch:type="MSLayerGroup" transform="translate(-680.000000, -537.000000)" fill="#90CFD8">
            <g id="banner" transform="translate(0.000000, 505.000000)" sketch:type="MSShapeGroup">
                <path d="M712.857143,43.4285714 C711.335714,43.4285714 710,40.6642857 710,39.18 L710,34.9014286 L710,34.8985714 L717.142857,43.4285714 L712.857143,43.4285714 L712.857143,43.4285714 Z M717.142857,66.2857143 C717.142857,67.7414286 715.785714,69.1428571 714.285714,69.1428571 L692.857143,69.1428571 C691.357143,69.1428571 690,67.7414286 690,66.2857143 L690,37.7142857 C690,36.2585714 691.357143,34.8571429 692.857143,34.8571429 L707.142857,34.8571429 C707.12,38.1485714 707.142857,40.6071429 707.142857,40.6071429 C707.142857,43.5757143 709.814286,46.2857143 712.857143,46.2857143 L717.142857,46.2857143 L717.142857,66.2857143 L717.142857,66.2857143 Z M707.142857,74.8571429 L685.714286,74.8571429 C684.214286,74.8571429 682.857143,73.4557143 682.857143,72 L682.857143,43.4285714 C682.857143,41.9728571 684.078571,40.6171429 685.578571,40.6171429 L687.142857,40.5714286 L687.142857,66.2857143 C687.142857,69.2271429 689.834286,72 692.857143,72 L710,72 C710,73.4557143 708.641429,74.8571429 707.142857,74.8571429 L707.142857,74.8571429 Z M710,32 L692.857143,32 C689.834286,32 687.142857,34.7728571 687.142857,37.7142857 L685.492857,37.7528571 C682.47,37.7528571 680,40.4871429 680,43.4285714 L680,72 C680,74.9414286 682.691429,77.7142857 685.714286,77.7142857 L707.142857,77.7142857 C710.165714,77.7142857 712.857143,74.9414286 712.857143,72 L714.285714,72 C717.308571,72 720,69.2271429 720,66.2857143 L720,43.4614286 L710,32 L710,32 Z M710,52.0257143 L697.142857,52.0257143 C696.354286,52.0257143 695.714286,52.6642857 695.714286,53.4528571 C695.714286,54.24 696.354286,54.88 697.142857,54.88 L710,54.88 C710.788571,54.88 711.428571,54.24 711.428571,53.4528571 C711.428571,52.6642857 710.788571,52.0257143 710,52.0257143 L710,52.0257143 Z M710,59.1614286 L697.142857,59.1614286 C696.354286,59.1614286 695.714286,59.8 695.714286,60.5885714 C695.714286,61.3757143 696.354286,62.0157143 697.142857,62.0157143 L710,62.0157143 C710.788571,62.0157143 711.428571,61.3757143 711.428571,60.5885714 C711.428571,59.8 710.788571,59.1614286 710,59.1614286 L710,59.1614286 Z" id="Fill-220"></path>
            </g>
        </g>
    </g>
</svg>