<?xml version="1.0" encoding="UTF-8" standalone="no"?>
<svg width="40px" height="38px" viewBox="0 0 40 38" version="1.1" xmlns="http://www.w3.org/2000/svg" xmlns:xlink="http://www.w3.org/1999/xlink" xmlns:sketch="http://www.bohemiancoding.com/sketch/ns">
    <!-- Generator: Sketch 3.4 (15575) - http://www.bohemiancoding.com/sketch -->
    <title>Fill 200</title>
    <desc>Created with Sketch.</desc>
    <defs></defs>
    <g id="Page-1" stroke="none" stroke-width="1" fill="none" fill-rule="evenodd" sketch:type="MSPage">
        <g id="Group" sketch:type="MSLayerGroup" transform="translate(-360.000000, -537.000000)" fill="#90CFD8">
            <g id="banner" transform="translate(0.000000, 505.000000)" sketch:type="MSShapeGroup">
                <path d="M397.5,48.4444444 L362.5,48.4444444 L362.5,42.1196581 C362.5,40.7231453 363.62,39.5897436 365,39.5897436 L395,39.5897436 C396.38,39.5897436 397.5,40.7231453 397.5,42.1196581 L397.5,48.4444444 L397.5,48.4444444 Z M377.5,52.2393162 C377.5,51.7763419 377.63125,51.3487863 377.84625,50.974359 L382.15375,50.974359 C382.36875,51.3487863 382.5,51.7763419 382.5,52.2393162 C382.5,53.6358291 381.38,54.7692308 380,54.7692308 C378.62,54.7692308 377.5,53.6358291 377.5,52.2393162 L377.5,52.2393162 Z M397.5,64.8888889 C397.5,66.2854017 396.38,67.4188034 395,67.4188034 L365,67.4188034 C363.62,67.4188034 362.5,66.2854017 362.5,64.8888889 L362.5,50.974359 L375.1775,50.974359 C375.0725,51.3804103 375,51.7991111 375,52.2393162 C375,55.0336068 377.23875,57.2991453 380,57.2991453 C382.76125,57.2991453 385,55.0336068 385,52.2393162 C385,51.7991111 384.9275,51.3804103 384.8225,50.974359 L397.5,50.974359 L397.5,64.8888889 L397.5,64.8888889 Z M375,35.7948718 C375,35.0966154 375.56,34.5299145 376.25,34.5299145 L383.75,34.5299145 C384.44,34.5299145 385,35.0966154 385,35.7948718 L385,37.0598291 L375,37.0598291 L375,35.7948718 L375,35.7948718 Z M395,37.0598291 L387.5,37.0598291 L387.5,34.5299145 C387.5,33.1334017 386.38,32 385,32 L375,32 C373.62,32 372.5,33.1334017 372.5,34.5299145 L372.5,37.0598291 L365,37.0598291 C362.23875,37.0598291 360,39.3253675 360,42.1196581 L360,64.8888889 C360,67.6831795 362.23875,69.9487179 365,69.9487179 L395,69.9487179 C397.76125,69.9487179 400,67.6831795 400,64.8888889 L400,42.1196581 C400,39.3253675 397.76125,37.0598291 395,37.0598291 L395,37.0598291 Z" id="Fill-200"></path>
            </g>
        </g>
    </g>
</svg>