<?xml version="1.0" encoding="UTF-8" standalone="no"?>
<svg width="30px" height="48px" viewBox="0 0 30 48" version="1.1" xmlns="http://www.w3.org/2000/svg" xmlns:xlink="http://www.w3.org/1999/xlink" xmlns:sketch="http://www.bohemiancoding.com/sketch/ns">
    <!-- Generator: Sketch 3.4 (15575) - http://www.bohemiancoding.com/sketch -->
    <title>Fill 174</title>
    <desc>Created with Sketch.</desc>
    <defs></defs>
    <g id="Page-1" stroke="none" stroke-width="1" fill="none" fill-rule="evenodd" sketch:type="MSPage">
        <g id="Group" sketch:type="MSLayerGroup" transform="translate(-1006.000000, -538.000000)" fill="#90CFD8">
            <g id="banner" transform="translate(0.000000, 505.000000)" sketch:type="MSShapeGroup">
                <path d="M1021,78 C1014.373,78 1009,72.627 1009,66 C1009,59.373 1014.373,54 1021,54 C1027.402,54 1033,59.598 1033,66 C1033,72.627 1027.627,78 1021,78 L1021,78 Z M1012,45 C1012,40.0305 1016.0305,36 1021,36 C1025.9695,36 1030,40.0305 1030,45 L1030,54.021 C1027.4905,52.1325 1024.3825,51 1021,51 C1017.619,51 1014.5095,52.1325 1012,54.021 L1012,45 L1012,45 Z M1033,57.0285 L1033,45 C1033,38.373 1027.627,33 1021,33 C1014.373,33 1009,38.373 1009,45 L1009,57.0285 C1007.125,59.532 1006,62.631 1006,66 C1006,74.2845 1012.717,81 1021,81 C1029.283,81 1036,74.2845 1036,66 C1036,62.631 1034.875,59.532 1033,57.0285 L1033,57.0285 Z M1021,63 C1020.1705,63 1019.5,63.672 1019.5,64.5 L1019.5,70.5 C1019.5,71.3295 1020.1705,72 1021,72 C1021.8295,72 1022.5,71.3295 1022.5,70.5 L1022.5,64.5 C1022.5,63.672 1021.8295,63 1021,63 L1021,63 Z" id="Fill-174"></path>
            </g>
        </g>
    </g>
</svg>