<?xml version="1.0" encoding="UTF-8" standalone="no"?>
<svg width="80px" height="48px" viewBox="0 0 80 48" version="1.1" xmlns="http://www.w3.org/2000/svg" xmlns:xlink="http://www.w3.org/1999/xlink" xmlns:sketch="http://www.bohemiancoding.com/sketch/ns">
    <!-- Generator: Sketch 3.4 (15575) - http://www.bohemiancoding.com/sketch -->
    <title>UnionPay-dark</title>
    <desc>Created with Sketch.</desc>
    <defs></defs>
    <g id="Page-1" stroke="none" stroke-width="1" fill="none" fill-rule="evenodd" sketch:type="MSPage">
        <g id="Group" sketch:type="MSLayerGroup" transform="translate(-878.000000, -2425.000000)">
            <g id="footer" transform="translate(0.000000, 2346.000000)" sketch:type="MSShapeGroup">
                <g id="payment" transform="translate(227.000000, 34.000000)">
                    <g id="UnionPay-dark" transform="translate(651.000000, 45.000000)">
                        <rect id="Rectangle" fill="#FFFFFF" x="0" y="0" width="79.2079208" height="47.5247525" rx="4"></rect>
                        <path d="M54.3207953,2.53262757e-14 C51.8143076,0.079637121 48.749279,2.09855475 48.1910502,4.58804791 L39.7194578,42.929754 C39.1612288,45.4424933 40.6798928,47.487128 43.1229893,47.5247525 L75.2300581,47.5247525 C77.4404679,47.5247525 79.2313708,45.7309904 79.230158,43.5298006 L79.2079208,3.16831683 L79.2079208,3.16831683 C79.2079208,1.41850376 77.4200572,0 76.039604,0 L76.039604,0" id="path22" fill="#01798A"></path>
                        <rect id="Rectangle-19" fill="#DD0228" x="0" y="0" width="35.6435644" height="47.5247525" rx="4"></rect>
                        <path d="M48.3937717,4.59231387 C48.9520007,2.1030678 52.0170254,0.0843507519 54.477969,0.00724220067 L47.3554792,0.00252040569 L30.5625952,0 C28.0947884,0.0516172034 24.9898207,2.08449963 24.4318058,4.59231387 L15.9577174,42.9302105 C15.397428,45.4427002 16.9183081,47.4871317 19.3598645,47.5247525 L43.3257069,47.5247525 C40.8826103,47.4871317 39.3639463,45.4427002 39.9221754,42.9302105 L48.3937717,4.59231387 Z" id="path20" fill="#024381"></path>
                        <path d="M34.8411689,27.861542 L35.1522869,27.861542 C35.4381726,27.861542 35.630506,27.7640847 35.7206697,27.5711095 L36.529086,26.341845 L38.6939903,26.341845 L38.2425477,27.1503601 L40.8382789,27.1503601 L40.5090055,28.3891605 L37.4202809,28.3891605 C37.064543,28.9329122 36.6266388,29.1885461 36.1001073,29.1582493 L34.4912757,29.1582493 L34.8411684,27.861542 L34.8411689,27.861542 Z M34.4857367,29.6370295 L40.1726509,29.6370295 L39.8101399,30.9826991 L37.5230664,30.9826991 L37.1740976,32.2815953 L39.3996244,32.2815953 L39.0371134,33.6271371 L36.8115866,33.6271371 L36.2945929,35.5464833 C36.1665748,35.8673061 36.3349077,36.0115693 36.7968161,35.9788335 L38.6105955,35.9788335 L38.2745493,37.229233 L34.79224,37.229233 C34.1321495,37.229233 33.9057199,36.8455952 34.112764,36.0765406 L34.773773,33.6271371 L33.3511837,33.6271371 L33.7125564,32.2815953 L35.1353599,32.2815953 L35.4840244,30.9826991 L34.1241501,30.9826991 L34.485737,29.6370295 L34.4857367,29.6370295 Z M43.5626441,26.3326827 L43.4730927,27.120437 C43.4730927,27.120437 44.5458511,26.3021358 45.5201362,26.3021358 L49.1203099,26.3021358 L47.7435106,31.3658349 C47.629339,31.9447306 47.1397378,32.2326003 46.2750035,32.2326003 L42.1944583,32.2326003 L41.2386401,35.788293 C41.1835546,35.9788295 41.2614122,36.0765366 41.4672839,36.0765366 L42.2701595,36.0765366 L41.9750441,37.180238 L39.9338492,37.180238 C39.150361,37.180238 38.8244685,36.940863 38.9537188,36.4600181 L41.6546923,26.3326827 L43.5626399,26.3326827 L43.5626436,26.3326827 L43.5626441,26.3326827 Z M46.6113579,27.7640847 L43.3980037,27.7640847 L43.0136448,29.1304218 C43.0136448,29.1304218 43.5487939,28.7378739 44.4430691,28.7238341 C45.3348802,28.7096399 46.352861,28.7238341 46.352861,28.7238341 L46.6113579,27.7640847 L46.6113579,27.7640847 Z M45.4472034,30.9337043 C45.6847727,30.9664401 45.817712,30.8709219 45.8337147,30.6454912 L46.0303569,29.9252426 L42.8120814,29.9252426 L42.5421986,30.9337043 L45.4472034,30.9337043 L45.4472034,30.9337043 Z M43.2764502,32.5697131 L45.1314686,32.5697131 L45.0970027,33.3852929 L45.5909127,33.3852929 C45.8404841,33.3852929 45.9641937,33.3040969 45.9641937,33.1438572 L46.1103671,32.6162386 L47.652111,32.6162386 L47.4462391,33.3852929 C47.2720609,34.0267518 46.8104607,34.3613948 46.0602063,34.3941306 L45.0720746,34.3941306 L45.0674578,35.7882932 C45.0493025,36.0115655 45.2480971,36.1253753 45.6573841,36.1253753 L46.5861255,36.1253753 L46.2863896,37.2292332 L44.0587102,37.2292332 C43.4343177,37.2594042 43.1281244,36.9571228 43.1345856,36.315912 L43.2764502,32.5697134 L43.2764502,32.5697131 Z" id="path24" fill="#FFFFFF"></path>
                        <path d="M20.7978443,19.5863885 C20.5462407,20.8389786 19.9629951,21.801043 19.058288,22.484241 C18.1617991,23.1558726 17.0054903,23.4927048 15.5898242,23.4927048 C14.2575537,23.4927048 13.2808389,23.1487757 12.6575548,22.4586027 C12.2252816,21.9682235 12.0102382,21.3454607 12.0102382,20.592507 C12.0102382,20.2811876 12.0469195,19.9465446 12.1201293,19.5863887 L13.6284854,12.1966632 L15.9065743,12.1966632 L14.4187447,19.5027192 C14.3729537,19.70495 14.3546746,19.8931738 14.3570749,20.0628234 C14.3546746,20.4370493 14.4461325,20.7437105 14.6313886,20.9829594 C14.9012706,21.3386134 15.3392987,21.515112 15.9488566,21.515112 C16.6498124,21.515112 17.2273969,21.3409586 17.6756728,20.9899323 C18.1240407,20.6413755 18.4167565,20.1464925 18.5482505,19.5027189 L20.0407589,12.1966629 L22.3073068,12.1966629 L20.7978443,19.5863885" id="path28" fill="#FFFFFF"></path>
                        <path d="M30.3650929,16.6792173 L32.149239,16.6792173 L30.7516982,23.2743406 L28.9710608,23.2743406 L30.3650929,16.6792173 M30.9267065,14.2764967 L32.7267314,14.2764967 L32.3905028,15.8773317 L30.5906,15.8773317 L30.9267065,14.2764967" id="path34" fill="#FFFFFF"></path>
                        <path d="M33.7285275,22.7723606 C33.2618804,22.3192494 33.0262795,21.7080875 33.024003,20.931934 C33.024003,20.7993958 33.0319422,20.6484421 33.0492374,20.4833246 C33.0664384,20.3159877 33.0881962,20.1533093 33.1189695,20.0023556 C33.3305363,18.9311095 33.7811807,18.0805727 34.4752733,17.4530581 C35.1682896,16.8233241 36.0044029,16.507253 36.9833011,16.507253 C37.7849483,16.507253 38.420723,16.7350289 38.886324,17.1904854 C39.3516167,17.6483483 39.5848812,18.2663575 39.5848812,19.0520487 C39.5848812,19.1866173 39.5747235,19.3423554 39.5574924,19.5096615 C39.536873,19.6793114 39.5119483,19.8419899 39.4830197,20.0023554 C39.2762238,21.0573426 38.8269336,21.8986238 38.1326849,22.5145396 C37.4384402,23.1349875 36.6047875,23.4438356 35.6326584,23.4438356 C34.8276303,23.4438356 34.1940044,23.2208439 33.7285275,22.7723604 M37.1285503,21.4663671 C37.4430569,21.1201251 37.6683161,20.5948195 37.805564,19.8954862 C37.8261834,19.7863041 37.8443387,19.6723705 37.8557248,19.5585302 C37.8671107,19.4469093 37.8717274,19.3423551 37.8717274,19.2470868 C37.8717274,18.8403752 37.7698696,18.5244279 37.5652261,18.3012817 C37.3618148,18.0758205 37.0725446,17.9644192 36.6986477,17.9644192 C36.2044297,17.9644192 35.8019118,18.1407921 35.486485,18.4941311 C35.1682896,18.8474721 34.9430304,19.3819072 34.8011621,20.0929959 C34.7817746,20.202178 34.7657757,20.3114839 34.7510013,20.4183531 C34.7396154,20.5275352 34.7362305,20.6297764 34.7383869,20.7226993 C34.7383869,21.1270982 34.8402447,21.4385414 35.0448882,21.6592183 C35.2482995,21.8800519 35.5363376,21.9892337 35.9151595,21.9892337 C36.4115338,21.9892337 36.8140477,21.8149545 37.1285503,21.4663669" id="path36" fill="#FFFFFF"></path>
                        <path id="path14" fill="#E02F41" d="M54.4905673,0.122948848 L47.3271465,0.112561126 L54.44964,0.134824096 C54.4631785,0.134824096 54.4767208,0.122950036 54.4905673,0.122950036"></path>
                        <path id="path18" fill="#2E4F7D" d="M47.3271465,0.138348056 L34.5931357,0.105679541 C34.5611322,0.105679541 34.5278965,0.116067264 34.4946605,0.126473997 L47.3271465,0.138349244"></path>
                        <path d="M51.1605846,27.9173838 L51.5907955,26.3790821 L53.7658574,26.3790821 L53.6719972,26.9435946 C53.6719972,26.9435946 54.7835303,26.3790821 55.5839456,26.3790821 L58.2735369,26.3790821 L57.8460946,27.9173838 L57.4229611,27.9173838 L55.3940725,35.1725053 L55.8172061,35.1725053 L55.4146919,36.6133192 L54.9915584,36.6133192 L54.8155358,37.238393 L52.709098,37.238393 L52.8848162,36.6133192 L48.7291821,36.6133192 L49.1341604,35.1725053 L49.5505248,35.1725053 L51.5812577,27.9173838 L51.1605848,27.9173838 L51.1605846,27.9173838 Z M53.5073606,27.9173838 L52.9537483,29.880906 C52.9537483,29.880906 53.9009529,29.5115884 54.7173669,29.4070339 C54.8977019,28.7213645 55.133423,27.9173836 55.133423,27.9173836 L53.5073603,27.9173836 L53.5073606,27.9173838 Z M52.6974078,30.8013226 L52.1419474,32.8579263 C52.1419474,32.8579263 53.1916258,32.3327465 53.9120308,32.2885342 C54.1200589,31.4936847 54.3283952,30.8013229 54.3283952,30.8013229 L52.6974078,30.8013229 L52.6974078,30.8013226 Z M53.1045387,35.1725053 L53.5208991,33.6806355 L51.8973007,33.6806355 L51.4787803,35.1725053 L53.1045387,35.1725053 L53.1045387,35.1725053 Z M58.365241,26.2838445 L60.4101284,26.2838445 L60.4969115,27.0504638 C60.4833693,27.2456282 60.5975408,27.3388315 60.8400351,27.3388315 L61.2013139,27.3388315 L60.8357263,28.6377277 L59.332757,28.6377277 C58.7588333,28.6678987 58.4637142,28.4450024 58.4363291,27.9637832 L58.365241,26.2838445 L58.365241,26.2838445 Z M57.7660849,29.0700782 L64.38974,29.0700782 L64.0010723,30.4644602 L61.8921739,30.4644602 L61.530587,31.7609156 L63.6373329,31.7609156 L63.2462011,33.1530172 L60.8997334,33.1530172 L60.3688931,33.9688794 L61.5173567,33.9688794 L61.7826227,35.6024167 C61.8143163,35.7650952 61.9561849,35.8441046 62.1986789,35.8441046 L62.555341,35.8441046 L62.1805199,37.1893982 L60.9178924,37.1893982 C60.2636508,37.222134 59.9254519,36.9990181 59.8977552,36.5180511 L59.5934063,35.0261776 L58.5483446,36.6133194 C58.3012336,37.0617723 57.9214878,37.2710067 57.4094228,37.2383932 L55.4811638,37.2383932 L55.8562892,35.8927254 L56.4579096,35.8927254 C56.7050206,35.8927254 56.9105843,35.781198 57.0958406,35.5558609 L58.7314448,33.1530172 L56.6225463,33.1530172 L57.01337,31.7609156 L59.3007517,31.7609156 L59.664491,30.4644602 L57.3749569,30.4644602 L57.7660849,29.0700782 L57.7660849,29.0700782 Z" id="path26" fill="#FFFFFF"></path>
                        <path d="M22.8963091,16.6769044 L24.5052929,16.6769044 L24.3212688,17.6296501 L24.5521929,17.3577895 C25.0737697,16.7908382 25.7072698,16.5095675 26.4552158,16.5095675 C27.1322294,16.5095675 27.6205104,16.7095159 27.9270434,17.1114435 C28.2288679,17.5135274 28.3112182,18.0689734 28.1684293,18.7823767 L27.2820033,23.2766553 L25.628398,23.2766553 L26.428873,19.2030023 C26.5113473,18.782377 26.4885133,18.4686186 26.3613273,18.2663572 C26.2357095,18.0642217 25.9953997,17.9644192 25.6489536,17.9644192 C25.2235435,17.9644192 24.8655574,18.0990203 24.5739487,18.3663791 C24.2811098,18.6359247 24.0879462,19.0101509 23.9929797,19.4864617 L23.2553716,23.2766553 L21.5983196,23.2766553 L22.8963091,16.6769044" id="path30" fill="#FFFFFF"></path>
                        <path d="M41.3481955,16.6769044 L42.9585635,16.6769044 L42.7757715,17.6296501 L43.004111,17.3577895 C43.5260258,16.7908382 44.1618041,16.5095675 44.9074418,16.5095675 C45.5844555,16.5095675 46.0737524,16.7095159 46.3777894,17.1114435 C46.6778296,17.5135274 46.7646126,18.0689734 46.618131,18.7823767 L45.7352417,23.2766553 L44.0793298,23.2766553 L44.8800528,19.2030023 C44.9622152,18.782377 44.9394432,18.4686186 44.8135814,18.2663572 C44.6831026,18.0642217 44.4473778,17.9644192 44.1024098,17.9644192 C43.6768157,17.9644192 43.3201501,18.0990203 43.0250347,18.3663791 C42.7320719,18.6359247 42.5378938,19.0101509 42.4464943,19.4864617 L41.7054733,23.2766553 L40.0504817,23.2766553 L41.348195,16.6769044" id="path32" fill="#FFFFFF"></path>
                        <path d="M49.3080268,12.5868654 L53.983115,12.5868654 C54.8820033,12.5868654 55.5771722,12.793848 56.0550833,13.2003097 C56.530838,13.611775 56.7690235,14.2020827 56.7690235,14.9712335 L56.7690235,14.9943703 C56.7690235,15.1406973 56.7594857,15.3057813 56.7459435,15.4846274 C56.7228635,15.6612799 56.6930143,15.8401231 56.6545476,16.0261577 C56.4486757,17.0440313 55.9704566,17.8620824 55.2318963,18.4825306 C54.4905673,19.100635 53.612603,19.4120785 52.6016992,19.4120785 L50.0945916,19.4120785 L49.3194127,23.2766535 L47.1486596,23.2766535 L49.3080266,12.5868657 M50.4764896,17.5530782 L52.5558469,17.5530782 C53.0977651,17.5530782 53.527668,17.4250743 53.8412465,17.1719117 C54.1523682,16.9162778 54.3582402,16.5259493 54.4724081,15.9961436 C54.4905671,15.8982799 54.5019529,15.8101087 54.5157995,15.7288153 C54.5228769,15.6522134 54.5318021,15.5752986 54.5318021,15.5011958 C54.5318021,15.1222487 54.3994752,14.8480456 54.133901,14.676081 C53.868635,14.5016127 53.4525823,14.4181342 52.8758863,14.4181342 L51.1101114,14.4181342 L50.4764891,17.5530782" id="path38" fill="#FFFFFF"></path>
                        <path d="M66.4847875,24.5525693 C65.7985404,26.0350594 65.1446067,26.8993861 64.7605559,27.3014395 C64.375889,27.6989893 63.6145566,28.6239095 61.7801579,28.5540604 L61.9380254,27.4224705 C63.4816175,26.939093 64.3164987,24.7614281 64.7922534,23.7971769 L64.2250989,16.6954766 L65.4191062,16.6792193 L66.4207765,16.6792193 L66.5284832,21.1340696 L68.4059654,16.6792193 L70.3068356,16.6792193 L66.4847873,24.5525693" id="path40" fill="#FFFFFF"></path>
                        <path d="M61.1696159,17.2159979 L60.4144367,17.7436165 C59.6254076,17.116228 58.9050025,16.728088 57.5146647,17.3833348 C55.6205636,18.2756433 54.0378923,25.1195208 59.2527428,22.865316 L59.5500144,23.2231589 L61.601671,23.2766555 L62.9489291,17.0579473 L61.1696159,17.2159982 M60.0029973,20.6158307 C59.673416,21.6035333 58.937316,22.2564672 58.360932,22.0705888 C57.7845477,21.8893382 57.5786722,20.9364361 57.9125621,19.9465443 C58.2418391,18.9565304 58.9828601,18.3059098 59.5546274,18.4918187 C60.1310154,18.6730693 60.3390435,19.625815 60.0029973,20.6158307" id="path42" fill="#FFFFFF"></path>
                    </g>
                </g>
            </g>
        </g>
    </g>
</svg>