<?xml version="1.0" encoding="UTF-8" standalone="no"?>
<svg width="80px" height="48px" viewBox="0 0 80 48" version="1.1" xmlns="http://www.w3.org/2000/svg" xmlns:xlink="http://www.w3.org/1999/xlink" xmlns:sketch="http://www.bohemiancoding.com/sketch/ns">
    <!-- Generator: Sketch 3.4 (15575) - http://www.bohemiancoding.com/sketch -->
    <title>Visa-dark</title>
    <desc>Created with Sketch.</desc>
    <defs></defs>
    <g id="Page-1" stroke="none" stroke-width="1" fill="none" fill-rule="evenodd" sketch:type="MSPage">
        <g id="Group" sketch:type="MSLayerGroup" transform="translate(-227.000000, -2425.000000)">
            <g id="footer" transform="translate(0.000000, 2346.000000)" sketch:type="MSShapeGroup">
                <g id="payment" transform="translate(227.000000, 34.000000)">
                    <g id="Visa-dark" transform="translate(0.000000, 45.000000)">
                        <rect id="Rectangle" fill="#26337A" x="0" y="0" width="80" height="48" rx="4"></rect>
                        <path d="M33.1919926,31.6374085 L35.6517825,16.3781408 L39.5836682,16.3781408 L37.1241032,31.6374085 L33.1919926,31.6374085" id="Fill-3" fill="#FFFFFF"></path>
                        <path d="M51.3862968,16.7526761 C50.60887,16.4464225 49.3861714,16.1124507 47.8630267,16.1124507 C43.9756682,16.1124507 41.23927,18.1832113 41.2165567,21.1483944 C41.1918194,23.3417465 43.1692313,24.5649577 44.6599926,25.2939718 C46.1921327,26.0412394 46.706894,26.5194366 46.7008221,27.1876056 C46.6902525,28.2095775 45.4778986,28.6778592 44.3474028,28.6778592 C42.7732092,28.6778592 41.9368627,28.4473239 40.6437751,27.8776338 L40.1380092,27.6347042 L39.5881659,31.0503662 C40.5050212,31.4753803 42.2047005,31.8442817 43.9686968,31.863662 C48.1000553,31.863662 50.7845051,29.8179155 50.8159889,26.651493 C50.8301567,24.9122254 49.7824184,23.5939155 47.5133309,22.5054648 C46.1392848,21.7978592 45.2959668,21.3291268 45.3056369,20.6129577 C45.3065364,19.9788169 46.0180719,19.299831 47.5580829,19.299831 C48.8441991,19.2790986 49.7752221,19.5761127 50.5007005,19.8861972 L50.8537696,20.0606197 L51.3862968,16.7526761" id="Fill-4" fill="#FFFFFF"></path>
                        <path d="M56.6218396,26.2273803 C56.9476977,25.3503099 58.1881622,21.9621408 58.1881622,21.9621408 C58.165224,22.0024789 58.5122212,21.0783099 58.7107945,20.5063662 L58.9761585,21.8224225 C58.9761585,21.8224225 59.730647,25.4645634 59.8860424,26.2273803 L56.6218396,26.2273803 L56.6218396,26.2273803 Z M61.4726046,16.3936901 L58.4339613,16.3936901 C57.4914691,16.3936901 56.7860055,16.663662 56.3731171,17.6585915 L50.5339834,31.6428169 L54.6637677,31.6428169 C54.6637677,31.6428169 55.3375226,29.7615775 55.4904442,29.3487324 C55.9408885,29.3487324 59.9537327,29.3566197 60.5265143,29.3566197 C60.6443539,29.8891268 61.005294,31.6428169 61.005294,31.6428169 L64.6547244,31.6428169 L61.4726046,16.3936901 L61.4726046,16.3936901 Z" id="Fill-5" fill="#FFFFFF"></path>
                        <path d="M29.8933825,16.3909859 L26.044929,26.7941408 L25.6327152,24.6794366 C24.9155576,22.2429296 22.6831263,19.6020282 20.1860055,18.2787606 L23.7068018,31.6241127 L27.86807,31.6216338 L34.0600479,16.3909859 L29.8933825,16.3909859" id="Fill-6" fill="#FFFFFF"></path>
                        <path d="M22.4724092,16.3806197 L16.1317825,16.3806197 L16.0796092,16.6967887 C21.0133567,17.9607887 24.2777843,21.011831 25.6327152,24.6794366 L24.2548461,17.6680563 C24.0171429,16.7010704 23.3262968,16.4144225 22.4724092,16.3806197" id="Fill-7" fill="#ED982D"></path>
                    </g>
                </g>
            </g>
        </g>
    </g>
</svg>